{
.appVersion = "3260";
.formatVersion = 3;
axes = (
{
name = Weight;
tag = wght;
}
);
classes = (
{
automatic = 1;

glyphs = (
{
glyphname = A;
kernLeft = A;
kernRight = A;
lastChange = "2025-06-03 21:46:18 +0000";
layers = (
{
anchors = (
{
name = ogonek;
pos = (685,46);
},
{
name = top;
pos = (381,712);
}
);
layerId = "8C7EE80F-D163-4204-B2B9-0AE0B1A3E0A1";
shapes = (
{
closed = 1;
nodes = (
(221,0,l),
(458,700,l),
(271,700,l),
(27,0,l)
);
},
{
closed = 1;
nodes = (
(550,138,l),
(550,294,l),
(228,294,l),
(228,138,l)
);
},
{
closed = 1;
nodes = (
(733,0,l),
(490,700,l),
(318,700,l),
(543,0,l)
);
}
);
width = 760;
}
);
unicode = 65;
},
{
glyphname = AE;
kernLeft = A;
lastChange = "2025-06-02 17:03:30 +0000";
layers = (
{
anchors = (
{
name = top;
pos = (712,700);
}
);
layerId = "8C7EE80F-D163-4204-B2B9-0AE0B1A3E0A1";
shapes = (
{
closed = 1;
nodes = (
(227,0,l),
(600,700,l),
(406,700,l),
(27,0,l)
);
},
{
closed = 1;
nodes = (
(510,121,l),
(510,280,l),
(208,280,l),
(208,121,l)
);
},
{
closed = 1;
nodes = (
(1004,0,l),
(1004,159,l),
(702,159,l),
(702,281,l),
(959,281,l),
(959,440,l),
(702,440,l),
(702,541,l),
(1004,541,l),
(1004,700,l),
(516,700,l),
(516,0,l)
);
}
);
width = 1031;
}
);
metricLeft = A;
metricRight = A;
unicode = 198;
},
{
glyphname = B;
kernLeft = B;
kernRight = B;
lastChange = "2025-06-02 18:50:32 +0000";
layers = (
{
layerId = "8C7EE80F-D163-4204-B2B9-0AE0B1A3E0A1";
shapes = (
{
closed = 1;
nodes = (
(372,0,ls),
(548,0,o),
(636,80,o),
(636,206,cs),
(636,280,o),
(589,340,o),
(520,362,c),
(557,387,o),
(597,436,o),
(597,515,cs),
(597,609,o),
(521,701,o),
(365,701,cs),
(27,701,l),
(27,0,l)
);
},
{
closed = 1;
nodes = (
(214,275,l),
(214,275,o),
(338,275,o),
(338,275,cs),
(389,275,o),
(438,260,o),
(438,217,cs),
(438,159,o),
(390,159,o),
(328,159,cs),
(214,159,l)
);
},
{
closed = 1;
nodes = (
(214,542,l),
(214,542,o),
(330,542,o),
(330,542,cs),
(367,542,o),
(400,525,o),
(400,493,cs),
(400,444,o),
(369,434,o),
(331,434,cs),
(214,434,l)
);
}
);
width = 666;
}
);
metricLeft = A;
metricRight = "=O/1.5";
unicode = 66;
},
{
glyphname = C;
kernLeft = O;
lastChange = "2025-06-02 18:50:32 +0000";
layers = (
{
anchors = (
{
name = bottom;
pos = (390,-13);
},
{
name = top;
pos = (408,713);
}
);
layerId = "8C7EE80F-D163-4204-B2B9-0AE0B1A3E0A1";
shapes = (
{
closed = 1;
nodes = (
(570,-11,o),
(652,76,o),
(680,199,c),
(503,235,l),
(495,182,o),
(425,155,o),
(395,155,cs),
(298,155,o),
(242,207,o),
(242,357,cs),
(242,484,o),
(290,548,o),
(391,548,cs),
(439,548,o),
(493,507,o),
(504,467,c),
(680,502,l),
(652,625,o),
(530,713,o),
(392,713,cs),
(160,713,o),
(45,551,o),
(45,355,cs),
(45,173,o),
(128,-11,o),
(395,-11,cs)
);
}
);
width = 725;
}
);
metricLeft = O;
metricRight = O;
unicode = 67;
},
{
glyphname = D;
kernRight = O;
lastChange = "2025-06-02 18:50:32 +0000";
layers = (
{
layerId = "8C7EE80F-D163-4204-B2B9-0AE0B1A3E0A1";
shapes = (
{
closed = 1;
nodes = (
(370,0,ls),
(614,0,o),
(727,141,o),
(727,349,cs),
(727,560,o),
(614,700,o),
(370,700,cs),
(75,700,l),
(75,0,l)
);
},
{
closed = 1;
nodes = (
(260,541,l),
(373,541,ls),
(462,541,o),
(528,507,o),
(528,350,cs),
(528,192,o),
(462,159,o),
(373,159,cs),
(260,159,l)
);
}
);
width = 772;
}
);
metricLeft = H;
metricRight = O;
unicode = 68;
},
{
glyphname = Eth;
lastChange = "2025-06-02 18:50:32 +0000";
layers = (
{
layerId = "8C7EE80F-D163-4204-B2B9-0AE0B1A3E0A1";
shapes = (
{
alignment = -1;
pos = (89,0);
ref = D;
},
{
closed = 1;
nodes = (
(488,274,l),
(488,410,l),
(75,410,l),
(75,274,l)
);
}
);
width = 861;
}
);
metricLeft = H;
metricRight = O;
unicode = 208;
},
{
glyphname = E;
kernLeft = E;
kernRight = E;
lastChange = "2025-06-02 18:06:21 +0000";
layers = (
{
anchors = (
{
name = bottom;
pos = (343,0);
},
{
name = top;
pos = (343,700);
}
);
layerId = "8C7EE80F-D163-4204-B2B9-0AE0B1A3E0A1";
shapes = (
{
closed = 1;
nodes = (
(599,0,l),
(599,159,l),
(271,159,l),
(271,281,l),
(552,281,l),
(552,440,l),
(271,440,l),
(271,541,l),
(599,541,l),
(599,700,l),
(86,700,l),
(86,0,l)
);
}
);
width = 661;
}
);
unicode = 69;
},
{
glyphname = Eopen;
lastChange = "2025-06-02 12:29:07 +0000";
layers = (
{
anchors = (
{
name = bottom;
pos = (274,0);
},
{
name = top;
pos = (274,700);
}
);
layerId = "8C7EE80F-D163-4204-B2B9-0AE0B1A3E0A1";
shapes = (
{
closed = 1;
nodes = (
(514,-12,o),
(593,92,o),
(608,212,c),
(422,223,l),
(418,194,o),
(403,150,o),
(321,150,cs),
(254,150,o),
(234,177,o),
(234,217,cs),
(234,250,o),
(256,284,o),
(319,284,cs),
(335,284,o),
(352,286,o),
(368,286,c),
(369,447,l),
(353,447,o),
(336,446,o),
(320,446,cs),
(299,446,o),
(263,454,o),
(263,502,cs),
(263,529,o),
(296,549,o),
(318,549,cs),
(336,549,o),
(367,533,o),
(375,510,c),
(566,563,l),
(549,650,o),
(463,712,o),
(319,712,cs),
(162,712,o),
(70,633,o),
(70,530,cs),
(70,465,o),
(97,415,o),
(137,384,c),
(75,348,o),
(36,286,o),
(36,203,cs),
(36,80,o),
(150,-12,o),
(320,-12,cs)
);
}
);
width = 633;
}
);
unicode = 400;
},
{
glyphname = Schwa;
lastChange = "2025-06-02 12:29:07 +0000";
layers = (
{
anchors = (
{
name = bottom;
pos = (377,0);
},
{
name = top;
pos = (377,700);
}
);
layerId = "8C7EE80F-D163-4204-B2B9-0AE0B1A3E0A1";
shapes = (
{
closed = 1;
nodes = (
(530,-12,o),
(737,90,o),
(737,344,cs),
(737,588,o),
(532,712,o),
(374,712,cs),
(304,712,o),
(148,692,o),
(66,518,c),
(249,460,l),
(267,522,o),
(331,547,o),
(374,547,cs),
(465,547,o),
(539,503,o),
(539,341,cs),
(539,214,o),
(465,153,o),
(381,153,cs),
(302,153,o),
(242,227,o),
(242,280,c),
(576,280,l),
(575,423,l),
(36,423,l),
(36,372,l),
(36,140,o),
(170,-12,o),
(375,-12,cs)
);
}
);
width = 775;
}
);
unicode = 399;
},
{
glyphname = F;
kernLeft = E;
kernRight = F;
lastChange = "2025-06-02 18:07:01 +0000";
layers = (
{
layerId = "8C7EE80F-D163-4204-B2B9-0AE0B1A3E0A1";
shapes = (
{
closed = 1;
nodes = (
(262,0,l),
(262,280,l),
(561,280,l),
(561,439,l),
(262,439,l),
(262,541,l),
(610,541,l),
(610,700,l),
(75,700,l),
(75,0,l)
);
}
);
width = 644;
}
);
unicode = 70;
},
{
glyphname = G;
kernLeft = O;
kernRight = G;
lastChange = "2025-06-02 18:11:12 +0000";
layers = (
{
guides = (
{
angle = 270;
pos = (39,355);
showMeasurement = 1;
},
{
angle = 270;
pos = (735,103);
showMeasurement = 1;
},
{
angle = 270;
pos = (239,357);
showMeasurement = 1;
},
{
angle = 270;
pos = (445,387);
showMeasurement = 1;
}
);
layerId = "8C7EE80F-D163-4204-B2B9-0AE0B1A3E0A1";
shapes = (
{
closed = 1;
nodes = (
(480,-12,o),
(533,25,o),
(567,81,c),
(578,103,o),
(604,101,o),
(604,73,c),
(604,41,o),
(603,0,o),
(603,0,c),
(734,0,l),
(734,387,l),
(417,387,l),
(417,239,l),
(549,239,l),
(536,177,o),
(484,155,o),
(415,155,c),
(289,155,o),
(239,207,o),
(239,357,c),
(239,484,o),
(283,548,o),
(414,548,c),
(488,548,o),
(525,507,o),
(537,467,c),
(732,502,l),
(702,625,o),
(570,711,o),
(432,711,c),
(169,711,o),
(39,551,o),
(39,355,c),
(39,177,o),
(112,-12,o),
(409,-12,c)
);
}
);
width = 791;
}
);
unicode = 71;
},
{
glyphname = H;
kernLeft = H;
kernRight = H;
lastChange = "2025-06-02 18:13:24 +0000";
layers = (
{
layerId = "8C7EE80F-D163-4204-B2B9-0AE0B1A3E0A1";
shapes = (
{
closed = 1;
nodes = (
(270,0,l),
(270,285,l),
(558,285,l),
(558,0,l),
(753,0,l),
(753,700,l),
(558,700,l),
(558,443,l),
(270,443,l),
(270,700,l),
(75,700,l),
(75,0,l)
);
}
);
width = 828;
}
);
unicode = 72;
},
{
glyphname = Hbar;
lastChange = "2025-06-02 12:29:07 +0000";
layers = (
{
layerId = "8C7EE80F-D163-4204-B2B9-0AE0B1A3E0A1";
shapes = (
{
closed = 1;
nodes = (
(350,0,l),
(350,269,l),
(594,269,l),
(594,0,l),
(780,0,l),
(780,700,l),
(594,700,l),
(594,428,l),
(350,428,l),
(350,700,l),
(164,700,l),
(164,0,l)
);
},
{
closed = 1;
nodes = (
(874,497,l),
(874,634,l),
(75,634,l),
(75,497,l)
);
}
);
width = 949;
}
);
metricLeft = H;
metricRight = H;
unicode = 294;
},
{
glyphname = I;
lastChange = "2025-06-03 21:54:52 +0000";
layers = (
{
anchors = (
{
name = bottom;
pos = (283,0);
},
{
name = top;
pos = (283,700);
}
);
layerId = "8C7EE80F-D163-4204-B2B9-0AE0B1A3E0A1";
shapes = (
{
closed = 1;
nodes = (
(490,0,l),
(490,154,l),
(379,154,l),
(379,546,l),
(490,546,l),
(490,700,l),
(75,700,l),
(75,546,l),
(187,546,l),
(187,154,l),
(75,154,l),
(75,0,l)
);
}
);
width = 538;
}
);
metricLeft = H;
metricRight = h;
unicode = 73;
},
{
glyphname = J;
lastChange = "2025-06-02 18:27:57 +0000";
layers = (
{
anchors = (
{
name = top;
pos = (496,700);
}
);
layerId = "8C7EE80F-D163-4204-B2B9-0AE0B1A3E0A1";
shapes = (
{
closed = 1;
nodes = (
(531,-12,o),
(611,98,o),
(611,265,cs),
(611,700,l),
(417,700,l),
(417,264,ls),
(417,216,o),
(396,153,o),
(327,153,cs),
(250,153,o),
(215,202,o),
(204,245,c),
(41,189,l),
(60,72,o),
(169,-12,o),
(327,-12,cs)
);
}
);
width = 682;
}
);
unicode = 74;
},
{
glyphname = K;
kernRight = K;
lastChange = "2025-06-02 18:30:19 +0000";
layers = (
{
anchors = (
{
name = bottom;
pos = (361,0);
}
);
layerId = "8C7EE80F-D163-4204-B2B9-0AE0B1A3E0A1";
shapes = (
{
closed = 1;
nodes = (
(279,0,l),
(279,213,l),
(734,700,l),
(528,700,l),
(279,438,l),
(279,700,l),
(85,700,l),
(85,0,l)
);
},
{
closed = 1;
nodes = (
(741,0,l),
(496,460,l),
(361,319,l),
(518,0,l)
);
}
);
width = 776;
}
);
unicode = 75;
},
{
glyphname = L;
lastChange = "2025-06-02 18:31:01 +0000";
layers = (
{
anchors = (
{
name = bottom;
pos = (359,0);
},
{
name = center;
pos = (394,350);
},
{
name = top;
pos = (191,700);
},
{
name = topright;
pos = (604,700);
}
);
layerId = "8C7EE80F-D163-4204-B2B9-0AE0B1A3E0A1";
shapes = (
{
closed = 1;
nodes = (
(622,0,l),
(622,159,l),
(275,159,l),
(275,700,l),
(82,700,l),
(82,0,l)
);
}
);
width = 670;
}
);
unicode = 76;
},
{
glyphname = Lslash;
lastChange = "2025-06-02 13:43:37 +0000";
layers = (
{
layerId = "8C7EE80F-D163-4204-B2B9-0AE0B1A3E0A1";
shapes = (
{
closed = 1;
nodes = (
(218,275,l),
(363,320,l),
(536,394,l),
(488,518,l),
(369,463,l),
(215,413,l),
(23,328,l),
(68,209,l)
);
},
{
alignment = -1;
pos = (94,0);
ref = L;
}
);
width = 786;
}
);
unicode = 321;
},
{
glyphname = M;
lastChange = "2025-06-02 18:33:42 +0000";
layers = (
{
layerId = "8C7EE80F-D163-4204-B2B9-0AE0B1A3E0A1";
shapes = (
{
closed = 1;
nodes = (
(282,700,l),
(75,700,l),
(75,0,l),
(259,0,l),
(259,339,l),
(397,58,l),
(568,58,l),
(698,340,l),
(698,0,l),
(882,0,l),
(882,700,l),
(667,700,l),
(479,297,l)
);
}
);
width = 957;
}
);
metricLeft = H;
metricRight = H;
unicode = 77;
},
{
glyphname = N;
lastChange = "2025-06-02 18:34:23 +0000";
layers = (
{
anchors = (
{
name = bottom;
pos = (407,0);
},
{
name = top;
pos = (403,700);
}
);
layerId = "8C7EE80F-D163-4204-B2B9-0AE0B1A3E0A1";
shapes = (
{
closed = 1;
nodes = (
(268,0,l),
(268,426,l),
(234,426,l),
(541,0,l),
(720,0,l),
(720,700,l),
(528,700,l),
(528,286,l),
(561,286,l),
(268,700,l),
(75,700,l),
(75,0,l)
);
}
);
width = 795;
}
);
metricLeft = H;
metricRight = H;
unicode = 78;
},
{
glyphname = Nhookleft;
lastChange = "2025-06-02 13:43:38 +0000";
layers = (
{
layerId = "8C7EE80F-D163-4204-B2B9-0AE0B1A3E0A1";
shapes = (
{
closed = 1;
nodes = (
(300,-230,o),
(372,-163,o),
(372,-70,c),
(372,373,l),
(612,0,l),
(796,0,l),
(796,700,l),
(610,700,l),
(610,318,l),
(370,700,l),
(185,700,l),
(185,5,l),
(185,-19,o),
(164,-46,o),
(135,-46,cs),
(122,-46,o),
(93,-45,o),
(77,-42,c),
(75,-222,l),
(92,-227,o),
(139,-230,o),
(155,-230,cs)
);
}
);
width = 871;
}
);
metricLeft = H;
metricRight = H;
unicode = 413;
},
{
glyphname = Eng;
lastChange = "2025-06-02 13:43:38 +0000";
layers = (
{
anchors = (
{
name = bottom;
pos = (394,0);
},
{
name = top;
pos = (389,700);
}
);
layerId = "8C7EE80F-D163-4204-B2B9-0AE0B1A3E0A1";
shapes = (
{
closed = 1;
nodes = (
(614,-229,o),
(686,-163,o),
(686,-70,cs),
(686,700,l),
(500,700,l),
(500,317,l),
(260,700,l),
(75,700,l),
(75,0,l),
(262,0,l),
(262,373,l),
(502,0,l),
(502,6,ls),
(502,-18,o),
(483,-45,o),
(454,-45,cs),
(441,-45,o),
(406,-44,o),
(390,-41,c),
(389,-221,l),
(406,-226,o),
(453,-229,o),
(469,-229,cs)
);
}
);
width = 761;
}
);
metricLeft = H;
metricRight = H;
unicode = 330;
},
{
glyphname = O;
kernLeft = O;
kernRight = O;
lastChange = "2025-06-02 18:35:31 +0000";
layers = (
{
anchors = (
{
name = bottom;
pos = (413,-11);
},
{
name = top;
pos = (419,713);
}
);
layerId = "8C7EE80F-D163-4204-B2B9-0AE0B1A3E0A1";
shapes = (
{
closed = 1;
nodes = (
(654,-11,o),
(789,142,o),
(789,352,cs),
(789,560,o),
(654,713,o),
(419,713,cs),
(183,713,o),
(45,560,o),
(45,352,cs),
(45,142,o),
(183,-11,o),
(419,-11,cs)
);
},
{
closed = 1;
nodes = (
(320,148,o),
(256,207,o),
(256,352,cs),
(256,498,o),
(320,554,o),
(419,554,cs),
(528,554,o),
(578,498,o),
(578,352,cs),
(578,207,o),
(528,148,o),
(419,148,cs)
);
}
);
width = 834;
}
);
unicode = 79;
},
{
glyphname = Ohorn;
kernLeft = O;
lastChange = "2025-06-02 18:35:40 +0000";
layers = (
{
layerId = "8C7EE80F-D163-4204-B2B9-0AE0B1A3E0A1";
shapes = (
{
closed = 1;
nodes = (
(743,591,o),
(836,712,o),
(779,855,c),
(640,818,l),
(669,761,o),
(673,685,o),
(583,685,cs),
(546,685,o),
(527,698,o),
(456,707,c),
(456,615,l),
(599,591,l)
);
},
{
alignment = -1;
ref = O;
}
);
width = 841;
}
);
metricLeft = O;
metricRight = O;
unicode = 416;
},
{
glyphname = Oslash;
lastChange = "2025-06-02 13:43:38 +0000";
layers = (
{
layerId = "8C7EE80F-D163-4204-B2B9-0AE0B1A3E0A1";
shapes = (
{
alignment = -1;
pos = (48,0);
ref = O;
},
{
closed = 1;
nodes = (
(131,-12,l),
(832,591,l),
(716,710,l),
(20,111,l)
);
}
);
width = 900;
}
);
unicode = 216;
},
{
glyphname = OE;
lastChange = "2025-06-02 13:43:38 +0000";
layers = (
{
anchors = (
{
name = bottom;
pos = (485,0);
},
{
name = top;
pos = (485,700);
}
);
layerId = "8C7EE80F-D163-4204-B2B9-0AE0B1A3E0A1";
shapes = (
{
closed = 1;
nodes = (
(938,0,l),
(938,159,l),
(637,159,l),
(637,281,l),
(893,281,l),
(893,440,l),
(637,440,l),
(637,541,l),
(938,541,l),
(938,700,l),
(378,700,ls),
(147,700,o),
(40,551,o),
(40,349,cs),
(40,151,o),
(147,0,o),
(378,0,cs)
);
},
{
closed = 1;
nodes = (
(305,159,o),
(238,202,o),
(238,350,cs),
(238,498,o),
(305,541,o),
(375,541,cs),
(473,541,l),
(473,159,l),
(375,159,ls)
);
}
);
width = 990;
}
);
unicode = 338;
},
{
glyphname = P;
lastChange = "2025-06-02 18:36:47 +0000";
layers = (
{
guides = (
{
angle = 270;
pos = (260,542);
showMeasurement = 1;
},
{
angle = 270;
pos = (499,464);
showMeasurement = 1;
}
);
layerId = "8C7EE80F-D163-4204-B2B9-0AE0B1A3E0A1";
shapes = (
{
closed = 1;
nodes = (
(266,-2,l),
(266,216,l),
(439,216,ls),
(599,216,o),
(698,331,o),
(698,461,cs),
(698,606,o),
(589,702,o),
(441,702,cs),
(75,702,l),
(75,-2,l)
);
},
{
closed = 1;
nodes = (
(262,542,l),
(415,542,ls),
(472,542,o),
(496,499,o),
(496,464,cs),
(496,430,o),
(473,375,o),
(416,375,cs),
(262,375,l)
);
}
);
width = 731;
}
);
unicode = 80;
},
{
glyphname = Thorn;
lastChange = "2025-06-02 13:43:38 +0000";
layers = (
{
layerId = "8C7EE80F-D163-4204-B2B9-0AE0B1A3E0A1";
shapes = (
{
closed = 1;
nodes = (
(264,-2,l),
(264,116,l),
(406,116,ls),
(552,116,o),
(642,230,o),
(642,361,cs),
(642,505,o),
(543,601,o),
(408,601,cs),
(75,601,l),
(75,-2,l)
);
},
{
closed = 1;
nodes = (
(261,442,l),
(369,442,ls),
(421,442,o),
(443,399,o),
(443,364,cs),
(443,330,o),
(422,275,o),
(370,275,cs),
(261,275,l)
);
},
{
closed = 1;
nodes = (
(75,437,l),
(265,437,l),
(265,700,l),
(75,700,l)
);
}
);
width = 676;
}
);
unicode = 222;
},
{
glyphname = Q;
kernLeft = O;
kernRight = Q;
lastChange = "2025-06-02 18:38:13 +0000";
layers = (
{
layerId = "8C7EE80F-D163-4204-B2B9-0AE0B1A3E0A1";
shapes = (
{
closed = 1;
nodes = (
(644,-11,o),
(766,158,o),
(766,352,cs),
(766,544,o),
(644,713,o),
(409,713,cs),
(174,713,o),
(48,544,o),
(48,352,cs),
(48,158,o),
(174,-11,o),
(409,-11,cs)
);
},
{
closed = 1;
nodes = (
(766,-28,l),
(462,319,l),
(344,227,l),
(650,-121,l)
);
},
{
closed = 1;
nodes = (
(256,142,o),
(220,251,o),
(220,352,cs),
(220,429,o),
(244,562,o),
(409,562,cs),
(574,562,o),
(591,429,o),
(591,352,cs),
(591,251,o),
(564,142,o),
(409,142,cs)
);
}
);
width = 824;
}
);
unicode = 81;
},
{
glyphname = R;
lastChange = "2025-06-02 18:41:55 +0000";
layers = (
{
anchors = (
{
name = bottom;
pos = (336,0);
},
{
name = top;
pos = (344,700);
}
);
guides = (
{
angle = 270;
pos = (261,543);
showMeasurement = 1;
},
{
angle = 270;
pos = (505,472);
showMeasurement = 1;
},
{
angle = 270;
pos = (391,226);
showMeasurement = 1;
}
);
layerId = "8C7EE80F-D163-4204-B2B9-0AE0B1A3E0A1";
shapes = (
{
closed = 1;
nodes = (
(265,-2,l),
(265,228,l),
(450,228,ls),
(610,228,o),
(705,316,o),
(705,469,cs),
(705,617,o),
(596,702,o),
(443,702,cs),
(75,702,l),
(75,-2,l)
);
},
{
closed = 1;
nodes = (
(750,0,l),
(573,265,l),
(363,256,l),
(525,0,l)
);
},
{
closed = 1;
nodes = (
(262,543,l),
(417,543,ls),
(477,543,o),
(504,504,o),
(504,472,cs),
(504,403,o),
(478,387,o),
(417,387,cs),
(262,387,l)
);
}
);
width = 786;
}
);
unicode = 82;
},
{
glyphname = S;
lastChange = "2025-06-03 21:46:13 +0000";
layers = (
{
anchors = (
{
name = bottom;
pos = (348,-1);
},
{
name = top;
pos = (351,712);
}
);
layerId = "8C7EE80F-D163-4204-B2B9-0AE0B1A3E0A1";
shapes = (
{
closed = 1;
nodes = (
(525,-12,o),
(640,66,o),
(640,203,cs),
(640,465,o),
(269,413,o),
(269,502,cs),
(269,555,o),
(337,547,o),
(357,547,cs),
(385,547,o),
(425,542,o),
(434,500,c),
(636,500,l),
(630,590,o),
(591,712,o),
(352,712,cs),
(158,712,o),
(66,599,o),
(66,497,cs),
(66,224,o),
(437,316,o),
(437,186,cs),
(437,158,o),
(389,153,o),
(348,153,cs),
(321,153,o),
(260,160,o),
(245,227,c),
(41,227,l),
(54,112,o),
(132,-12,o),
(348,-12,cs)
);
}
);
width = 689;
}
);
unicode = 83;
},
{
glyphname = Germandbls;
lastChange = "2025-06-02 13:43:38 +0000";
layers = (
{
layerId = "8C7EE80F-D163-4204-B2B9-0AE0B1A3E0A1";
shapes = (
{
closed = 1;
nodes = (
(262,0,l),
(262,700,l),
(75,700,l),
(75,0,l)
);
},
{
closed = 1;
nodes = (
(294,91,l),
(334,16,o),
(418,-14,o),
(502,-14,cs),
(685,-14,o),
(739,103,o),
(740,224,cs),
(740,340,o),
(647,426,o),
(571,426,c),
(696,544,l),
(696,700,l),
(167,700,l),
(167,541,l),
(492,541,l),
(370,424,l),
(370,294,l),
(450,294,ls),
(501,294,o),
(556,281,o),
(556,225,cs),
(556,176,o),
(524,152,o),
(496,152,cs),
(476,152,o),
(452,157,o),
(438,185,c)
);
}
);
width = 777;
}
);
unicode = 7838;
},
{
glyphname = T;
kernLeft = T;
kernRight = T;
lastChange = "2025-06-02 18:44:25 +0000";
layers = (
{
anchors = (
{
name = bottom;
pos = (333,0);
},
{
name = top;
pos = (327,700);
}
);
layerId = "8C7EE80F-D163-4204-B2B9-0AE0B1A3E0A1";
shapes = (
{
closed = 1;
nodes = (
(423,0,l),
(423,541,l),
(621,541,l),
(621,700,l),
(39,700,l),
(39,541,l),
(230,541,l),
(230,0,l)
);
}
);
width = 660;
}
);
unicode = 84;
},
{
glyphname = U;
lastChange = "2025-06-02 18:44:38 +0000";
layers = (
{
anchors = (
{
name = bottom;
pos = (392,-12);
},
{
name = top;
pos = (392,692);
}
);
layerId = "8C7EE80F-D163-4204-B2B9-0AE0B1A3E0A1";
shapes = (
{
closed = 1;
nodes = (
(584,-12,o),
(703,99,o),
(703,275,cs),
(703,701,l),
(510,701,l),
(510,275,ls),
(510,215,o),
(470,152,o),
(387,152,cs),
(298,152,o),
(263,215,o),
(263,275,cs),
(263,701,l),
(71,701,l),
(71,275,ls),
(71,99,o),
(203,-12,o),
(391,-12,cs)
);
}
);
width = 774;
}
);
unicode = 85;
},
{
glyphname = Uhorn;
kernLeft = U;
kernRight = Uhorn;
lastChange = "2025-06-02 13:43:38 +0000";
layers = (
{
layerId = "8C7EE80F-D163-4204-B2B9-0AE0B1A3E0A1";
shapes = (
{
alignment = -1;
ref = U;
},
{
closed = 1;
nodes = (
(795,603,o),
(893,728,o),
(836,871,c),
(697,834,l),
(726,778,o),
(733,701,o),
(647,701,c),
(647,603,l)
);
}
);
width = 860;
}
);
unicode = 431;
},
{
glyphname = V;
kernLeft = V;
kernRight = V;
lastChange = "2025-06-02 18:45:23 +0000";
layers = (
{
layerId = "8C7EE80F-D163-4204-B2B9-0AE0B1A3E0A1";
shapes = (
{
closed = 1;
nodes = (
(289,0,l),
(489,0,l),
(242,700,l),
(36,700,l)
);
},
{
closed = 1;
nodes = (
(358,0,l),
(542,0,l),
(793,700,l),
(589,700,l)
);
}
);
width = 829;
}
);
unicode = 86;
},
{
glyphname = W;
kernLeft = V;
kernRight = V;
lastChange = "2025-06-03 21:45:53 +0000";
layers = (
{
anchors = (
{
name = bottom;
pos = (569,0);
},
{
name = top;
pos = (566,700);
}
);
layerId = "8C7EE80F-D163-4204-B2B9-0AE0B1A3E0A1";
shapes = (
{
closed = 1;
nodes = (
(453,0,l),
(588,533,l),
(542,533,l),
(680,0,l),
(897,0,l),
(1084,700,l),
(875,700,l),
(746,173,l),
(797,173,l),
(668,700,l),
(460,700,l),
(335,173,l),
(384,173,l),
(254,700,l),
(47,700,l),
(235,0,l)
);
}
);
width = 1131;
}
);
unicode = 87;
},
{
glyphname = X;
lastChange = "2025-06-02 18:46:31 +0000";
layers = (
{
layerId = "8C7EE80F-D163-4204-B2B9-0AE0B1A3E0A1";
shapes = (
{
closed = 1;
nodes = (
(759,0,l),
(245,700,l),
(38,700,l),
(553,0,l)
);
},
{
closed = 1;
nodes = (
(251,0,l),
(765,700,l),
(558,700,l),
(44,0,l)
);
}
);
width = 802;
}
);
unicode = 88;
},
{
glyphname = Y;
lastChange = "2025-06-03 21:45:44 +0000";
layers = (
{
anchors = (
{
name = bottom;
pos = (402,0);
},
{
name = top;
pos = (400,700);
}
);
layerId = "8C7EE80F-D163-4204-B2B9-0AE0B1A3E0A1";
shapes = (
{
closed = 1;
nodes = (
(497,0,l),
(494,286,l),
(759,700,l),
(550,700,l),
(400,438,l),
(253,700,l),
(43,700,l),
(307,286,l),
(304,0,l)
);
}
);
width = 802;
}
);
unicode = 89;
},
{
glyphname = Z;
lastChange = "2025-06-02 18:47:11 +0000";
layers = (
{
anchors = (
{
name = bottom;
pos = (327,0);
},
{
name = top;
pos = (327,700);
}
);
layerId = "8C7EE80F-D163-4204-B2B9-0AE0B1A3E0A1";
shapes = (
{
closed = 1;
nodes = (
(606,1,l),
(606,160,l),
(280,160,l),
(596,549,l),
(596,700,l),
(56,700,l),
(56,541,l),
(375,541,l),
(56,152,l),
(56,1,l)
);
}
);
width = 661;
}
);
unicode = 90;
},
{
glyphname = a;
kernLeft = a2;
kernRight = a2;
lastChange = "2025-06-03 21:56:37 +0000";
layers = (
{
guides = (
{
angle = 270;
pos = (383,205);
showMeasurement = 1;
}
);
layerId = "8C7EE80F-D163-4204-B2B9-0AE0B1A3E0A1";
shapes = (
{
closed = 1;
nodes = (
(325,-12,o),
(383,58,o),
(383,94,cs),
(383,110,o),
(403,110,o),
(403,95,cs),
(403,41,o),
(433,0,o),
(518,0,cs),
(548,0,o),
(606,7,o),
(620,15,c),
(620,155,l),
(568,145,o),
(557,158,o),
(557,195,cs),
(557,344,ls),
(557,453,o),
(472,519,o),
(308,519,cs),
(170,519,o),
(57,449,o),
(37,372,cs),
(30,344,o),
(30,320,o),
(30,320,c),
(197,320,l),
(197,357,o),
(226,396,o),
(297,396,cs),
(358,396,o),
(384,361,o),
(384,300,c),
(346,300,ls),
(197,300,o),
(30,275,o),
(30,147,cs),
(30,54,o),
(99,-12,o),
(216,-12,cs)
);
},
{
closed = 1;
nodes = (
(275,117,o),
(216,120,o),
(216,159,cs),
(216,188,o),
(237,205,o),
(383,205,c),
(383,193,ls),
(383,123,o),
(340,117,o),
(277,117,cs)
);
}
);
vertWidth = 955;
width = 641;
}
);
unicode = 97;
},
{
glyphname = ae;
kernLeft = o;
kernRight = e;
lastChange = "2025-06-03 21:47:25 +0000";
layers = (
{
anchors = (
{
name = top;
pos = (455,525);
}
);
layerId = "8C7EE80F-D163-4204-B2B9-0AE0B1A3E0A1";
shapes = (
{
closed = 1;
nodes = (
(695,-13,o),
(808,3,o),
(868,131,c),
(699,185,l),
(680,149,o),
(637,139,o),
(632,139,cs),
(563,139,o),
(527,180,o),
(527,262,cs),
(527,319,o),
(562,373,o),
(626,373,cs),
(674,373,o),
(707,333,o),
(707,313,c),
(480,313,l),
(481,213,l),
(890,213,l),
(890,239,l),
(890,412,o),
(794,525,o),
(630,525,cs),
(502,525,o),
(376,449,o),
(376,260,cs),
(376,78,o),
(501,-13,o),
(631,-13,cs)
);
},
{
closed = 1;
nodes = (
(516,-12,o),
(461,233,o),
(461,184,c),
(490,190,l),
(490,343,ls),
(490,453,o),
(441,525,o),
(282,525,cs),
(147,525,o),
(67,454,o),
(48,382,c),
(179,330,l),
(190,367,o),
(219,390,o),
(270,390,cs),
(329,390,o),
(352,352,o),
(354,314,cs),
(354,324,l),
(145,324,o),
(22,278,o),
(22,148,cs),
(22,54,o),
(90,-12,o),
(222,-12,cs)
);
},
{
closed = 1;
nodes = (
(249,117,o),
(201,120,o),
(201,159,cs),
(201,188,o),
(216,213,o),
(354,213,c),
(354,197,ls),
(354,127,o),
(312,117,o),
(251,117,cs)
);
}
);
width = 938;
}
);
metricRight = n;
unicode = 230;
},
{
glyphname = b;
kernRight = o;
lastChange = "2025-06-03 21:56:05 +0000";
layers = (
{
layerId = "8C7EE80F-D163-4204-B2B9-0AE0B1A3E0A1";
shapes = (
{
closed = 1;
nodes = (
(579,-12,o),
(641,91,o),
(641,258,cs),
(641,424,o),
(559,525,o),
(423,525,cs),
(334,525,o),
(275,486,o),
(245,437,c),
(245,700,l),
(61,700,l),
(59,0,l),
(245,0,l),
(245,92,ls),
(245,108,o),
(262,115,o),
(268,92,cs),
(281,41,o),
(327,-12,o),
(445,-12,cs)
);
},
{
closed = 1;
nodes = (
(291,125,o),
(245,191,o),
(245,258,cs),
(245,339,o),
(291,390,o),
(348,392,cs),
(407,393,o),
(448,344,o),
(448,259,cs),
(448,187,o),
(402,125,o),
(348,125,cs)
);
}
);
width = 667;
}
);
metricLeft = n;
metricRight = o;
unicode = 98;
},
{
glyphname = c;
kernLeft = o;
kernRight = c;
lastChange = "2025-06-03 21:34:52 +0000";
layers = (
{
layerId = "8C7EE80F-D163-4204-B2B9-0AE0B1A3E0A1";
shapes = (
{
closed = 1;
nodes = (
(408,-12,o),
(530,44,o),
(559,131,cs),
(567,159,o),
(570,190,o),
(570,190,c),
(408,188,l),
(402,169,o),
(353,141,o),
(317,141,cs),
(263,141,o),
(215,181,o),
(215,258,cs),
(215,335,o),
(264,373,o),
(317,373,cs),
(353,373,o),
(400,344,o),
(408,323,c),
(567,323,l),
(567,323,o),
(567,349,o),
(554,381,cs),
(513,477,o),
(418,525,o),
(325,525,cs),
(122,525,o),
(27,418,o),
(27,257,cs),
(27,95,o),
(132,-12,o),
(325,-12,cs)
);
}
);
width = 593;
}
);
unicode = 99;
},
{
glyphname = d;
kernLeft = o;
lastChange = "2025-06-03 21:55:56 +0000";
layers = (
{
layerId = "8C7EE80F-D163-4204-B2B9-0AE0B1A3E0A1";
shapes = (
{
closed = 1;
nodes = (
(339,-12,o),
(391,39,o),
(407,92,cs),
(411,107,o),
(430,108,o),
(430,92,cs),
(430,0,l),
(663,0,l),
(663,179,l),
(615,179,o),
(615,123,o),
(615,179,cs),
(613,700,l),
(430,700,l),
(430,437,l),
(401,486,o),
(342,525,o),
(253,525,cs),
(116,525,o),
(25,424,o),
(25,258,cs),
(25,91,o),
(99,-12,o),
(231,-12,cs)
);
},
{
closed = 1;
nodes = (
(274,125,o),
(218,187,o),
(218,259,cs),
(218,344,o),
(260,393,o),
(327,392,cs),
(385,391,o),
(430,339,o),
(430,258,cs),
(430,191,o),
(385,125,o),
(329,125,cs)
);
}
);
width = 696;
}
);
metricLeft = o;
unicode = 100;
},
{
glyphname = dcaron;
kernLeft = o;
lastChange = "2025-06-03 21:54:52 +0000";
layers = (
{
layerId = "8C7EE80F-D163-4204-B2B9-0AE0B1A3E0A1";
shapes = (
{
alignment = -1;
ref = d;
},
{
closed = 1;
nodes = (
(861,700,l),
(715,700,l),
(692,506,l),
(805,506,l)
);
}
);
width = 909;
}
);
metricLeft = o;
metricRight = h;
unicode = 271;
},
{
glyphname = dcroat;
kernLeft = o;
lastChange = "2025-06-03 21:47:25 +0000";
layers = (
{
layerId = "8C7EE80F-D163-4204-B2B9-0AE0B1A3E0A1";
shapes = (
{
alignment = -1;
ref = d;
},
{
closed = 1;
nodes = (
(293,527,l),
(667,527,l),
(667,650,l),
(293,650,l)
);
}
);
width = 746;
}
);
metricLeft = o;
unicode = 273;
},
{
glyphname = eth;
kernLeft = o;
kernRight = o;
lastChange = "2025-06-03 21:47:25 +0000";
layers = (
{
anchors = (
{
name = bottom;
pos = (297,0);
},
{
name = top;
pos = (297,720);
}
);
layerId = "8C7EE80F-D163-4204-B2B9-0AE0B1A3E0A1";
shapes = (
{
closed = 1;
nodes = (
(462,-12,o),
(569,138,o),
(569,319,cs),
(569,550,o),
(414,698,o),
(220,758,c),
(159,645,l),
(188,641,o),
(353,594,o),
(411,444,c),
(395,468,o),
(333,504,o),
(273,504,cs),
(148,504,o),
(25,428,o),
(25,246,cs),
(25,78,o),
(163,-12,o),
(297,-12,cs)
);
},
{
closed = 1;
nodes = (
(239,142,o),
(207,184,o),
(207,246,cs),
(207,304,o),
(240,350,o),
(292,350,cs),
(362,350,o),
(383,304,o),
(383,246,cs),
(383,184,o),
(358,142,o),
(292,142,cs)
);
},
{
closed = 1;
nodes = (
(514,656,l),
(465,740,l),
(169,592,l),
(215,509,l)
);
}
);
width = 601;
}
);
metricLeft = o;
unicode = 240;
},
{
glyphname = e;
kernLeft = o;
kernRight = o;
lastChange = "2025-06-03 21:51:46 +0000";
layers = (
{
anchors = (
{
name = bottom;
pos = (312,-13);
},
{
name = top;
pos = (312,525);
}
);
layerId = "8C7EE80F-D163-4204-B2B9-0AE0B1A3E0A1";
shapes = (
{
closed = 1;
nodes = (
(382,-13,o),
(486,4,o),
(561,131,c),
(417,185,l),
(389,149,o),
(350,139,o),
(307,139,cs),
(234,139,o),
(188,190,o),
(188,272,cs),
(188,329,o),
(232,377,o),
(309,377,cs),
(372,377,o),
(405,335,o),
(405,313,c),
(149,313,l),
(151,213,l),
(584,213,l),
(584,249,ls),
(584,422,o),
(473,525,o),
(304,525,cs),
(172,525,o),
(25,451,o),
(25,249,cs),
(25,59,o),
(171,-13,o),
(306,-13,cs)
);
}
);
width = 610;
}
);
metricLeft = o;
metricRight = o;
unicode = 101;
},
{
glyphname = eogonek;
kernLeft = o;
lastChange = "2025-06-03 21:47:25 +0000";
layers = (
{
layerId = "8C7EE80F-D163-4204-B2B9-0AE0B1A3E0A1";
shapes = (
{
alignment = -1;
ref = e;
},
{
closed = 1;
nodes = (
(503,-203,o),
(545,-181,o),
(570,-157,c),
(523,-72,l),
(486,-107,o),
(442,-78,o),
(442,-32,cs),
(442,-17,o),
(444,15,o),
(492,61,c),
(470,103,l),
(358,50,o),
(320,6,o),
(319,-84,cs),
(317,-154,o),
(381,-203,o),
(445,-203,cs)
);
}
);
width = 610;
}
);
metricLeft = o;
metricRight = o;
unicode = 281;
},
{
glyphname = eopen;
kernLeft = o;
lastChange = "2025-06-03 21:47:25 +0000";
layers = (
{
layerId = "8C7EE80F-D163-4204-B2B9-0AE0B1A3E0A1";
shapes = (
{
closed = 1;
nodes = (
(386,192,l),
(376,174,o),
(361,140,o),
(293,140,cs),
(232,140,o),
(213,155,o),
(213,177,cs),
(213,208,o),
(233,210,o),
(284,210,cs),
(284,210,o),
(333,210,o),
(333,210,c),
(334,312,l),
(285,312,l),
(269,312,o),
(240,318,o),
(240,343,cs),
(240,365,o),
(257,373,o),
(285,373,cs),
(328,373,o),
(340,352,o),
(342,337,c),
(498,411,l),
(482,477,o),
(391,525,o),
(280,525,cs),
(139,525,o),
(56,464,o),
(56,382,cs),
(56,328,o),
(91,281,o),
(133,268,c),
(52,241,o),
(25,217,o),
(25,154,cs),
(25,49,o),
(132,-12,o),
(292,-12,cs),
(447,-12,o),
(515,66,o),
(541,158,c)
);
}
);
width = 567;
}
);
metricLeft = o;
metricRight = o;
unicode = 603;
},
{
glyphname = f;
lastChange = "2025-06-03 21:40:55 +0000";
layers = (
{
layerId = "8C7EE80F-D163-4204-B2B9-0AE0B1A3E0A1";
shapes = (
{
closed = 1;
nodes = (
(313,0,l),
(313,361,l),
(425,361,l),
(425,513,l),
(313,513,l),
(313,518,ls),
(313,540,o),
(331,574,o),
(379,574,cs),
(392,574,o),
(402,573,o),
(417,570,c),
(419,712,l),
(403,717,o),
(367,720,o),
(311,720,cs),
(239,720,o),
(140,696,o),
(138,576,cs),
(136,513,l),
(23,513,l),
(23,361,l),
(136,361,l),
(136,0,l)
);
}
);
width = 448;
}
);
unicode = 102;
},
{
glyphname = g;
kernLeft = g;
lastChange = "2025-06-03 21:49:46 +0000";
layers = (
{
layerId = "8C7EE80F-D163-4204-B2B9-0AE0B1A3E0A1";
shapes = (
{
closed = 1;
nodes = (
(436,-9,ls),
(436,-69,o),
(370,-99,o),
(298,-99,cs),
(238,-99,o),
(181,-54,o),
(158,-6,c),
(20,-97,l),
(54,-177,o),
(158,-241,o),
(293,-241,cs),
(512,-240,o),
(614,-124,o),
(614,-9,cs),
(615,513,l),
(440,513,l),
(440,421,ls),
(440,406,o),
(422,401,o),
(417,421,cs),
(404,476,o),
(340,525,o),
(244,525,cs),
(107,525,o),
(31,432,o),
(31,255,cs),
(31,89,o),
(128,-12,o),
(265,-12,cs),
(361,-12,o),
(409,24,o),
(436,69,c)
);
},
{
closed = 1;
nodes = (
(277,120,o),
(226,168,o),
(226,254,cs),
(226,325,o),
(271,388,o),
(336,388,cs),
(393,388,o),
(438,322,o),
(437,255,cs),
(438,173,o),
(387,123,o),
(335,121,cs)
);
}
);
width = 675;
}
);
unicode = 103;
},
{
glyphname = h;
kernLeft = n;
kernRight = n;
lastChange = "2025-06-03 21:47:25 +0000";
layers = (
{
layerId = "8C7EE80F-D163-4204-B2B9-0AE0B1A3E0A1";
shapes = (
{
closed = 1;
nodes = (
(245,0,l),
(245,221,ls),
(245,336,o),
(261,385,o),
(350,385,cs),
(408,385,o),
(423,349,o),
(423,286,cs),
(423,0,l),
(609,0,l),
(609,309,ls),
(609,429,o),
(560,525,o),
(399,525,cs),
(357,525,o),
(274,504,o),
(245,447,c),
(245,700,l),
(59,700,l),
(59,0,l)
);
}
);
width = 657;
}
);
metricLeft = n;
metricRight = n;
unicode = 104;
},
{
glyphname = hbar;
kernLeft = n;
kernRight = n;
lastChange = "2025-06-03 21:47:25 +0000";
layers = (
{
layerId = "8C7EE80F-D163-4204-B2B9-0AE0B1A3E0A1";
shapes = (
{
alignment = -1;
pos = (71,0);
ref = h;
},
{
closed = 1;
nodes = (
(59,527,l),
(433,527,l),
(433,650,l),
(59,650,l)
);
}
);
width = 728;
}
);
metricLeft = n;
metricRight = n;
unicode = 295;
},
{
glyphname = i;
kernLeft = i;
kernRight = i;
lastChange = "2025-06-03 21:38:21 +0000";
layers = (
{
layerId = "8C7EE80F-D163-4204-B2B9-0AE0B1A3E0A1";
shapes = (
{
closed = 1;
nodes = (
(213,542,o),
(258,590,o),
(258,647,cs),
(258,703,o),
(213,751,o),
(151,751,cs),
(96,751,o),
(46,703,o),
(46,647,cs),
(46,590,o),
(96,542,o),
(151,542,cs)
);
},
{
closed = 1;
nodes = (
(244,0,l),
(244,513,l),
(59,513,l),
(59,0,l)
);
}
);
width = 303;
}
);
unicode = 105;
},
{
glyphname = idotless;
lastChange = "2025-06-03 21:47:25 +0000";
layers = (
{
anchors = (
{
name = bottom;
pos = (149,0);
},
{
name = top;
pos = (147,513);
}
);
layerId = "8C7EE80F-D163-4204-B2B9-0AE0B1A3E0A1";
shapes = (
{
closed = 1;
nodes = (
(238,0,l),
(238,513,l),
(59,513,l),
(59,0,l)
);
}
);
width = 297;
}
);
metricLeft = n;
unicode = 305;
},
{
glyphname = j;
lastChange = "2025-06-02 18:58:29 +0000";
layers = (
{
layerId = "8C7EE80F-D163-4204-B2B9-0AE0B1A3E0A1";
shapes = (
{
closed = 1;
nodes = (
(173,-229,o),
(248,-163,o),
(248,-70,cs),
(249,513,l),
(63,513,l),
(63,6,ls),
(63,-18,o),
(44,-45,o),
(14,-45,cs),
(1,-45,o),
(-41,-44,o),
(-57,-41,c),
(-60,-221,l),
(-42,-226,o),
(7,-229,o),
(23,-229,cs)
);
},
{
closed = 1;
nodes = (
(219,542,o),
(265,590,o),
(265,647,cs),
(265,703,o),
(219,751,o),
(157,751,cs),
(101,751,o),
(51,703,o),
(51,647,cs),
(51,590,o),
(101,542,o),
(157,542,cs)
);
}
);
width = 318;
}
);
unicode = 106;
},
{
glyphname = jdotless;
lastChange = "2025-06-02 13:43:39 +0000";
layers = (
{
anchors = (
{
name = top;
pos = (150,513);
}
);
layerId = "8C7EE80F-D163-4204-B2B9-0AE0B1A3E0A1";
shapes = (
{
closed = 1;
nodes = (
(166,-229,o),
(238,-163,o),
(238,-70,cs),
(239,513,l),
(59,513,l),
(60,6,ls),
(60,-18,o),
(41,-45,o),
(12,-45,cs),
(-1,-45,o),
(-41,-44,o),
(-57,-41,c),
(-59,-221,l),
(-42,-226,o),
(5,-229,o),
(21,-229,cs)
);
}
);
width = 299;
}
);
unicode = 567;
},
{
glyphname = k;
lastChange = "2025-06-03 21:47:25 +0000";
layers = (
{
anchors = (
{
name = bottom;
pos = (345,0);
}
);
layerId = "8C7EE80F-D163-4204-B2B9-0AE0B1A3E0A1";
shapes = (
{
closed = 1;
nodes = (
(359,218,l),
(384,226,l),
(648,513,l),
(412,513,l),
(103,205,l),
(226,107,l)
);
},
{
closed = 1;
nodes = (
(245,0,l),
(245,719,l),
(59,717,l),
(59,-2,l)
);
},
{
closed = 1;
nodes = (
(668,0,l),
(428,366,l),
(260,280,l),
(445,0,l)
);
}
);
width = 687;
}
);
metricLeft = n;
unicode = 107;
},
{
glyphname = l;
lastChange = "2025-06-03 21:47:25 +0000";
layers = (
{
anchors = (
{
name = bottom;
pos = (152,0);
},
{
name = top;
pos = (154,700);
}
);
layerId = "8C7EE80F-D163-4204-B2B9-0AE0B1A3E0A1";
shapes = (
{
closed = 1;
nodes = (
(245,0,l),
(245,700,l),
(59,700,l),
(59,0,l)
);
}
);
width = 305;
}
);
metricLeft = n;
unicode = 108;
},
{
glyphname = lcaron;
lastChange = "2025-06-03 21:47:25 +0000";
layers = (
{
layerId = "8C7EE80F-D163-4204-B2B9-0AE0B1A3E0A1";
shapes = (
{
alignment = -1;
ref = l;
},
{
closed = 1;
nodes = (
(498,700,l),
(352,700,l),
(329,506,l),
(443,506,l)
);
}
);
width = 546;
}
);
metricLeft = n;
metricRight = h;
unicode = 318;
},
{
glyphname = ldot;
lastChange = "2025-06-03 21:47:25 +0000";
layers = (
{
layerId = "8C7EE80F-D163-4204-B2B9-0AE0B1A3E0A1";
shapes = (
{
alignment = -1;
ref = l;
},
{
closed = 1;
nodes = (
(477,244,o),
(527,292,o),
(527,353,cs),
(527,411,o),
(477,457,o),
(418,457,cs),
(359,457,o),
(310,411,o),
(310,353,cs),
(310,292,o),
(359,244,o),
(418,244,cs)
);
}
);
width = 542;
}
);
metricLeft = n;
unicode = 320;
},
{
glyphname = lslash;
lastChange = "2025-06-03 21:47:25 +0000";
layers = (
{
layerId = "8C7EE80F-D163-4204-B2B9-0AE0B1A3E0A1";
shapes = (
{
alignment = -1;
pos = (135,0);
ref = l;
},
{
closed = 1;
nodes = (
(541,438,l),
(456,543,l),
(59,274,l),
(143,166,l)
);
}
);
width = 548;
}
);
metricLeft = n;
unicode = 322;
},
{
glyphname = m;
kernLeft = m;
kernRight = m;
lastChange = "2025-06-03 21:47:25 +0000";
layers = (
{
layerId = "8C7EE80F-D163-4204-B2B9-0AE0B1A3E0A1";
shapes = (
{
closed = 1;
nodes = (
(246,0,l),
(246,221,ls),
(246,336,o),
(277,385,o),
(356,385,cs),
(406,385,o),
(421,354,o),
(421,286,cs),
(421,0,l),
(607,0,l),
(607,309,ls),
(607,429,o),
(551,525,o),
(397,525,cs),
(325,525,o),
(283,470,o),
(269,421,cs),
(264,401,o),
(246,408,o),
(246,421,cs),
(246,513,l),
(59,513,l),
(59,0,l)
);
},
{
closed = 1;
nodes = (
(969,0,l),
(969,309,ls),
(969,429,o),
(912,525,o),
(760,525,cs),
(723,525,o),
(628,538,o),
(587,422,c),
(607,221,l),
(607,334,o),
(629,385,o),
(708,385,cs),
(767,385,o),
(783,354,o),
(783,286,cs),
(783,0,l)
);
}
);
width = 1017;
}
);
metricLeft = n;
metricRight = n;
unicode = 109;
},
{
glyphname = n;
kernLeft = n;
kernRight = n;
lastChange = "2025-06-03 21:51:22 +0000";
layers = (
{
anchors = (
{
name = bottom;
pos = (306,0);
},
{
name = top;
pos = (314,525);
}
);
layerId = "8C7EE80F-D163-4204-B2B9-0AE0B1A3E0A1";
shapes = (
{
closed = 1;
nodes = (
(246,0,l),
(246,221,ls),
(246,336,o),
(277,385,o),
(356,385,cs),
(406,385,o),
(421,354,o),
(421,286,cs),
(421,0,l),
(607,0,l),
(607,309,ls),
(607,429,o),
(551,525,o),
(397,525,cs),
(325,525,o),
(283,470,o),
(269,421,cs),
(264,401,o),
(246,408,o),
(246,421,cs),
(246,513,l),
(59,513,l),
(59,0,l)
);
}
);
width = 655;
}
);
unicode = 110;
},
{
glyphname = nhookleft;
kernLeft = n;
kernRight = n;
lastChange = "2025-06-02 13:43:39 +0000";
layers = (
{
layerId = "8C7EE80F-D163-4204-B2B9-0AE0B1A3E0A1";
shapes = (
{
alignment = -1;
pos = (32,0);
ref = n;
},
{
closed = 1;
nodes = (
(231,-181,o),
(303,-112,o),
(303,-19,cs),
(303,78,l),
(124,78,l),
(124,56,ls),
(124,32,o),
(105,4,o),
(77,4,cs),
(64,4,o),
(23,5,o),
(7,8,c),
(6,-173,l),
(23,-178,o),
(70,-181,o),
(86,-181,cs)
);
}
);
width = 711;
}
);
unicode = 626;
},
{
glyphname = nhookretroflex;
kernLeft = n;
kernRight = n;
lastChange = "2025-06-02 13:43:39 +0000";
layers = (
{
layerId = "8C7EE80F-D163-4204-B2B9-0AE0B1A3E0A1";
shapes = (
{
alignment = -1;
ref = n;
},
{
closed = 1;
nodes = (
(682,-181,o),
(729,-178,o),
(746,-173,c),
(744,8,l),
(728,5,o),
(688,4,o),
(675,4,cs),
(646,4,o),
(628,31,o),
(628,55,cs),
(628,53,l),
(448,53,l),
(448,-11,ls),
(448,-104,o),
(521,-181,o),
(666,-181,cs)
);
}
);
width = 751;
}
);
unicode = 627;
},
{
glyphname = eng;
kernLeft = n;
kernRight = n;
lastChange = "2025-06-02 13:43:39 +0000";
layers = (
{
layerId = "8C7EE80F-D163-4204-B2B9-0AE0B1A3E0A1";
shapes = (
{
alignment = -1;
ref = n;
},
{
closed = 1;
nodes = (
(561,-181,o),
(631,-112,o),
(632,-19,cs),
(634,67,l),
(454,67,l),
(454,55,ls),
(454,31,o),
(436,4,o),
(407,4,cs),
(394,4,o),
(353,5,o),
(337,8,c),
(336,-173,l),
(353,-178,o),
(400,-181,o),
(416,-181,cs)
);
}
);
width = 680;
}
);
unicode = 331;
},
{
glyphname = o;
kernLeft = "55";
kernRight = "55";
lastChange = "2025-06-03 21:49:37 +0000";
layers = (
{
anchors = (
{
name = bottom;
pos = (303,-12);
},
{
name = top;
pos = (303,525);
}
);
layerId = "8C7EE80F-D163-4204-B2B9-0AE0B1A3E0A1";
shapes = (
{
closed = 1;
nodes = (
(473,-12,o),
(638,65,o),
(638,256,cs),
(638,451,o),
(480,525,o),
(333,525,cs),
(197,525,o),
(25,451,o),
(25,256,cs),
(25,65,o),
(186,-12,o),
(333,-12,cs)
);
},
{
closed = 1;
nodes = (
(268,140,o),
(220,184,o),
(220,256,cs),
(220,325,o),
(269,373,o),
(333,373,cs),
(405,373,o),
(443,325,o),
(443,256,cs),
(443,184,o),
(403,140,o),
(333,140,cs)
);
}
);
vertOrigin = 171;
vertWidth = 632;
width = 664;
}
);
unicode = 111;
},
{
glyphname = ohorn;
kernLeft = o;
kernRight = ohorn;
lastChange = "2025-06-02 13:43:40 +0000";
layers = (
{
layerId = "8C7EE80F-D163-4204-B2B9-0AE0B1A3E0A1";
shapes = (
{
closed = 1;
nodes = (
(638,402,o),
(731,528,o),
(674,670,c),
(536,633,l),
(564,577,o),
(568,500,o),
(479,500,cs),
(437,500,o),
(422,513,o),
(352,523,c),
(352,421,l),
(494,402,l)
);
},
{
alignment = -1;
ref = o;
}
);
width = 702;
}
);
unicode = 417;
},
{
glyphname = oslash;
kernLeft = o;
kernRight = o;
lastChange = "2025-06-02 13:43:40 +0000";
layers = (
{
layerId = "8C7EE80F-D163-4204-B2B9-0AE0B1A3E0A1";
shapes = (
{
alignment = -1;
pos = (15,0);
ref = o;
},
{
closed = 1;
nodes = (
(120,-63,l),
(626,498,l),
(529,572,l),
(24,15,l)
);
}
);
width = 697;
}
);
unicode = 248;
},
{
glyphname = oe;
kernLeft = o;
kernRight = e;
lastChange = "2025-06-02 13:43:40 +0000";
layers = (
{
anchors = (
{
name = bottom;
pos = (23,-13);
},
{
name = top;
pos = (23,525);
}
);
layerId = "8C7EE80F-D163-4204-B2B9-0AE0B1A3E0A1";
shapes = (
{
closed = 1;
nodes = (
(449,-12,o),
(579,65,o),
(579,256,cs),
(579,451,o),
(457,525,o),
(314,525,cs),
(182,525,o),
(26,451,o),
(26,256,cs),
(26,65,o),
(172,-12,o),
(314,-12,cs)
);
},
{
closed = 1;
nodes = (
(251,140,o),
(215,184,o),
(215,256,cs),
(215,325,o),
(252,373,o),
(314,373,cs),
(384,373,o),
(410,325,o),
(410,256,cs),
(410,184,o),
(382,140,o),
(314,140,cs)
);
},
{
closed = 1;
nodes = (
(759,-13,o),
(872,3,o),
(932,131,c),
(763,185,l),
(744,149,o),
(701,139,o),
(696,139,cs),
(627,139,o),
(591,180,o),
(591,262,cs),
(591,319,o),
(626,373,o),
(690,373,cs),
(738,373,o),
(771,325,o),
(771,303,c),
(544,303,l),
(545,203,l),
(954,203,l),
(954,239,l),
(954,412,o),
(858,525,o),
(694,525,cs),
(566,525,o),
(435,450,o),
(435,261,cs),
(435,79,o),
(565,-13,o),
(695,-13,cs)
);
}
);
width = 979;
}
);
unicode = 339;
},
{
glyphname = p;
kernRight = o;
lastChange = "2025-06-03 21:44:52 +0000";
layers = (
{
hints = (
{
horizontal = 1;
place = (-55,133);
type = Stem;
},
{
horizontal = 1;
place = (379,103);
type = Stem;
},
{
horizontal = 1;
place = (186,399);
type = Stem;
},
{
place = (8,197);
type = Stem;
},
{
place = (409,207);
type = Stem;
},
{
place = (8,197);
type = Stem;
}
);
layerId = "8C7EE80F-D163-4204-B2B9-0AE0B1A3E0A1";
shapes = (
{
closed = 1;
nodes = (
(598,-12,o),
(680,89,o),
(680,255,c),
(680,422,o),
(616,525,o),
(483,525,c),
(387,525,o),
(315,479,o),
(297,421,c),
(292,406,o),
(274,405,o),
(274,422,c),
(274,513,l),
(40,513,l),
(40,513,o),
(40,366,o),
(40,334,c),
(77,334,o),
(87,390,o),
(87,334,c),
(87,278,o),
(89,-230,o),
(89,-230,c),
(274,-230,l),
(274,76,l),
(304,27,o),
(372,-12,o),
(461,-12,c)
);
},
{
closed = 1;
nodes = (
(274,322,o),
(319,388,o),
(376,388,c),
(441,388,o),
(486,326,o),
(486,254,c),
(486,169,o),
(444,120,o),
(377,121,c),
(319,123,o),
(274,174,o),
(274,255,c)
);
}
);
width = 721;
}
);
unicode = 112;
},
{
glyphname = thorn;
lastChange = "2025-06-02 13:43:40 +0000";
layers = (
{
layerId = "8C7EE80F-D163-4204-B2B9-0AE0B1A3E0A1";
shapes = (
{
closed = 1;
nodes = (
(270,27,o),
(309,-12,o),
(395,-12,cs),
(528,-12,o),
(615,89,o),
(615,255,cs),
(615,422,o),
(517,525,o),
(388,525,cs),
(315,525,o),
(271,478,o),
(241,423,c),
(241,700,l),
(60,700,l),
(61,-230,l),
(241,-230,l),
(241,76,l)
);
},
{
closed = 1;
nodes = (
(275,123,o),
(241,174,o),
(241,255,c),
(241,322,o),
(275,388,o),
(330,388,cs),
(383,388,o),
(427,325,o),
(427,254,cs),
(427,168,o),
(386,120,o),
(331,121,cs)
);
}
);
width = 644;
}
);
unicode = 254;
},
{
glyphname = q;
kernLeft = o;
kernRight = h;
lastChange = "2025-06-03 21:47:25 +0000";
layers = (
{
layerId = "8C7EE80F-D163-4204-B2B9-0AE0B1A3E0A1";
shapes = (
{
closed = 1;
nodes = (
(271,120,o),
(219,169,o),
(219,254,c),
(219,326,o),
(275,388,o),
(329,388,c),
(386,388,o),
(431,322,o),
(431,255,c),
(431,174,o),
(386,123,o),
(328,121,c)
);
},
{
closed = 1;
nodes = (
(618,513,l),
(431,513,l),
(431,421,l),
(431,404,o),
(411,406,o),
(408,421,c),
(397,475,o),
(328,525,o),
(232,525,c),
(99,525,o),
(25,422,o),
(25,255,c),
(25,89,o),
(117,-12,o),
(254,-12,c),
(343,-12,o),
(401,27,o),
(431,76,c),
(431,-237,l),
(666,-237,l),
(666,-58,l),
(628,-58,o),
(617,-114,o),
(617,-58,c)
);
}
);
width = 714;
}
);
metricLeft = o;
metricRight = h;
unicode = 113;
},
{
glyphname = r;
lastChange = "2025-06-03 21:54:52 +0000";
layers = (
{
anchors = (
{
name = bottom;
pos = (159,0);
},
{
name = top;
pos = (253,532);
}
);
layerId = "8C7EE80F-D163-4204-B2B9-0AE0B1A3E0A1";
shapes = (
{
closed = 1;
nodes = (
(243,0,l),
(243,192,ls),
(243,288,o),
(248,340,o),
(334,360,cs),
(362,366,o),
(412,360,o),
(434,354,c),
(434,520,l),
(426,524,o),
(388,525,o),
(378,525,cs),
(333,525,o),
(265,496,o),
(243,439,c),
(243,513,l),
(59,513,l),
(59,0,l)
);
}
);
width = 457;
}
);
metricLeft = n;
unicode = 114;
},
{
glyphname = s;
lastChange = "2025-06-03 21:52:23 +0000";
layers = (
{
anchors = (
{
name = bottom;
pos = (299,-12);
},
{
name = top;
pos = (296,525);
}
);
layerId = "8C7EE80F-D163-4204-B2B9-0AE0B1A3E0A1";
shapes = (
{
closed = 1;
nodes = (
(464,-12,o),
(578,51,o),
(578,176,cs),
(578,347,o),
(239,303,o),
(239,357,cs),
(239,372,o),
(247,392,o),
(295,392,cs),
(341,392,o),
(384,364,o),
(384,342,c),
(562,342,l),
(562,421,o),
(497,525,o),
(296,525,cs),
(120,525,o),
(46,453,o),
(46,350,cs),
(46,153,o),
(385,201,o),
(385,166,cs),
(385,137,o),
(355,125,o),
(309,125,cs),
(238,125,o),
(198,149,o),
(198,186,c),
(22,188,l),
(22,89,o),
(104,-12,o),
(299,-12,cs)
);
}
);
width = 603;
}
);
unicode = 115;
},
{
glyphname = germandbls;
lastChange = "2025-06-02 13:43:40 +0000";
layers = (
{
layerId = "8C7EE80F-D163-4204-B2B9-0AE0B1A3E0A1";
shapes = (
{
closed = 1;
nodes = (
(250,181,l),
(250,37,o),
(348,-12,o),
(465,-12,cs),
(622,-12,o),
(681,79,o),
(681,182,cs),
(681,348,o),
(513,341,o),
(513,395,cs),
(513,445,o),
(538,463,o),
(538,527,cs),
(538,616,o),
(450,712,o),
(306,712,cs),
(100,712,o),
(59,582,o),
(59,438,cs),
(59,0,l),
(237,0,l),
(237,428,ls),
(237,533,o),
(263,569,o),
(305,569,cs),
(334,569,o),
(360,552,o),
(360,527,cs),
(360,458,o),
(334,455,o),
(334,395,cs),
(334,251,o),
(506,263,o),
(506,185,cs),
(506,149,o),
(497,131,o),
(466,131,cs),
(437,131,o),
(416,141,o),
(416,181,c)
);
}
);
width = 702;
}
);
unicode = 223;
},
{
glyphname = t;
lastChange = "2025-06-03 21:54:22 +0000";
layers = (
{
anchors = (
{
name = bottom;
pos = (261,-3);
},
{
name = top;
pos = (221,628);
}
);
layerId = "8C7EE80F-D163-4204-B2B9-0AE0B1A3E0A1";
shapes = (
{
closed = 1;
nodes = (
(373,-12,o),
(411,-9,o),
(428,-4,c),
(426,166,l),
(410,163,o),
(379,162,o),
(365,162,cs),
(350,162,o),
(319,176,o),
(319,214,cs),
(319,360,l),
(435,360,l),
(435,512,l),
(319,512,l),
(319,627,l),
(144,627,l),
(144,589,ls),
(144,537,o),
(108,513,o),
(40,513,cs),
(23,513,l),
(23,360,l),
(135,360,l),
(135,159,ls),
(135,44,o),
(203,-12,o),
(356,-12,cs)
);
}
);
width = 476;
}
);
unicode = 116;
},
{
glyphname = tcaron;
lastChange = "2025-06-02 13:43:40 +0000";
layers = (
{
layerId = "8C7EE80F-D163-4204-B2B9-0AE0B1A3E0A1";
shapes = (
{
closed = 1;
nodes = (
(447,557,l),
(503,704,l),
(357,704,l),
(333,557,l)
);
},
{
alignment = -1;
ref = t;
}
);
width = 481;
}
);
unicode = 357;
},
{
glyphname = u;
kernLeft = a;
kernRight = a;
lastChange = "2025-06-03 21:45:18 +0000";
layers = (
{
anchors = (
{
name = bottom;
pos = (307,-12);
},
{
name = top;
pos = (314,532);
}
);
layerId = "8C7EE80F-D163-4204-B2B9-0AE0B1A3E0A1";
shapes = (
{
closed = 1;
nodes = (
(600,513,l),
(414,513,l),
(414,292,ls),
(414,177,o),
(378,128,o),
(300,128,cs),
(251,128,o),
(236,164,o),
(236,227,cs),
(236,513,l),
(50,513,l),
(50,204,ls),
(50,84,o),
(76,-12,o),
(237,-12,cs),
(331,-12,o),
(382,54,o),
(391,89,cs),
(396,109,o),
(414,103,o),
(414,89,cs),
(414,0,l),
(600,0,l)
);
}
);
width = 659;
}
);
unicode = 117;
},
{
glyphname = uhorn;
kernLeft = u;
kernRight = uhorn;
lastChange = "2025-06-02 13:43:40 +0000";
layers = (
{
layerId = "8C7EE80F-D163-4204-B2B9-0AE0B1A3E0A1";
shapes = (
{
alignment = -1;
pos = (-18,0);
ref = u;
},
{
closed = 1;
nodes = (
(683,415,o),
(781,540,o),
(724,683,c),
(585,646,l),
(614,589,o),
(620,513,o),
(535,513,c),
(535,415,l)
);
}
);
width = 735;
}
);
unicode = 432;
},
{
glyphname = v;
kernLeft = v;
kernRight = v;
lastChange = "2025-06-03 21:52:18 +0000";
layers = (
{
layerId = "8C7EE80F-D163-4204-B2B9-0AE0B1A3E0A1";
shapes = (
{
closed = 1;
nodes = (
(232,0,l),
(399,0,l),
(201,513,l),
(10,513,l)
);
},
{
closed = 1;
nodes = (
(480,513,l),
(274,0,l),
(431,0,l),
(660,513,l)
);
}
);
width = 670;
}
);
unicode = 118;
},
{
glyphname = w;
kernLeft = w;
kernRight = w;
lastChange = "2025-06-03 21:41:13 +0000";
layers = (
{
anchors = (
{
name = bottom;
pos = (510,-19);
},
{
name = top;
pos = (510,532);
}
);
layerId = "8C7EE80F-D163-4204-B2B9-0AE0B1A3E0A1";
shapes = (
{
closed = 1;
nodes = (
(398,0,l),
(531,388,l),
(486,388,l),
(615,0,l),
(783,0,l),
(964,513,l),
(795,513,l),
(680,115,l),
(706,115,l),
(605,513,l),
(424,513,l),
(311,115,l),
(338,115,l),
(233,513,l),
(54,513,l),
(230,0,l)
);
}
);
width = 1018;
}
);
unicode = 119;
},
{
glyphname = x;
lastChange = "2025-06-03 21:47:25 +0000";
layers = (
{
layerId = "8C7EE80F-D163-4204-B2B9-0AE0B1A3E0A1";
shapes = (
{
closed = 1;
nodes = (
(659,0,l),
(407,318,l),
(375,324,l),
(229,513,l),
(29,513,l),
(270,206,l),
(300,202,l),
(461,0,l)
);
},
{
closed = 1;
nodes = (
(218,0,l),
(384,209,l),
(413,212,l),
(650,513,l),
(456,513,l),
(306,321,l),
(278,321,l),
(25,0,l)
);
}
);
width = 685;
}
);
metricLeft = o;
metricRight = o;
unicode = 120;
},
{
glyphname = y;
kernLeft = v;
kernRight = v;
lastChange = "2025-06-03 21:40:37 +0000";
layers = (
{
anchors = (
{
name = top;
pos = (318,532);
}
);
layerId = "8C7EE80F-D163-4204-B2B9-0AE0B1A3E0A1";
shapes = (
{
closed = 1;
nodes = (
(265,-230,o),
(354,-185,o),
(411,-34,cs),
(616,513,l),
(436,513,l),
(335,169,l),
(207,513,l),
(29,513,l),
(239,4,l),
(231,-50,o),
(166,-71,o),
(120,-71,c),
(115,-71,o),
(71,-70,o),
(58,-67,c),
(56,-219,l),
(70,-223,o),
(122,-230,o),
(174,-230,cs)
);
}
);
width = 645;
}
);
unicode = 121;
},
{
glyphname = z;
lastChange = "2025-06-02 19:14:31 +0000";
layers = (
{
anchors = (
{
name = bottom;
pos = (266,0);
},
{
name = top;
pos = (274,513);
}
);
layerId = "8C7EE80F-D163-4204-B2B9-0AE0B1A3E0A1";
shapes = (
{
closed = 1;
nodes = (
(505,1,l),
(505,153,l),
(284,153,l),
(504,371,l),
(503,512,l),
(46,512,l),
(47,360,l),
(268,360,l),
(47,143,l),
(46,1,l)
);
}
);
width = 550;
}
);
unicode = 122;
},
{
glyphname = a.ss01;
kernLeft = o;
lastChange = "2025-06-02 19:15:21 +0000";
layers = (
{
layerId = "8C7EE80F-D163-4204-B2B9-0AE0B1A3E0A1";
shapes = (
{
closed = 1;
nodes = (
(331,-12,o),
(370,47,o),
(382,89,cs),
(387,108,o),
(405,105,o),
(405,87,cs),
(405,0,l),
(583,0,l),
(585,513,l),
(405,513,l),
(405,422,l),
(375,477,o),
(332,525,o),
(250,525,cs),
(118,525,o),
(31,422,o),
(31,255,cs),
(31,89,o),
(102,-12,o),
(243,-12,cs)
);
},
{
closed = 1;
nodes = (
(260,120,o),
(219,168,o),
(219,254,cs),
(219,325,o),
(263,388,o),
(316,388,cs),
(371,388,o),
(405,322,o),
(405,255,cs),
(405,173,o),
(367,123,o),
(315,121,cs)
);
}
);
width = 643;
}
);
},
{
glyphname = g.ss01;
kernLeft = g2;
kernRight = g2;
lastChange = "2025-06-02 13:43:40 +0000";
layers = (
{
anchors = (
{
name = bottom;
pos = (294,-230);
},
{
name = top;
pos = (287,525);
}
);
layerId = "8C7EE80F-D163-4204-B2B9-0AE0B1A3E0A1";
shapes = (
{
closed = 1;
nodes = (
(525,-230,o),
(594,-126,o),
(594,-24,cs),
(594,53,o),
(518,118,o),
(398,118,cs),
(235,118,ls),
(206,118,o),
(182,115,o),
(182,142,cs),
(182,151,o),
(187,147,o),
(187,151,c),
(116,231,l),
(51,202,o),
(31,164,o),
(31,107,cs),
(31,51,o),
(55,21,o),
(105,-3,c),
(58,-19,o),
(31,-44,o),
(31,-96,cs),
(31,-165,o),
(97,-230,o),
(288,-230,cs)
);
},
{
closed = 1;
nodes = (
(213,-89,o),
(199,-69,o),
(199,-47,cs),
(199,-39,o),
(213,-18,o),
(234,-18,c),
(371,-18,l),
(395,-18,o),
(412,-25,o),
(412,-51,cs),
(412,-79,o),
(347,-89,o),
(283,-89,cs)
);
},
{
closed = 1;
nodes = (
(439,132,o),
(531,218,o),
(531,328,cs),
(531,439,o),
(439,525,o),
(287,525,cs),
(139,525,o),
(44,439,o),
(44,328,cs),
(44,218,o),
(139,132,o),
(287,132,cs)
);
},
{
closed = 1;
nodes = (
(240,271,o),
(221,301,o),
(221,328,cs),
(221,356,o),
(245,388,o),
(287,388,cs),
(334,388,o),
(355,356,o),
(355,328,cs),
(355,301,o),
(334,271,o),
(287,271,cs)
);
},
{
closed = 1;
nodes = (
(493,468,o),
(565,458,o),
(586,443,c),
(586,576,l),
(493,592,o),
(419,529,o),
(417,483,c),
(480,439,l)
);
}
);
width = 614;
}
);
},
{
glyphname = a.ss02;
kernLeft = a2;
kernRight = a2;
lastChange = "2025-06-02 13:43:40 +0000";
layers = (
{
anchors = (
{
name = bottom;
pos = (354,-10);
},
{
name = top;
pos = (356,525);
}
);
layerId = "8C7EE80F-D163-4204-B2B9-0AE0B1A3E0A1";
shapes = (
{
closed = 1;
nodes = (
(326,-12,o),
(374,-5,o),
(420,11,c),
(442,6,o),
(472,-2,o),
(514,-2,cs),
(542,-2,o),
(598,5,o),
(612,13,c),
(612,153,l),
(562,143,o),
(551,156,o),
(551,193,cs),
(551,342,ls),
(551,451,o),
(469,523,o),
(311,523,cs),
(176,523,o),
(96,452,o),
(78,380,c),
(208,328,l),
(219,365,o),
(248,388,o),
(299,388,cs),
(358,388,o),
(383,364,o),
(383,326,cs),
(383,310,l),
(22,310,l),
(22,274,ls),
(22,101,o),
(118,-12,o),
(282,-12,cs)
);
},
{
closed = 1;
nodes = (
(238,140,o),
(205,187,o),
(205,209,c),
(380,209,l),
(369,171,o),
(335,140,o),
(286,140,cs)
);
}
);
width = 633;
}
);
},
{
glyphname = e.ss02;
kernLeft = o;
kernRight = o;
lastChange = "2025-06-02 13:43:40 +0000";
layers = (
{
layerId = "8C7EE80F-D163-4204-B2B9-0AE0B1A3E0A1";
shapes = (
{
closed = 1;
nodes = (
(394,-12,o),
(474,59,o),
(492,131,c),
(362,183,l),
(350,146,o),
(322,123,o),
(270,123,cs),
(211,123,o),
(201,139,o),
(201,181,cs),
(201,183,l),
(402,183,o),
(518,237,o),
(518,365,cs),
(518,459,o),
(461,525,o),
(329,525,cs),
(142,525,o),
(33,404,o),
(33,254,cs),
(33,164,ls),
(33,49,o),
(101,-12,o),
(259,-12,cs)
);
},
{
closed = 1;
nodes = (
(201,320,ls),
(201,389,o),
(242,396,o),
(303,396,cs),
(305,396,o),
(354,392,o),
(354,353,cs),
(354,325,o),
(342,288,o),
(201,288,c)
);
}
);
width = 541;
}
);
},
{
glyphname = q.ss03;
kernLeft = o;
kernRight = h;
lastChange = "2025-06-03 21:47:25 +0000";
layers = (
{
layerId = "8C7EE80F-D163-4204-B2B9-0AE0B1A3E0A1";
shapes = (
{
closed = 1;
nodes = (
(614,-230,o),
(666,-186,o),
(666,-149,cs),
(666,-40,l),
(638,-40,o),
(617,-96,o),
(617,-40,cs),
(618,513,l),
(431,513,l),
(431,421,ls),
(431,404,o),
(411,406,o),
(408,421,cs),
(397,475,o),
(328,525,o),
(232,525,cs),
(99,525,o),
(25,422,o),
(25,255,cs),
(25,89,o),
(117,-12,o),
(254,-12,cs),
(343,-12,o),
(401,27,o),
(431,76,c),
(431,-114,ls),
(431,-178,o),
(482,-230,o),
(548,-230,cs)
);
},
{
closed = 1;
nodes = (
(271,120,o),
(219,169,o),
(219,254,cs),
(219,326,o),
(275,388,o),
(329,388,cs),
(386,388,o),
(431,322,o),
(431,255,cs),
(431,174,o),
(386,123,o),
(328,121,cs)
);
}
);
width = 710;
}
);
metricLeft = o;
},
{
glyphname = ordfeminine;
lastChange = "2025-06-02 13:43:40 +0000";
layers = (
{
layerId = "8C7EE80F-D163-4204-B2B9-0AE0B1A3E0A1";
shapes = (
{
closed = 1;
nodes = (
(219,342,o),
(248,412,o),
(248,412,c),
(247,377,o),
(282,350,o),
(341,350,cs),
(363,350,o),
(400,355,o),
(411,361,c),
(411,445,l),
(375,437,o),
(366,447,o),
(366,474,cs),
(366,588,ls),
(366,664,o),
(299,712,o),
(196,712,cs),
(138,712,o),
(72,697,o),
(29,637,c),
(103,569,l),
(115,587,o),
(151,604,o),
(189,604,cs),
(227,604,o),
(248,588,o),
(248,573,cs),
(248,572,l),
(103,576,o),
(23,535,o),
(23,451,cs),
(23,388,o),
(54,342,o),
(145,342,cs)
);
},
{
closed = 1;
nodes = (
(411,309,l),
(19,308,l),
(19,174,l),
(411,175,l)
);
},
{
closed = 1;
nodes = (
(175,448,o),
(159,454,o),
(159,468,cs),
(159,479,o),
(186,484,o),
(246,484,c),
(246,486,ls),
(246,470,o),
(241,448,o),
(212,448,cs)
);
}
);
width = 428;
}
);
unicode = 170;
},
{
glyphname = ordmasculine;
lastChange = "2025-06-02 13:43:40 +0000";
layers = (
{
layerId = "8C7EE80F-D163-4204-B2B9-0AE0B1A3E0A1";
shapes = (
{
closed = 1;
nodes = (
(25,174,l),
(402,175,l),
(402,309,l),
(25,308,l)
);
},
{
closed = 1;
nodes = (
(306,342,o),
(409,395,o),
(409,526,cs),
(409,660,o),
(312,712,o),
(214,712,cs),
(126,712,o),
(18,660,o),
(18,526,cs),
(18,395,o),
(118,342,o),
(214,342,cs)
);
},
{
closed = 1;
nodes = (
(184,473,o),
(170,494,o),
(170,527,cs),
(170,559,o),
(186,581,o),
(214,581,cs),
(248,581,o),
(257,559,o),
(257,526,cs),
(257,494,o),
(248,473,o),
(214,473,cs)
);
}
);
width = 428;
}
);
unicode = 186;
},
{
glyphname = zero;
lastChange = "2025-06-02 13:43:40 +0000";
layers = (
{
layerId = "8C7EE80F-D163-4204-B2B9-0AE0B1A3E0A1";
shapes = (
{
closed = 1;
nodes = (
(547,-13,o),
(646,155,o),
(646,354,cs),
(646,563,o),
(545,712,o),
(347,712,cs),
(145,712,o),
(44,563,o),
(44,354,cs),
(44,155,o),
(143,-13,o),
(347,-13,cs)
);
},
{
closed = 1;
nodes = (
(258,152,o),
(219,227,o),
(219,355,cs),
(219,486,o),
(258,547,o),
(348,547,cs),
(432,547,o),
(471,486,o),
(471,355,cs),
(471,227,o),
(432,152,o),
(347,152,cs)
);
},
{
closed = 1;
nodes = (
(308,94,l),
(543,599,l),
(383,599,l),
(149,94,l)
);
}
);
width = 690;
}
);
unicode = 48;
},
{
glyphname = one;
lastChange = "2025-06-02 13:43:40 +0000";
layers = (
{
layerId = "8C7EE80F-D163-4204-B2B9-0AE0B1A3E0A1";
shapes = (
{
closed = 1;
nodes = (
(493,0,l),
(493,159,l),
(365,159,l),
(365,699,l),
(191,699,l),
(191,611,o),
(167,599,o),
(48,599,c),
(48,441,l),
(178,441,l),
(178,159,l),
(45,159,l),
(45,0,l)
);
}
);
width = 521;
}
);
unicode = 49;
},
{
glyphname = two;
lastChange = "2025-06-02 13:43:40 +0000";
layers = (
{
layerId = "8C7EE80F-D163-4204-B2B9-0AE0B1A3E0A1";
shapes = (
{
closed = 1;
nodes = (
(542,1,l),
(542,160,l),
(256,160,l),
(256,236,o),
(531,272,o),
(531,512,cs),
(531,639,o),
(413,712,o),
(289,712,cs),
(161,712,o),
(103,677,o),
(67,615,cs),
(43,573,o),
(43,504,o),
(43,468,c),
(230,468,l),
(230,516,o),
(238,547,o),
(287,547,cs),
(314,547,o),
(331,518,o),
(331,498,cs),
(331,344,o),
(52,339,o),
(52,124,cs),
(52,1,l)
);
}
);
width = 583;
}
);
unicode = 50;
},
{
glyphname = three;
lastChange = "2025-06-02 13:43:40 +0000";
layers = (
{
layerId = "8C7EE80F-D163-4204-B2B9-0AE0B1A3E0A1";
shapes = (
{
closed = 1;
nodes = (
(469,-12,o),
(560,84,o),
(560,223,cs),
(560,356,o),
(472,409,o),
(404,423,c),
(524,544,l),
(524,700,l),
(63,700,l),
(63,541,l),
(329,541,l),
(209,423,l),
(209,293,l),
(290,293,ls),
(339,293,o),
(377,279,o),
(377,217,cs),
(377,168,o),
(325,153,o),
(291,153,cs),
(237,153,o),
(213,175,o),
(199,213,cs),
(196,225,o),
(195,236,o),
(195,248,c),
(30,203,l),
(30,182,o),
(33,162,o),
(37,144,cs),
(64,43,o),
(167,-12,o),
(300,-12,cs)
);
}
);
width = 596;
}
);
unicode = 51;
},
{
glyphname = four;
lastChange = "2025-06-02 13:43:40 +0000";
layers = (
{
layerId = "8C7EE80F-D163-4204-B2B9-0AE0B1A3E0A1";
shapes = (
{
closed = 1;
nodes = (
(540,1,l),
(540,113,l),
(640,113,l),
(640,272,l),
(540,272,l),
(540,701,l),
(326,701,l),
(29,255,l),
(29,113,l),
(353,113,l),
(353,1,l)
);
},
{
closed = 1;
nodes = (
(353,461,l),
(353,272,l),
(228,272,l)
);
}
);
width = 669;
}
);
unicode = 52;
},
{
glyphname = five;
lastChange = "2025-06-02 13:43:40 +0000";
layers = (
{
layerId = "8C7EE80F-D163-4204-B2B9-0AE0B1A3E0A1";
shapes = (
{
closed = 1;
nodes = (
(460,-12,o),
(574,91,o),
(574,248,cs),
(574,401,o),
(464,498,o),
(320,498,cs),
(272,498,o),
(232,487,o),
(226,489,c),
(243,542,l),
(518,542,l),
(518,700,l),
(103,700,l),
(41,321,l),
(197,284,l),
(207,318,o),
(238,349,o),
(290,349,cs),
(333,349,o),
(382,322,o),
(382,248,cs),
(382,208,o),
(344,153,o),
(304,153,cs),
(245,153,o),
(216,178,o),
(205,230,c),
(33,177,l),
(54,89,o),
(135,-12,o),
(309,-12,cs)
);
}
);
width = 606;
}
);
unicode = 53;
},
{
glyphname = six;
lastChange = "2025-06-02 13:43:40 +0000";
layers = (
{
layerId = "8C7EE80F-D163-4204-B2B9-0AE0B1A3E0A1";
shapes = (
{
closed = 1;
nodes = (
(457,-12,o),
(570,94,o),
(570,234,cs),
(570,373,o),
(490,482,o),
(344,482,cs),
(297,482,o),
(278,463,o),
(285,471,c),
(389,700,l),
(199,700,l),
(77,440,ls),
(42,363,o),
(35,299,o),
(35,235,cs),
(35,96,o),
(134,-12,o),
(303,-12,cs)
);
},
{
closed = 1;
nodes = (
(239,139,o),
(218,191,o),
(218,241,cs),
(218,275,o),
(239,331,o),
(300,331,cs),
(368,331,o),
(387,276,o),
(387,241,cs),
(387,193,o),
(371,139,o),
(304,139,cs)
);
}
);
width = 601;
}
);
unicode = 54;
},
{
glyphname = seven;
lastChange = "2025-06-02 13:43:40 +0000";
layers = (
{
layerId = "8C7EE80F-D163-4204-B2B9-0AE0B1A3E0A1";
shapes = (
{
closed = 1;
nodes = (
(280,1,l),
(503,540,l),
(503,700,l),
(29,700,l),
(29,541,l),
(334,541,l),
(103,1,l)
);
}
);
width = 535;
}
);
unicode = 55;
},
{
glyphname = eight;
lastChange = "2025-06-02 13:43:40 +0000";
layers = (
{
layerId = "8C7EE80F-D163-4204-B2B9-0AE0B1A3E0A1";
shapes = (
{
closed = 1;
nodes = (
(475,-12,o),
(602,80,o),
(602,203,cs),
(602,286,o),
(562,348,o),
(499,384,c),
(541,416,o),
(566,465,o),
(566,530,cs),
(566,633,o),
(477,712,o),
(316,712,cs),
(159,712,o),
(67,633,o),
(67,530,cs),
(67,465,o),
(94,415,o),
(134,384,c),
(72,348,o),
(33,286,o),
(33,203,cs),
(33,80,o),
(147,-12,o),
(317,-12,cs)
);
},
{
closed = 1;
nodes = (
(251,150,o),
(231,177,o),
(231,217,cs),
(231,250,o),
(253,284,o),
(316,284,cs),
(391,284,o),
(404,250,o),
(404,217,cs),
(404,177,o),
(391,150,o),
(318,150,cs)
);
},
{
closed = 1;
nodes = (
(296,446,o),
(260,454,o),
(260,502,cs),
(260,529,o),
(293,549,o),
(315,549,cs),
(335,549,o),
(373,529,o),
(373,502,cs),
(373,454,o),
(335,446,o),
(317,446,cs)
);
}
);
width = 634;
}
);
unicode = 56;
},
{
glyphname = nine;
lastChange = "2025-06-02 13:43:40 +0000";
layers = (
{
layerId = "8C7EE80F-D163-4204-B2B9-0AE0B1A3E0A1";
shapes = (
{
closed = 1;
nodes = (
(144,712,o),
(31,606,o),
(31,466,cs),
(31,320,o),
(110,220,o),
(257,220,cs),
(304,220,o),
(323,239,o),
(316,230,c),
(212,0,l),
(402,0,l),
(524,269,ls),
(559,346,o),
(566,410,o),
(566,465,cs),
(566,604,o),
(467,712,o),
(298,712,cs)
);
},
{
closed = 1;
nodes = (
(362,561,o),
(383,517,o),
(383,467,cs),
(383,434,o),
(362,370,o),
(301,370,cs),
(233,370,o),
(214,433,o),
(214,467,cs),
(214,515,o),
(230,561,o),
(297,561,cs)
);
}
);
width = 600;
}
);
unicode = 57;
},
{
glyphname = .notdef;
lastChange = "2025-06-02 13:43:40 +0000";
layers = (
{
layerId = "8C7EE80F-D163-4204-B2B9-0AE0B1A3E0A1";
shapes = (
{
closed = 1;
nodes = (
(565,-150,l),
(565,730,l),
(60,730,l),
(60,-150,l)
);
},
{
closed = 1;
nodes = (
(231,566,l),
(394,566,l),
(394,14,l),
(231,14,l)
);
}
);
width = 625;
}
);
},
{
glyphname = period;
kernLeft = ".";
kernRight = ".";
lastChange = "2025-06-03 21:34:52 +0000";
layers = (
{
layerId = "8C7EE80F-D163-4204-B2B9-0AE0B1A3E0A1";
shapes = (
{
closed = 1;
nodes = (
(196,-18,o),
(246,30,o),
(246,90,cs),
(246,147,o),
(196,193,o),
(139,193,cs),
(80,193,o),
(31,147,o),
(31,90,cs),
(31,30,o),
(80,-18,o),
(139,-18,cs)
);
}
);
width = 277;
}
);
unicode = 46;
},
{
glyphname = comma;
kernLeft = ".";
kernRight = ".";
lastChange = "2025-06-02 13:43:40 +0000";
layers = (
{
layerId = "8C7EE80F-D163-4204-B2B9-0AE0B1A3E0A1";
shapes = (
{
closed = 1;
nodes = (
(182,-165,o),
(235,-16,o),
(235,72,cs),
(235,127,o),
(204,192,o),
(128,192,cs),
(70,192,o),
(34,142,o),
(34,93,cs),
(34,48,o),
(72,7,o),
(125,7,cs),
(130,7,o),
(136,7,o),
(139,9,c),
(139,-92,o),
(34,-113,o),
(34,-113,c),
(34,-113,o),
(33,-165,o),
(34,-165,cs)
);
}
);
width = 264;
}
);
unicode = 44;
},
{
glyphname = colon;
kernLeft = colon;
kernRight = colon;
lastChange = "2025-06-02 13:43:40 +0000";
layers = (
{
layerId = "8C7EE80F-D163-4204-B2B9-0AE0B1A3E0A1";
shapes = (
{
closed = 1;
nodes = (
(186,-12,o),
(233,34,o),
(233,92,cs),
(233,147,o),
(186,192,o),
(131,192,cs),
(74,192,o),
(28,147,o),
(28,92,cs),
(28,34,o),
(74,-12,o),
(131,-12,cs)
);
},
{
closed = 1;
nodes = (
(186,316,o),
(233,362,o),
(233,420,cs),
(233,475,o),
(186,520,o),
(131,520,cs),
(74,520,o),
(28,475,o),
(28,420,cs),
(28,362,o),
(74,316,o),
(131,316,cs)
);
}
);
width = 261;
}
);
unicode = 58;
},
{
glyphname = semicolon;
kernLeft = colon;
kernRight = colon;
lastChange = "2025-06-02 13:43:40 +0000";
layers = (
{
layerId = "8C7EE80F-D163-4204-B2B9-0AE0B1A3E0A1";
shapes = (
{
closed = 1;
nodes = (
(179,-165,o),
(233,-16,o),
(232,72,cs),
(232,127,o),
(202,192,o),
(126,192,cs),
(68,192,o),
(32,142,o),
(32,93,cs),
(32,48,o),
(69,7,o),
(122,7,cs),
(128,7,o),
(133,7,o),
(137,9,c),
(137,-92,o),
(32,-113,o),
(32,-113,c),
(32,-113,o),
(31,-165,o),
(32,-165,cs)
);
},
{
closed = 1;
nodes = (
(188,316,o),
(234,362,o),
(234,420,cs),
(234,475,o),
(188,520,o),
(132,520,cs),
(75,520,o),
(29,475,o),
(29,420,cs),
(29,362,o),
(75,316,o),
(132,316,cs)
);
}
);
width = 261;
}
);
unicode = 59;
},
{
glyphname = exclam;
lastChange = "2025-06-02 13:43:40 +0000";
layers = (
{
layerId = "8C7EE80F-D163-4204-B2B9-0AE0B1A3E0A1";
shapes = (
{
closed = 1;
nodes = (
(219,254,l),
(233,700,l),
(49,700,l),
(63,254,l)
);
},
{
closed = 1;
nodes = (
(198,-12,o),
(245,35,o),
(245,93,cs),
(245,149,o),
(198,194,o),
(142,194,cs),
(84,194,o),
(38,149,o),
(38,93,cs),
(38,35,o),
(84,-12,o),
(142,-12,cs)
);
}
);
width = 282;
}
);
unicode = 33;
},
{
glyphname = exclamdown;
lastChange = "2025-06-02 13:43:40 +0000";
layers = (
{
layerId = "8C7EE80F-D163-4204-B2B9-0AE0B1A3E0A1";
shapes = (
{
closed = 1;
nodes = (
(49,-187,l),
(233,-187,l),
(219,259,l),
(63,259,l)
);
},
{
closed = 1;
nodes = (
(84,525,o),
(38,478,o),
(38,420,cs),
(38,364,o),
(84,319,o),
(142,319,cs),
(198,319,o),
(245,364,o),
(245,420,cs),
(245,478,o),
(198,525,o),
(142,525,cs)
);
}
);
width = 282;
}
);
unicode = 161;
},
{
glyphname = question;
lastChange = "2025-06-02 13:43:40 +0000";
layers = (
{
hints = (
{
horizontal = 1;
origin = (0,16);
target = (0,6);
type = Stem;
},
{
horizontal = 1;
place = (3,214);
target = (0,22);
type = Stem;
},
{
origin = (0,12);
target = (0,13);
type = Stem;
},
{
origin = (0,22);
target = (0,1);
type = Stem;
},
{
origin = (0,19);
target = (0,3);
type = Stem;
},
{
origin = (0,22);
target = (0,1);
type = Stem;
}
);
layerId = "8C7EE80F-D163-4204-B2B9-0AE0B1A3E0A1";
shapes = (
{
closed = 1;
nodes = (
(320,217,l),
(320,342,o),
(481,324,o),
(481,528,cs),
(481,652,o),
(391,721,o),
(249,721,cs),
(139,721,o),
(72,687,o),
(36,625,c),
(21,599,o),
(12,531,o),
(12,495,c),
(210,495,l),
(210,530,o),
(205,555,o),
(248,555,cs),
(277,555,o),
(283,535,o),
(283,522,cs),
(283,389,o),
(125,429,o),
(125,217,c)
);
},
{
closed = 1;
nodes = (
(283,-18,o),
(330,28,o),
(330,86,cs),
(330,142,o),
(283,187,o),
(227,187,cs),
(169,187,o),
(122,142,o),
(122,86,cs),
(122,28,o),
(169,-18,o),
(227,-18,cs)
);
}
);
width = 497;
}
);
unicode = 63;
},
{
glyphname = questiondown;
lastChange = "2025-06-02 13:43:40 +0000";
layers = (
{
layerId = "8C7EE80F-D163-4204-B2B9-0AE0B1A3E0A1";
shapes = (
{
closed = 1;
nodes = (
(359,-214,o),
(425,-180,o),
(461,-118,c),
(476,-92,o),
(485,-25,o),
(485,11,c),
(288,11,l),
(288,-24,o),
(293,-49,o),
(250,-49,cs),
(221,-49,o),
(215,-29,o),
(215,-15,cs),
(215,117,o),
(373,77,o),
(373,289,c),
(178,289,l),
(178,164,o),
(16,182,o),
(16,-21,cs),
(16,-146,o),
(107,-214,o),
(249,-214,cs)
);
},
{
closed = 1;
nodes = (
(329,319,o),
(375,364,o),
(375,420,cs),
(375,478,o),
(329,525,o),
(271,525,cs),
(215,525,o),
(168,478,o),
(168,420,cs),
(168,364,o),
(215,319,o),
(271,319,cs)
);
}
);
width = 497;
}
);
unicode = 191;
},
{
glyphname = periodcentered;
lastChange = "2025-06-02 13:43:40 +0000";
layers = (
{
layerId = "8C7EE80F-D163-4204-B2B9-0AE0B1A3E0A1";
shapes = (
{
closed = 1;
nodes = (
(196,200,o),
(245,248,o),
(245,309,cs),
(245,366,o),
(196,412,o),
(139,412,cs),
(80,412,o),
(31,366,o),
(31,309,cs),
(31,248,o),
(80,200,o),
(139,200,cs)
);
}
);
width = 276;
}
);
unicode = 183;
},
{
glyphname = bullet;
lastChange = "2025-06-02 13:43:40 +0000";
layers = (
{
layerId = "8C7EE80F-D163-4204-B2B9-0AE0B1A3E0A1";
shapes = (
{
closed = 1;
nodes = (
(237,176,o),
(297,235,o),
(297,310,cs),
(297,383,o),
(237,441,o),
(163,441,cs),
(89,441,o),
(30,383,o),
(30,310,cs),
(30,235,o),
(89,176,o),
(163,176,cs)
);
}
);
width = 326;
}
);
unicode = 8226;
},
{
glyphname = asterisk;
lastChange = "2025-06-02 13:43:40 +0000";
layers = (
{
layerId = "8C7EE80F-D163-4204-B2B9-0AE0B1A3E0A1";
shapes = (
{
closed = 1;
nodes = (
(299,489,l),
(171,489,l),
(338,296,l),
(430,374,l),
(296,533,l),
(248,445,l),
(452,543,l),
(397,661,l),
(230,585,l),
(308,522,l),
(308,712,l),
(170,712,l),
(170,519,l),
(244,584,l),
(71,662,l),
(14,539,l),
(224,440,l),
(179,533,l),
(45,374,l),
(142,298,l)
);
}
);
width = 468;
}
);
unicode = 42;
},
{
glyphname = numbersign;
lastChange = "2025-06-02 13:43:40 +0000";
layers = (
{
hints = (
{
horizontal = 1;
origin = (1,3);
target = (1,2);
type = Stem;
},
{
horizontal = 1;
origin = (3,3);
target = (3,2);
type = Stem;
},
{
origin = (1,3);
target = (3,0);
type = Stem;
}
);
layerId = "8C7EE80F-D163-4204-B2B9-0AE0B1A3E0A1";
shapes = (
{
closed = 1;
nodes = (
(498,0,l),
(671,720,l),
(499,720,l),
(326,0,l)
);
},
{
closed = 1;
nodes = (
(673,133,l),
(673,291,l),
(21,291,l),
(21,133,l)
);
},
{
closed = 1;
nodes = (
(234,0,l),
(407,720,l),
(235,720,l),
(62,0,l)
);
},
{
closed = 1;
nodes = (
(710,386,l),
(710,545,l),
(68,545,l),
(68,386,l)
);
}
);
width = 734;
}
);
unicode = 35;
},
{
glyphname = slash;
lastChange = "2025-06-02 13:43:40 +0000";
layers = (
{
layerId = "8C7EE80F-D163-4204-B2B9-0AE0B1A3E0A1";
shapes = (
{
closed = 1;
nodes = (
(182,-162,l),
(537,775,l),
(362,775,l),
(6,-162,l)
);
}
);
width = 543;
}
);
unicode = 47;
},
{
glyphname = backslash;
lastChange = "2025-06-02 13:43:40 +0000";
layers = (
{
layerId = "8C7EE80F-D163-4204-B2B9-0AE0B1A3E0A1";
shapes = (
{
closed = 1;
nodes = (
(537,-162,l),
(181,775,l),
(6,775,l),
(362,-162,l)
);
}
);
width = 543;
}
);
unicode = 92;
},
{
glyphname = periodcentered.loclCAT;
lastChange = "2025-06-02 13:43:40 +0000";
layers = (
{
layerId = "8C7EE80F-D163-4204-B2B9-0AE0B1A3E0A1";
shapes = (
{
closed = 1;
nodes = (
(199,200,o),
(249,248,o),
(249,309,cs),
(249,367,o),
(199,413,o),
(140,413,cs),
(81,413,o),
(32,367,o),
(32,309,cs),
(32,248,o),
(81,200,o),
(140,200,cs)
);
}
);
width = 280;
}
);
},
{
glyphname = periodcentered.loclCAT.case;
lastChange = "2025-06-02 13:43:40 +0000";
layers = (
{
layerId = "8C7EE80F-D163-4204-B2B9-0AE0B1A3E0A1";
shapes = (
{
closed = 1;
nodes = (
(198,200,o),
(248,248,o),
(248,309,cs),
(248,367,o),
(198,413,o),
(140,413,cs),
(81,413,o),
(31,367,o),
(31,309,cs),
(31,248,o),
(81,200,o),
(140,200,cs)
);
}
);
width = 279;
}
);
},
{
glyphname = hyphen;
lastChange = "2025-06-02 22:05:15 +0000";
layers = (
{
hints = (
{
horizontal = 1;
origin = (0,3);
target = (0,2);
type = Stem;
},
{
origin = (0,3);
target = (0,0);
type = Stem;
}
);
layerId = "8C7EE80F-D163-4204-B2B9-0AE0B1A3E0A1";
shapes = (
{
closed = 1;
nodes = (
(481,213,l),
(481,374,l),
(57,374,l),
(57,213,l)
);
}
);
width = 537;
}
);
unicode = 45;
},
{
glyphname = endash;
lastChange = "2025-06-02 13:43:40 +0000";
layers = (
{
layerId = "8C7EE80F-D163-4204-B2B9-0AE0B1A3E0A1";
shapes = (
{
closed = 1;
nodes = (
(531,221,l),
(531,366,l),
(56,366,l),
(56,221,l)
);
}
);
width = 587;
}
);
unicode = 8211;
},
{
glyphname = emdash;
lastChange = "2025-06-02 13:43:40 +0000";
layers = (
{
layerId = "8C7EE80F-D163-4204-B2B9-0AE0B1A3E0A1";
shapes = (
{
closed = 1;
nodes = (
(869,222,l),
(869,366,l),
(56,366,l),
(56,222,l)
);
}
);
width = 924;
}
);
unicode = 8212;
},
{
glyphname = underscore;
lastChange = "2025-06-02 13:43:40 +0000";
layers = (
{
hints = (
{
horizontal = 1;
origin = (0,3);
target = (0,2);
type = Stem;
},
{
origin = (0,3);
target = (0,0);
type = Stem;
}
);
layerId = "8C7EE80F-D163-4204-B2B9-0AE0B1A3E0A1";
shapes = (
{
closed = 1;
nodes = (
(626,0,l),
(626,145,l),
(56,145,l),
(56,0,l)
);
}
);
width = 682;
}
);
unicode = 95;
},
{
glyphname = parenleft;
lastChange = "2025-06-02 13:43:40 +0000";
layers = (
{
layerId = "8C7EE80F-D163-4204-B2B9-0AE0B1A3E0A1";
shapes = (
{
closed = 1;
nodes = (
(360,-158,l),
(363,-156,o),
(229,4,o),
(229,310,c),
(229,612,o),
(361,773,o),
(358,775,c),
(181,775,l),
(181,775,o),
(37,579,o),
(37,310,c),
(37,37,o),
(183,-158,o),
(183,-158,c)
);
}
);
width = 381;
}
);
unicode = 40;
},
{
glyphname = parenright;
lastChange = "2025-06-02 13:43:40 +0000";
layers = (
{
layerId = "8C7EE80F-D163-4204-B2B9-0AE0B1A3E0A1";
shapes = (
{
closed = 1;
nodes = (
(197,-158,o),
(343,37,o),
(343,310,c),
(343,579,o),
(199,775,o),
(199,775,c),
(23,775,l),
(20,773,o),
(151,612,o),
(151,310,c),
(151,4,o),
(18,-156,o),
(21,-158,c),
(197,-158,l)
);
}
);
width = 380;
}
);
unicode = 41;
},
{
glyphname = braceleft;
lastChange = "2025-06-02 13:43:40 +0000";
layers = (
{
layerId = "8C7EE80F-D163-4204-B2B9-0AE0B1A3E0A1";
shapes = (
{
closed = 1;
nodes = (
(429,-159,l),
(429,0,l),
(321,0,ls),
(292,0,o),
(278,35,o),
(278,68,cs),
(278,210,ls),
(278,266,o),
(244,297,o),
(195,306,c),
(195,314,l),
(244,324,o),
(278,358,o),
(278,414,cs),
(278,548,ls),
(278,594,o),
(292,616,o),
(321,616,cs),
(429,616,l),
(429,775,l),
(256,775,ls),
(177,775,o),
(101,700,o),
(101,619,cs),
(101,468,ls),
(101,409,o),
(79,391,o),
(25,391,c),
(25,231,l),
(79,231,o),
(101,212,o),
(101,155,cs),
(101,-2,ls),
(101,-84,o),
(177,-159,o),
(256,-159,cs)
);
}
);
width = 466;
}
);
unicode = 123;
},
{
glyphname = braceright;
lastChange = "2025-06-02 13:43:40 +0000";
layers = (
{
layerId = "8C7EE80F-D163-4204-B2B9-0AE0B1A3E0A1";
shapes = (
{
closed = 1;
nodes = (
(291,-159,o),
(366,-84,o),
(366,-2,cs),
(366,155,ls),
(366,212,o),
(388,232,o),
(442,232,c),
(442,391,l),
(388,391,o),
(366,409,o),
(366,468,cs),
(366,619,ls),
(366,700,o),
(291,775,o),
(211,775,cs),
(38,775,l),
(38,616,l),
(146,616,ls),
(175,616,o),
(189,594,o),
(189,548,cs),
(189,414,ls),
(189,358,o),
(224,324,o),
(273,314,c),
(273,306,l),
(224,297,o),
(189,266,o),
(189,210,cs),
(189,68,ls),
(189,35,o),
(175,0,o),
(146,0,cs),
(38,0,l),
(38,-159,l),
(211,-159,ls)
);
}
);
width = 467;
}
);
unicode = 125;
},
{
glyphname = bracketleft;
lastChange = "2025-06-02 13:43:40 +0000";
layers = (
{
layerId = "8C7EE80F-D163-4204-B2B9-0AE0B1A3E0A1";
shapes = (
{
closed = 1;
nodes = (
(435,-157,l),
(435,3,l),
(252,3,l),
(252,615,l),
(436,615,l),
(436,775,l),
(72,775,l),
(72,-157,l)
);
}
);
width = 473;
}
);
unicode = 91;
},
{
glyphname = bracketright;
lastChange = "2025-06-02 13:43:40 +0000";
layers = (
{
layerId = "8C7EE80F-D163-4204-B2B9-0AE0B1A3E0A1";
shapes = (
{
closed = 1;
nodes = (
(402,775,l),
(37,775,l),
(37,615,l),
(222,615,l),
(222,3,l),
(38,3,l),
(38,-157,l),
(402,-157,l)
);
}
);
width = 474;
}
);
unicode = 93;
},
{
glyphname = quotedblleft;
kernLeft = quoteleft;
kernRight = quoteleft;
lastChange = "2025-06-02 13:43:40 +0000";
layers = (
{
layerId = "8C7EE80F-D163-4204-B2B9-0AE0B1A3E0A1";
shapes = (
{
closed = 1;
nodes = (
(95,724,o),
(41,574,o),
(42,486,cs),
(42,431,o),
(70,367,o),
(147,367,cs),
(203,367,o),
(242,416,o),
(242,465,c),
(242,510,o),
(200,551,o),
(151,551,cs),
(146,551,o),
(140,551,o),
(137,550,c),
(137,651,o),
(242,671,o),
(242,671,c),
(242,671,o),
(243,724,o),
(242,724,cs)
);
},
{
closed = 1;
nodes = (
(319,724,o),
(265,574,o),
(266,486,cs),
(266,431,o),
(294,367,o),
(372,367,cs),
(427,367,o),
(466,416,o),
(466,465,cs),
(466,510,o),
(424,551,o),
(376,551,cs),
(370,551,o),
(365,551,o),
(361,550,c),
(361,651,o),
(466,671,o),
(466,671,c),
(466,671,o),
(467,724,o),
(466,724,cs)
);
}
);
width = 512;
}
);
unicode = 8220;
},
{
glyphname = quotedblright;
kernLeft = quoteright;
kernRight = quoteright;
lastChange = "2025-06-02 13:43:40 +0000";
layers = (
{
layerId = "8C7EE80F-D163-4204-B2B9-0AE0B1A3E0A1";
shapes = (
{
closed = 1;
nodes = (
(418,367,o),
(472,516,o),
(472,604,cs),
(472,659,o),
(443,724,o),
(366,724,cs),
(311,724,o),
(271,674,o),
(271,625,c),
(271,580,o),
(313,539,o),
(362,539,cs),
(367,539,o),
(373,539,o),
(376,540,c),
(376,440,o),
(271,419,o),
(271,419,c),
(271,419,o),
(270,367,o),
(271,367,cs)
);
},
{
closed = 1;
nodes = (
(193,367,o),
(247,516,o),
(246,604,cs),
(246,659,o),
(218,724,o),
(141,724,cs),
(85,724,o),
(46,674,o),
(46,625,cs),
(46,580,o),
(88,539,o),
(136,539,cs),
(142,539,o),
(147,539,o),
(151,540,c),
(151,440,o),
(46,419,o),
(46,419,c),
(46,419,o),
(45,367,o),
(46,367,cs)
);
}
);
width = 513;
}
);
unicode = 8221;
},
{
glyphname = quoteleft;
kernLeft = quoteleft;
kernRight = quoteleft;
lastChange = "2025-06-02 13:43:40 +0000";
layers = (
{
layerId = "8C7EE80F-D163-4204-B2B9-0AE0B1A3E0A1";
shapes = (
{
closed = 1;
nodes = (
(202,363,o),
(241,412,o),
(241,462,c),
(241,507,o),
(199,547,o),
(151,547,cs),
(146,547,o),
(140,547,o),
(136,546,c),
(136,647,o),
(241,668,o),
(241,668,c),
(241,668,o),
(242,720,o),
(241,720,cs),
(94,720,o),
(41,571,o),
(41,482,cs),
(41,428,o),
(70,363,o),
(147,363,cs)
);
}
);
width = 287;
}
);
unicode = 8216;
},
{
glyphname = quoteright;
kernLeft = quoteright;
kernRight = quoteright;
lastChange = "2025-06-02 13:43:40 +0000";
layers = (
{
layerId = "8C7EE80F-D163-4204-B2B9-0AE0B1A3E0A1";
shapes = (
{
closed = 1;
nodes = (
(194,367,o),
(247,516,o),
(247,604,cs),
(247,659,o),
(218,724,o),
(141,724,cs),
(86,724,o),
(46,674,o),
(46,625,c),
(46,580,o),
(88,539,o),
(137,539,cs),
(142,539,o),
(148,539,o),
(151,540,c),
(151,440,o),
(46,419,o),
(46,419,c),
(46,419,o),
(45,367,o),
(46,367,cs)
);
}
);
width = 288;
}
);
unicode = 8217;
},
{
glyphname = guillemetleft;
lastChange = "2025-06-02 13:43:40 +0000";
layers = (
{
layerId = "8C7EE80F-D163-4204-B2B9-0AE0B1A3E0A1";
shapes = (
{
closed = 1;
nodes = (
(688,165,l),
(402,357,l),
(402,222,l),
(688,414,l),
(688,587,l),
(361,368,l),
(361,206,l),
(688,-13,l)
);
},
{
closed = 1;
nodes = (
(359,165,l),
(73,357,l),
(73,222,l),
(359,414,l),
(359,586,l),
(32,367,l),
(32,206,l),
(359,-13,l)
);
}
);
width = 742;
}
);
unicode = 171;
},
{
glyphname = guillemetright;
lastChange = "2025-06-02 13:43:40 +0000";
layers = (
{
layerId = "8C7EE80F-D163-4204-B2B9-0AE0B1A3E0A1";
shapes = (
{
closed = 1;
nodes = (
(709,206,l),
(709,367,l),
(382,586,l),
(382,414,l),
(668,222,l),
(668,357,l),
(382,165,l),
(382,-13,l)
);
},
{
closed = 1;
nodes = (
(381,206,l),
(381,368,l),
(54,587,l),
(54,414,l),
(340,222,l),
(340,357,l),
(54,165,l),
(54,-13,l)
);
}
);
width = 741;
}
);
unicode = 187;
},
{
glyphname = guilsinglleft;
lastChange = "2025-06-02 13:43:40 +0000";
layers = (
{
layerId = "8C7EE80F-D163-4204-B2B9-0AE0B1A3E0A1";
shapes = (
{
closed = 1;
nodes = (
(377,164,l),
(75,355,l),
(75,223,l),
(377,414,l),
(377,586,l),
(32,367,l),
(32,206,l),
(377,-13,l)
);
}
);
width = 431;
}
);
unicode = 8249;
},
{
glyphname = guilsinglright;
lastChange = "2025-06-02 13:43:40 +0000";
layers = (
{
layerId = "8C7EE80F-D163-4204-B2B9-0AE0B1A3E0A1";
shapes = (
{
closed = 1;
nodes = (
(399,206,l),
(399,367,l),
(54,586,l),
(54,414,l),
(356,223,l),
(356,355,l),
(54,164,l),
(54,-13,l)
);
}
);
width = 431;
}
);
unicode = 8250;
},
{
glyphname = quotedbl;
lastChange = "2025-06-02 13:43:40 +0000";
layers = (
{
layerId = "8C7EE80F-D163-4204-B2B9-0AE0B1A3E0A1";
shapes = (
{
closed = 1;
nodes = (
(447,357,l),
(462,415,o),
(524,551,o),
(524,615,c),
(524,681,o),
(477,722,o),
(423,722,cs),
(368,722,o),
(321,681,o),
(321,615,c),
(321,551,o),
(387,415,o),
(398,357,c)
);
},
{
closed = 1;
nodes = (
(166,357,l),
(179,415,o),
(242,551,o),
(242,615,c),
(242,681,o),
(195,722,o),
(144,722,cs),
(86,722,o),
(39,681,o),
(39,615,c),
(39,551,o),
(104,415,o),
(117,357,c)
);
}
);
width = 564;
}
);
unicode = 34;
},
{
glyphname = quotesingle;
lastChange = "2025-06-02 13:43:40 +0000";
layers = (
{
layerId = "8C7EE80F-D163-4204-B2B9-0AE0B1A3E0A1";
shapes = (
{
closed = 1;
nodes = (
(166,357,l),
(179,415,o),
(242,551,o),
(242,615,c),
(242,681,o),
(195,722,o),
(144,722,cs),
(86,722,o),
(39,681,o),
(39,615,c),
(39,551,o),
(104,415,o),
(117,357,c)
);
}
);
width = 282;
}
);
unicode = 39;
},
{
glyphname = baht;
lastChange = "2025-06-02 13:43:40 +0000";
layers = (
{
layerId = "8C7EE80F-D163-4204-B2B9-0AE0B1A3E0A1";
name = "7 Nov 24 at 18:15";
shapes = (
{
closed = 1;
nodes = (
(411,0,ls),
(588,0,o),
(674,80,o),
(674,207,cs),
(674,282,o),
(627,340,o),
(559,362,c),
(596,387,o),
(635,437,o),
(635,516,cs),
(635,610,o),
(558,701,o),
(403,701,cs),
(82,701,l),
(82,0,l)
);
},
{
closed = 1;
nodes = (
(419,650,l),
(419,824,l),
(239,824,l),
(239,650,l)
);
},
{
closed = 1;
nodes = (
(269,275,l),
(269,275,o),
(387,275,o),
(387,275,cs),
(440,275,o),
(476,260,o),
(476,218,cs),
(476,163,o),
(441,159,o),
(377,159,cs),
(269,159,l)
);
},
{
closed = 1;
nodes = (
(269,542,l),
(269,542,o),
(378,542,o),
(378,542,cs),
(414,542,o),
(438,525,o),
(438,494,cs),
(438,444,o),
(417,434,o),
(379,434,cs),
(269,434,l)
);
},
{
closed = 1;
nodes = (
(239,16,l),
(239,-124,l),
(419,-124,l),
(419,16,l)
);
}
);
width = 724;
}
);
unicode = 3647;
},
{
glyphname = hotdog;
lastChange = "2025-06-02 19:39:24 +0000";
layers = (
{
layerId = "8C7EE80F-D163-4204-B2B9-0AE0B1A3E0A1";
shapes = (
{
closed = 1;
nodes = (
(856,-101,l),
(810,-68,o),
(797,-36,o),
(784,-14,cs),
(777,4,o),
(773,9,o),
(757,22,cs),
(742,35,o),
(735,36,o),
(716,40,cs),
(691,43,o),
(656,49,o),
(611,83,cs),
(566,118,o),
(551,150,o),
(539,173,cs),
(534,189,o),
(531,196,o),
(514,208,cs),
(497,220,o),
(489,222,o),
(473,225,cs),
(447,229,o),
(413,236,o),
(368,271,cs),
(323,304,o),
(307,335,o),
(297,359,cs),
(289,374,o),
(284,382,o),
(270,393,cs),
(253,406,o),
(245,407,o),
(229,409,cs),
(204,416,o),
(170,423,o),
(124,455,cs),
(79,490,o),
(64,523,o),
(53,546,cs),
(44,561,o),
(41,568,o),
(25,581,c),
(116,699,l),
(162,666,o),
(177,633,o),
(187,609,cs),
(195,593,o),
(198,588,o),
(215,577,cs),
(232,563,o),
(237,562,o),
(255,559,cs),
(280,554,o),
(316,547,o),
(359,514,cs),
(405,480,o),
(420,447,o),
(433,425,cs),
(440,408,o),
(443,401,o),
(459,389,cs),
(475,378,o),
(482,377,o),
(499,373,cs),
(526,369,o),
(560,363,o),
(605,327,cs),
(650,292,o),
(664,262,o),
(677,237,cs),
(683,223,o),
(687,216,o),
(702,202,cs),
(719,190,o),
(727,189,o),
(743,186,cs),
(769,182,o),
(803,177,o),
(848,142,cs),
(894,107,o),
(908,76,o),
(920,53,cs),
(927,36,o),
(930,29,o),
(946,17,c)
);
}
);
vertWidth = 537.5;
width = 1008;
}
);
note = hotdog;
unicode = 127789;
},
{
glyphname = taco;
lastChange = "2025-06-02 19:39:17 +0000";
layers = (
{
layerId = "8C7EE80F-D163-4204-B2B9-0AE0B1A3E0A1";
shapes = (
{
closed = 1;
nodes = (
(964,322,ls),
(998,346,o),
(1008,390,o),
(983,421,cs),
(893,539,o),
(662,761,o),
(329,568,cs),
(-3,377,o),
(69,52,o),
(123,-99,cs),
(137,-137,o),
(185,-156,o),
(221,-132,cs)
);
}
);
vertWidth = 537.5;
width = 1058;
}
);
note = taco;
unicode = 127790;
},
{
glyphname = burrito;
lastChange = "2025-06-02 19:40:52 +0000";
layers = (
{
layerId = "8C7EE80F-D163-4204-B2B9-0AE0B1A3E0A1";
shapes = (
{
closed = 1;
nodes = (
(481,564,l),
(496,580,o),
(493,603,o),
(477,617,c),
(417,663,o),
(270,746,o),
(127,607,c),
(-16,468,o),
(64,310,o),
(110,243,c),
(122,224,o),
(149,222,o),
(164,238,c)
);
},
{
closed = 1;
nodes = (
(664,374,l),
(678,388,o),
(677,411,o),
(659,425,c),
(599,472,o),
(454,554,o),
(310,415,c),
(167,276,o),
(246,119,o),
(293,50,c),
(305,32,o),
(331,30,o),
(347,46,c)
);
},
{
closed = 1;
nodes = (
(846,181,l),
(862,196,o),
(859,219,o),
(843,232,c),
(783,280,o),
(636,362,o),
(492,223,c),
(349,84,o),
(429,-73,o),
(475,-141,c),
(488,-159,o),
(514,-162,o),
(529,-146,c)
);
}
);
vertWidth = 537.5;
width = 911;
}
);
note = burrito;
unicode = 127791;
},
{
glyphname = u1F330;
lastChange = "2025-06-02 19:41:28 +0000";
layers = (
{
layerId = "8C7EE80F-D163-4204-B2B9-0AE0B1A3E0A1";
shapes = (
{
closed = 1;
nodes = (
(712,496,l),
(538,583,o),
(498,681,o),
(498,681,c),
(498,681,o),
(458,583,o),
(284,496,c),
(285,496,l),
(202,461,o),
(136,407,o),
(95,341,c),
(84,323,o),
(75,304,o),
(68,284,c),
(57,255,o),
(51,223,o),
(51,191,c),
(51,-1,o),
(251,-157,o),
(498,-157,c),
(745,-157,o),
(945,-1,o),
(945,191,c),
(945,322,o),
(851,437,o),
(712,496,c)
);
}
);
vertWidth = 537.5;
width = 996;
}
);
note = u1F330;
unicode = 127792;
},
{
glyphname = u1F336;
lastChange = "2025-06-02 19:42:44 +0000";
layers = (
{
layerId = "8C7EE80F-D163-4204-B2B9-0AE0B1A3E0A1";
shapes = (
{
closed = 1;
nodes = (
(49,59,l),
(21,30,o),
(24,-16,o),
(56,-41,c),
(173,-131,o),
(452,-290,o),
(727,-22,c),
(1002,245,o),
(849,547,o),
(760,676,c),
(737,711,o),
(687,715,o),
(657,685,c)
);
}
);
width = 950;
}
);
note = u1F336;
unicode = 127798;
},
{
glyphname = corn;
lastChange = "2025-06-02 22:03:20 +0000";
layers = (
{
layerId = "8C7EE80F-D163-4204-B2B9-0AE0B1A3E0A1";
shapes = (
{
closed = 1;
nodes = (
(177,-179,l),
(196,-192,o),
(223,-187,o),
(236,-168,cs),
(237,-167,l),
(259,-176,o),
(284,-165,o),
(294,-144,c),
(299,-145,ls),
(320,-149,o),
(341,-137,o),
(348,-117,c),
(349,-112,l),
(373,-115,o),
(396,-99,o),
(402,-76,c),
(426,-77,o),
(447,-60,o),
(451,-36,c),
(476,-35,o),
(496,-17,o),
(499,7,c),
(524,9,o),
(545,27,o),
(550,52,c),
(553,61,l),
(565,64,ls),
(588,71,o),
(606,89,o),
(611,113,cs),
(613,125,l),
(619,127,ls),
(646,135,o),
(666,158,o),
(670,186,cs),
(671,192,l),
(679,194,ls),
(704,203,o),
(722,226,o),
(726,252,c),
(726,260,l),
(738,265,ls),
(760,274,o),
(776,295,o),
(777,319,cs),
(778,332,l),
(793,339,ls),
(812,349,o),
(824,368,o),
(823,389,cs),
(822,407,l),
(836,415,ls),
(854,427,o),
(864,449,o),
(859,470,cs),
(856,486,l),
(870,499,ls),
(883,513,o),
(885,535,o),
(875,551,cs),
(865,566,l),
(866,582,ls),
(867,601,o),
(851,616,o),
(832,615,cs),
(816,614,l),
(800,625,ls),
(784,634,o),
(764,632,o),
(751,619,cs),
(736,605,l),
(714,609,ls),
(697,613,o),
(679,605,o),
(669,590,cs),
(657,571,l),
(634,572,ls),
(616,573,o),
(600,563,o),
(592,547,cs),
(582,526,l),
(558,525,ls),
(541,524,o),
(526,514,o),
(520,498,cs),
(511,476,l),
(487,473,ls),
(470,471,o),
(455,460,o),
(450,444,cs),
(442,421,l),
(418,417,ls),
(401,414,o),
(388,402,o),
(383,386,cs),
(376,363,l),
(352,358,ls),
(335,355,o),
(322,342,o),
(318,326,cs),
(311,302,l),
(292,298,ls),
(274,294,o),
(260,278,o),
(258,258,cs),
(258,248,l),
(253,248,l),
(232,245,o),
(215,227,o),
(215,205,cs),
(215,201,l),
(211,200,ls),
(189,196,o),
(174,177,o),
(174,155,cs),
(174,151,l),
(171,150,ls),
(149,145,o),
(135,125,o),
(138,103,cs),
(138,99,l),
(135,98,ls),
(114,91,o),
(101,69,o),
(106,47,cs),
(107,44,l),
(105,43,ls),
(84,33,o),
(74,10,o),
(82,-12,cs),
(83,-14,l),
(64,-27,o),
(59,-54,o),
(71,-74,c),
(65,-83,ls),
(55,-96,o),
(58,-115,o),
(72,-124,cs),
(82,-130,l),
(80,-144,ls),
(79,-159,o),
(91,-171,o),
(106,-170,cs),
(120,-169,l),
(132,-188,o),
(158,-193,o),
(176,-179,c)
);
}
);
width = 950;
}
);
note = u1F33D;
},
{
glyphname = u1F344;
lastChange = "2025-06-02 19:53:27 +0000";
layers = (
{
layerId = "8C7EE80F-D163-4204-B2B9-0AE0B1A3E0A1";
shapes = (
{
closed = 1;
nodes = (
(787,233,l),
(820,233,o),
(845,262,o),
(840,295,c),
(825,414,o),
(755,668,o),
(441,672,c),
(128,677,o),
(42,414,o),
(18,288,c),
(12,254,o),
(38,222,o),
(73,223,c)
);
},
{
closed = 1;
nodes = (
(252,166,l),
(252,145,o),
(252,128,o),
(251,115,c),
(250,101,o),
(250,90,o),
(249,82,c),
(248,73,o),
(246,64,o),
(243,56,c),
(238,37,l),
(233,19,o),
(230,4,o),
(228,-10,c),
(225,-24,o),
(224,-37,o),
(224,-47,c),
(224,-87,o),
(241,-117,o),
(276,-137,c),
(310,-157,o),
(361,-167,o),
(429,-167,c),
(497,-167,o),
(548,-157,o),
(583,-137,c),
(617,-117,o),
(634,-87,o),
(634,-47,c),
(634,-37,o),
(633,-24,o),
(631,-10,c),
(628,4,o),
(625,19,o),
(620,37,c),
(615,56,l),
(613,64,o),
(611,72,o),
(610,81,c),
(609,90,o),
(608,101,o),
(607,115,c),
(606,128,o),
(606,145,o),
(606,166,c)
);
}
);
vertWidth = 537.5;
width = 876;
}
);
note = u1F344;
unicode = 127812;
},
{
glyphname = u1F345;
lastChange = "2025-06-02 19:54:31 +0000";
layers = (
{
layerId = "8C7EE80F-D163-4204-B2B9-0AE0B1A3E0A1";
shapes = (
{
closed = 1;
nodes = (
(908,603,o),
(653,666,o),
(533,678,c),
(501,681,o),
(472,655,o),
(473,622,c),
(473,624,l),
(472,657,o),
(443,682,o),
(411,677,c),
(291,662,o),
(38,592,o),
(33,278,c),
(29,-35,o),
(292,-121,o),
(418,-145,c),
(451,-151,o),
(516,-152,o),
(549,-144,c),
(674,-117,o),
(935,-23,o),
(921,289,c)
);
}
);
width = 950;
}
);
note = u1F345;
unicode = 127813;
},
{
glyphname = u1F346;
lastChange = "2025-06-02 19:56:40 +0000";
layers = (
{
layerId = "8C7EE80F-D163-4204-B2B9-0AE0B1A3E0A1";
shapes = (
{
closed = 1;
nodes = (
(221,628,o),
(178,633,o),
(137,621,cs),
(98,610,o),
(62,584,o),
(44,541,c),
(35,503,o),
(31,465,o),
(34,428,cs),
(35,391,o),
(43,354,o),
(57,316,cs),
(105,170,o),
(206,45,o),
(335,-40,cs),
(356,-54,o),
(378,-68,o),
(399,-81,c),
(549,-183,o),
(788,-196,o),
(891,-23,c),
(901,-3,o),
(908,17,o),
(912,39,cs),
(915,60,o),
(915,83,o),
(910,107,cs),
(905,122,o),
(903,136,o),
(896,151,cs),
(888,171,ls),
(879,186,o),
(873,200,o),
(863,212,cs),
(857,219,o),
(852,226,o),
(844,231,cs),
(818,254,o),
(787,269,o),
(754,283,cs),
(725,294,o),
(694,304,o),
(665,314,cs),
(634,323,o),
(605,334,o),
(576,348,cs),
(540,365,o),
(509,385,o),
(477,409,cs),
(443,435,o),
(410,464,o),
(380,496,cs),
(350,527,o),
(319,553,o),
(287,578,cs),
(257,604,l)
);
}
);
width = 950;
}
);
note = u1F346;
unicode = 127814;
},
{
glyphname = u1F347;
lastChange = "2025-06-02 19:57:27 +0000";
layers = (
{
layerId = "8C7EE80F-D163-4204-B2B9-0AE0B1A3E0A1";
shapes = (
{
closed = 1;
nodes = (
(879,117,o),
(869,128,o),
(856,136,c),
(859,141,o),
(862,146,o),
(865,151,c),
(878,171,o),
(884,196,o),
(884,221,c),
(884,248,o),
(878,271,o),
(865,292,c),
(854,313,o),
(837,331,o),
(815,343,c),
(807,349,o),
(799,353,o),
(788,356,c),
(790,366,o),
(791,376,o),
(791,386,c),
(791,412,o),
(785,437,o),
(773,457,c),
(761,478,o),
(743,496,o),
(722,509,c),
(716,511,o),
(712,513,o),
(707,514,c),
(710,521,o),
(714,527,o),
(716,533,c),
(724,550,o),
(728,569,o),
(728,588,c),
(728,613,o),
(722,638,o),
(709,659,c),
(698,680,o),
(680,697,o),
(658,710,c),
(637,723,o),
(614,729,o),
(587,729,c),
(560,729,o),
(536,722,o),
(513,708,c),
(492,695,o),
(477,676,o),
(463,654,c),
(452,658,o),
(439,659,o),
(426,659,c),
(401,659,o),
(378,653,o),
(356,640,c),
(335,627,o),
(317,610,o),
(305,589,c),
(293,567,o),
(286,542,o),
(286,517,c),
(286,516,o),
(286,516,o),
(286,514,c),
(267,524,o),
(247,528,o),
(226,528,c),
(201,528,o),
(177,523,o),
(155,509,c),
(134,496,o),
(117,478,o),
(105,457,c),
(93,437,o),
(86,412,o),
(86,386,c),
(86,379,o),
(87,372,o),
(88,366,c),
(66,353,o),
(47,335,o),
(36,314,c),
(22,291,o),
(15,267,o),
(15,241,c),
(15,215,o),
(22,192,o),
(34,171,c),
(46,150,o),
(63,133,o),
(84,120,c),
(106,107,o),
(130,101,o),
(155,101,c),
(180,101,o),
(202,106,o),
(221,117,c),
(222,91,o),
(229,69,o),
(240,48,c),
(253,27,o),
(270,9,o),
(290,-3,c),
(313,-15,o),
(336,-21,o),
(361,-21,c),
(388,-21,o),
(411,-15,o),
(432,-3,c),
(434,-3,o),
(434,-3,o),
(434,-3,c),
(436,-22,o),
(441,-41,o),
(451,-58,c),
(463,-80,o),
(480,-97,o),
(502,-109,c),
(524,-122,o),
(547,-129,o),
(573,-129,c),
(600,-129,o),
(623,-122,o),
(643,-109,c),
(657,-102,o),
(667,-93,o),
(678,-82,c),
(686,-90,o),
(696,-97,o),
(706,-102,c),
(728,-113,o),
(750,-119,o),
(773,-119,c),
(800,-119,o),
(823,-113,o),
(844,-101,c),
(865,-88,o),
(883,-71,o),
(895,-50,c),
(907,-29,o),
(913,-4,o),
(913,21,c),
(913,52,o),
(905,79,o),
(887,104,c)
);
}
);
width = 950;
}
);
note = u1F347;
unicode = 127815;
},
{
glyphname = u1F348;
lastChange = "2025-06-02 19:57:57 +0000";
layers = (
{
hints = (
{
horizontal = 1;
place = (-152,38);
type = Stem;
},
{
horizontal = 1;
place = (527,37);
type = Stem;
},
{
horizontal = 1;
place = (31,-4);
type = Stem;
},
{
horizontal = 1;
place = (462,102);
type = Stem;
},
{
horizontal = 1;
place = (610,46);
type = Stem;
},
{
horizontal = 1;
place = (462,56);
type = Stem;
},
{
horizontal = 1;
place = (608,48);
type = Stem;
},
{
horizontal = 1;
place = (485,35);
type = Stem;
},
{
horizontal = 1;
place = (488,32);
type = Stem;
},
{
place = (48,38);
type = Stem;
},
{
place = (742,38);
type = Stem;
},
{
place = (391,53);
type = Stem;
},
{
place = (48,36);
type = Stem;
},
{
place = (399,57);
type = Stem;
},
{
place = (398,52);
type = Stem;
},
{
place = (386,42);
type = Stem;
},
{
place = (619,55);
type = Stem;
},
{
place = (619,32);
type = Stem;
},
{
place = (622,48);
type = Stem;
},
{
place = (604,31);
type = Stem;
},
{
place = (192,34);
type = Stem;
},
{
place = (738,42);
type = Stem;
},
{
place = (183,59);
type = Stem;
}
);
layerId = "8C7EE80F-D163-4204-B2B9-0AE0B1A3E0A1";
shapes = (
{
closed = 1;
nodes = (
(469,-106,o),
(516,-96,o),
(560,-77,c),
(604,-58,o),
(643,-32,o),
(677,2,c),
(710,35,o),
(737,74,o),
(756,119,c),
(775,163,o),
(784,210,o),
(784,261,c),
(784,310,o),
(775,356,o),
(756,399,c),
(738,441,o),
(712,478,o),
(679,510,c),
(646,541,o),
(607,566,o),
(563,584,c),
(518,601,o),
(470,610,o),
(418,610,c),
(366,610,o),
(318,601,o),
(274,584,c),
(229,567,o),
(191,542,o),
(158,510,c),
(125,478,o),
(99,441,o),
(80,399,c),
(62,356,o),
(52,310,o),
(52,261,c),
(52,210,o),
(62,163,o),
(81,119,c),
(100,74,o),
(126,35,o),
(160,2,c),
(193,-32,o),
(232,-58,o),
(276,-77,c),
(320,-96,o),
(368,-106,o),
(418,-106,c)
);
}
);
vertWidth = 537.5;
width = 828;
}
);
note = u1F348;
unicode = 127816;
},
{
glyphname = u1F349;
lastChange = "2025-06-02 19:59:33 +0000";
layers = (
{
layerId = "8C7EE80F-D163-4204-B2B9-0AE0B1A3E0A1";
shapes = (
{
closed = 1;
nodes = (
(136,627,l),
(100,643,o),
(55,563,o),
(43,528,c),
(0,396,o),
(-54,99,o),
(269,-64,c),
(591,-225,o),
(814,4,o),
(900,123,c),
(945,183,o),
(950,244,o),
(912,260,c)
);
}
);
width = 950;
}
);
note = u1F349;
unicode = 127817;
},
{
glyphname = u1F34A;
lastChange = "2025-06-02 20:00:33 +0000";
layers = (
{
layerId = "8C7EE80F-D163-4204-B2B9-0AE0B1A3E0A1";
shapes = (
{
closed = 1;
nodes = (
(714,706,o),
(476,700,o),
(364,665,c),
(308,651,o),
(300,621,o),
(313,591,c),
(323,576,l),
(309,606,o),
(261,629,o),
(218,602,c),
(117,541,o),
(-32,365,o),
(59,106,c),
(180,-183,o),
(448,-160,o),
(569,-134,c),
(601,-127,o),
(659,-103,o),
(685,-83,c),
(786,-10,o),
(980,177,o),
(843,458,c)
);
}
);
width = 950;
}
);
note = u1F34A;
unicode = 127818;
},
{
glyphname = u1F34B;
lastChange = "2025-06-02 20:05:34 +0000";
layers = (
{
layerId = "8C7EE80F-D163-4204-B2B9-0AE0B1A3E0A1";
shapes = (
{
closed = 1;
nodes = (
(38,372,o),
(30,318,o),
(32,262,c),
(34,207,o),
(47,152,o),
(72,98,c),
(96,45,o),
(131,-5,o),
(176,-50,c),
(222,-96,o),
(271,-131,o),
(325,-155,c),
(379,-180,o),
(433,-193,o),
(489,-195,c),
(545,-197,o),
(599,-189,o),
(651,-170,c),
(745,-124,o),
(784,-188,o),
(848,-122,c),
(913,-56,o),
(835,-33,o),
(884,65,c),
(905,119,o),
(914,174,o),
(913,232,c),
(912,290,o),
(899,346,o),
(877,401,c),
(854,455,o),
(821,505,o),
(776,550,c),
(732,594,o),
(682,627,o),
(627,650,c),
(573,673,o),
(517,685,o),
(460,686,c),
(402,688,o),
(294,693,o),
(261,646,c),
(232,607,o),
(252,598,o),
(176,581,c),
(119,568,o),
(76,475,o),
(57,423,c)
);
}
);
width = 950;
}
);
note = u1F34B;
unicode = 127819;
},
{
glyphname = u1F34C;
lastChange = "2025-06-02 20:06:47 +0000";
layers = (
{
layerId = "8C7EE80F-D163-4204-B2B9-0AE0B1A3E0A1";
shapes = (
{
closed = 1;
nodes = (
(411,642,o),
(443,668,o),
(479,679,c),
(516,689,o),
(556,685,o),
(589,660,c),
(616,636,o),
(637,607,o),
(653,577,c),
(669,547,o),
(681,514,o),
(688,479,c),
(722,311,o),
(694,127,o),
(588,-12,c),
(573,-34,o),
(557,-55,o),
(540,-75,c),
(465,-173,o),
(317,-255,o),
(196,-172,c),
(176,-157,o),
(161,-139,o),
(151,-116,c),
(143,-95,o),
(139,-72,o),
(141,-50,c),
(141,-44,o),
(142,-38,o),
(143,-32,c),
(151,9,o),
(174,40,o),
(200,72,c),
(233,111,o),
(266,148,o),
(290,192,c),
(301,211,o),
(312,229,o),
(322,248,c),
(332,270,o),
(341,292,o),
(347,316,c),
(362,383,o),
(365,447,o),
(373,511,c),
(376,532,o),
(381,552,o),
(386,572,c),
(391,596,o),
(394,607,o),
(394,607,c)
);
}
);
width = 950;
}
);
note = u1F34C;
unicode = 127820;
},
{
glyphname = u1F34D;
lastChange = "2025-06-02 20:08:39 +0000";
layers = (
{
layerId = "8C7EE80F-D163-4204-B2B9-0AE0B1A3E0A1";
shapes = (
{
closed = 1;
nodes = (
(751,370,o),
(589,410,o),
(513,417,c),
(492,419,o),
(475,403,o),
(475,383,c),
(475,404,o),
(457,420,o),
(436,417,c),
(360,407,o),
(200,363,o),
(197,164,c),
(194,-33,o),
(361,-88,o),
(440,-103,c),
(461,-107,o),
(502,-107,o),
(523,-103,c),
(603,-86,o),
(767,-26,o),
(758,171,c)
);
},
{
closed = 1;
nodes = (
(317,596,l),
(302,596,o),
(291,583,o),
(293,568,c),
(299,515,o),
(331,400,o),
(472,398,c),
(614,397,o),
(652,515,o),
(664,571,c),
(666,587,o),
(654,601,o),
(638,601,c)
);
},
{
closed = 1;
nodes = (
(317,784,l),
(302,784,o),
(291,770,o),
(293,756,c),
(299,702,o),
(331,588,o),
(472,585,c),
(614,584,o),
(652,702,o),
(664,758,c),
(666,774,o),
(654,788,o),
(638,788,c)
);
}
);
width = 950;
}
);
note = u1F34D;
unicode = 127821;
},
{
glyphname = u1F34E;
lastChange = "2025-06-02 20:12:21 +0000";
layers = (
{
layerId = "8C7EE80F-D163-4204-B2B9-0AE0B1A3E0A1";
shapes = (
{
closed = 1;
nodes = (
(925,566,o),
(656,659,o),
(550,601,c),
(529,589,o),
(471,599,o),
(428,610,c),
(311,640,o),
(55,555,o),
(50,261,c),
(46,-52,o),
(324,-195,o),
(435,-132,c),
(466,-114,o),
(531,-111,o),
(566,-131,c),
(677,-195,o),
(952,-40,o),
(938,272,c)
);
}
);
width = 950;
}
);
note = u1F34E;
unicode = 127822;
},
{
glyphname = u1F34F;
lastChange = "2025-06-02 20:12:39 +0000";
layers = (
{
layerId = "8C7EE80F-D163-4204-B2B9-0AE0B1A3E0A1";
shapes = (
{
closed = 1;
nodes = (
(695,720,l),
(704,729,o),
(703,745,o),
(693,752,c),
(655,780,o),
(567,831,o),
(480,746,c),
(393,661,o),
(442,566,o),
(470,524,c),
(476,514,o),
(492,512,o),
(502,522,c)
);
},
{
closed = 1;
nodes = (
(794,509,o),
(593,578,o),
(513,534,c),
(497,526,o),
(454,533,o),
(422,541,c),
(334,565,o),
(143,500,o),
(139,265,c),
(136,31,o),
(344,-76,o),
(427,-29,c),
(451,-15,o),
(500,-13,o),
(525,-28,c),
(609,-76,o),
(814,40,o),
(804,273,c)
);
}
);
width = 950;
}
);
note = u1F34F;
unicode = 127823;
},
{
glyphname = u1F350;
lastChange = "2025-06-02 20:13:48 +0000";
layers = (
{
layerId = "8C7EE80F-D163-4204-B2B9-0AE0B1A3E0A1";
shapes = (
{
closed = 1;
nodes = (
(433,704,o),
(418,697,o),
(403,687,c),
(378,668,o),
(356,638,o),
(337,595,c),
(330,580,o),
(325,563,o),
(319,547,c),
(313,529,o),
(306,510,o),
(298,493,c),
(289,473,o),
(279,456,o),
(266,440,c),
(237,405,l),
(201,362,o),
(175,322,o),
(158,285,c),
(142,249,o),
(134,208,o),
(134,163,c),
(134,105,o),
(149,55,o),
(178,11,c),
(207,-32,o),
(248,-66,o),
(302,-90,c),
(355,-114,o),
(418,-126,o),
(491,-126,c),
(565,-126,o),
(629,-113,o),
(683,-89,c),
(737,-64,o),
(778,-27,o),
(807,18,c),
(836,64,o),
(850,117,o),
(850,177,c),
(850,218,o),
(845,255,o),
(832,286,c),
(819,317,o),
(803,344,o),
(785,367,c),
(766,390,o),
(749,412,o),
(731,430,c),
(713,448,o),
(700,466,o),
(692,481,c),
(682,499,o),
(673,520,o),
(665,540,c),
(658,562,o),
(650,583,o),
(642,603,c),
(633,622,o),
(624,641,o),
(613,658,c),
(600,675,o),
(585,688,o),
(566,698,c),
(553,706,o),
(538,710,o),
(520,711,c),
(520,711,o),
(450,720,o),
(452,709,c)
);
}
);
width = 950;
}
);
note = u1F350;
unicode = 127824;
},
{
glyphname = u1F351;
lastChange = "2025-06-02 20:15:11 +0000";
layers = (
{
layerId = "8C7EE80F-D163-4204-B2B9-0AE0B1A3E0A1";
shapes = (
{
closed = 1;
nodes = (
(43,670,o),
(313,763,o),
(418,705,c),
(440,693,o),
(497,671,o),
(540,701,c),
(640,769,o),
(918,659,o),
(918,345,c),
(918,-28,o),
(614,1,o),
(533,-98,c),
(487,-155,o),
(448,-156,o),
(402,-97,c),
(323,3,o),
(30,-9,o),
(30,356,c)
);
}
);
width = 950;
}
);
note = u1F351;
unicode = 127825;
},
{
glyphname = u1F352;
lastChange = "2025-06-02 20:16:05 +0000";
layers = (
{
layerId = "8C7EE80F-D163-4204-B2B9-0AE0B1A3E0A1";
shapes = (
{
closed = 1;
nodes = (
(279,697,l),
(262,694,o),
(252,677,o),
(256,661,c),
(274,601,o),
(330,477,o),
(491,500,c),
(652,523,o),
(675,664,o),
(677,731,c),
(677,749,o),
(661,762,o),
(644,759,c)
);
},
{
closed = 1;
nodes = (
(313,689,l),
(301,701,o),
(281,700,o),
(271,687,c),
(231,639,o),
(161,522,o),
(271,402,c),
(381,283,o),
(511,344,o),
(567,381,c),
(582,390,o),
(584,411,o),
(572,424,c)
);
},
{
closed = 1;
nodes = (
(511,-51,o),
(424,-138,o),
(317,-138,c),
(209,-138,o),
(122,-51,o),
(122,57,c),
(122,164,o),
(209,251,o),
(317,251,c),
(424,251,o),
(511,164,o),
(511,57,c)
);
},
{
closed = 1;
nodes = (
(855,31,o),
(768,-57,o),
(660,-57,c),
(553,-57,o),
(466,31,o),
(466,138,c),
(466,245,o),
(553,332,o),
(660,332,c),
(768,332,o),
(855,245,o),
(855,138,c)
);
}
);
width = 950;
}
);
note = u1F352;
unicode = 127826;
},
{
glyphname = u1F353;
lastChange = "2025-06-02 20:17:36 +0000";
layers = (
{
layerId = "8C7EE80F-D163-4204-B2B9-0AE0B1A3E0A1";
shapes = (
{
closed = 1;
nodes = (
(96,489,o),
(74,458,o),
(61,424,c),
(20,321,o),
(55,191,o),
(140,115,c),
(156,101,o),
(171,87,o),
(190,75,c),
(200,68,o),
(210,62,o),
(220,56,c),
(244,42,o),
(268,33,o),
(293,22,c),
(326,10,o),
(361,-1,o),
(395,-9,c),
(430,-18,o),
(465,-26,o),
(498,-34,c),
(544,-47,o),
(593,-60,o),
(640,-59,c),
(725,-64,o),
(807,4,o),
(811,90,c),
(816,191,o),
(809,292,o),
(807,393,c),
(806,441,o),
(791,487,o),
(772,531,c),
(760,557,o),
(746,582,o),
(729,606,c),
(678,676,o),
(605,731,o),
(522,754,c),
(496,761,o),
(469,762,o),
(441,758,c),
(414,754,o),
(386,744,o),
(359,728,c),
(347,720,o),
(336,713,o),
(325,704,c),
(293,676,o),
(269,646,o),
(243,612,c),
(227,591,o),
(206,576,o),
(186,559,c),
(166,543,o),
(146,528,o),
(127,514,c)
);
}
);
width = 950;
}
);
note = u1F353;
unicode = 127827;
},
{
glyphname = u1F354;
lastChange = "2025-06-02 20:19:04 +0000";
layers = (
{
layerId = "8C7EE80F-D163-4204-B2B9-0AE0B1A3E0A1";
shapes = (
{
closed = 1;
nodes = (
(851,256,l),
(810,256,o),
(788,267,o),
(772,275,c),
(761,280,o),
(756,282,o),
(742,282,c),
(727,282,o),
(723,280,o),
(711,274,c),
(695,267,o),
(673,256,o),
(633,256,c),
(593,256,o),
(570,266,o),
(554,274,c),
(543,279,o),
(538,281,o),
(524,281,c),
(509,281,o),
(505,279,o),
(493,274,c),
(477,266,o),
(455,255,o),
(416,255,c),
(375,255,o),
(353,266,o),
(337,273,c),
(325,279,o),
(321,281,o),
(306,281,c),
(292,281,o),
(288,278,o),
(276,273,c),
(260,265,o),
(238,254,o),
(197,254,c),
(158,254,o),
(135,265,o),
(119,273,c),
(108,278,o),
(103,280,o),
(88,280,c),
(88,380,l),
(128,380,o),
(150,370,o),
(167,362,c),
(178,356,o),
(183,354,o),
(197,354,c),
(212,354,o),
(216,357,o),
(227,362,c),
(244,370,o),
(266,381,o),
(306,381,c),
(346,381,o),
(369,370,o),
(385,363,c),
(395,357,o),
(401,355,o),
(415,355,c),
(430,355,o),
(434,357,o),
(446,363,c),
(462,371,o),
(484,381,o),
(523,381,c),
(564,382,o),
(586,371,o),
(602,363,c),
(614,358,o),
(618,356,o),
(632,356,c),
(647,356,o),
(651,358,o),
(663,363,c),
(679,371,o),
(701,382,o),
(741,382,c),
(781,382,o),
(804,372,o),
(820,364,c),
(831,359,o),
(836,356,o),
(851,356,c)
);
},
{
closed = 1;
nodes = (
(779,423,l),
(807,423,o),
(829,441,o),
(825,461,c),
(812,537,o),
(751,696,o),
(477,699,c),
(205,702,o),
(130,536,o),
(109,457,c),
(103,436,o),
(127,416,o),
(157,416,c)
);
},
{
closed = 1;
nodes = (
(156,212,l),
(127,212,o),
(105,194,o),
(109,173,c),
(122,98,o),
(183,-61,o),
(456,-64,c),
(729,-67,o),
(805,99,o),
(825,178,c),
(830,199,o),
(808,219,o),
(777,218,c)
);
}
);
width = 950;
}
);
note = u1F354;
unicode = 127828;
},
{
glyphname = u1F355;
lastChange = "2025-06-02 20:24:40 +0000";
layers = (
{
layerId = "8C7EE80F-D163-4204-B2B9-0AE0B1A3E0A1";
shapes = (
{
closed = 1;
nodes = (
(695,813,l),
(663,794,o),
(639,792,o),
(622,791,c),
(610,790,o),
(606,789,o),
(594,782,c),
(582,775,o),
(580,771,o),
(574,761,c),
(565,746,o),
(553,726,o),
(521,707,c),
(488,687,o),
(465,685,o),
(448,684,c),
(436,683,o),
(431,683,o),
(420,676,c),
(408,669,o),
(406,664,o),
(400,654,c),
(391,640,o),
(378,620,o),
(346,600,c),
(314,581,o),
(291,579,o),
(274,577,c),
(262,576,o),
(257,576,o),
(246,569,c),
(234,562,o),
(232,558,o),
(225,548,c),
(216,533,o),
(204,513,o),
(172,494,c),
(140,474,o),
(117,472,o),
(100,471,c),
(88,470,o),
(83,470,o),
(71,462,c),
(19,548,l),
(51,567,o),
(75,569,o),
(92,571,c),
(104,571,o),
(108,572,o),
(120,579,c),
(131,586,o),
(134,590,o),
(140,600,c),
(149,615,o),
(161,635,o),
(193,654,c),
(225,674,o),
(249,676,o),
(266,677,c),
(278,678,o),
(283,678,o),
(294,685,c),
(306,693,o),
(308,697,o),
(314,707,c),
(323,721,o),
(336,741,o),
(368,761,c),
(400,781,o),
(423,782,o),
(440,784,c),
(452,785,o),
(457,785,o),
(468,792,c),
(480,799,o),
(482,803,o),
(489,813,c),
(498,828,o),
(510,848,o),
(542,867,c),
(574,887,o),
(597,889,o),
(614,890,c),
(626,891,o),
(631,892,o),
(642,899,c)
);
},
{
closed = 1;
nodes = (
(659,176,o),
(616,132,o),
(562,132,c),
(508,132,o),
(465,176,o),
(465,229,c),
(465,283,o),
(508,326,o),
(562,326,c),
(616,326,o),
(659,283,o),
(659,229,c)
);
},
{
closed = 1;
nodes = (
(742,451,o),
(699,408,o),
(645,408,c),
(591,408,o),
(548,451,o),
(548,505,c),
(548,559,o),
(591,602,o),
(645,602,c),
(699,602,o),
(742,559,o),
(742,505,c)
);
},
{
closed = 1;
nodes = (
(159,328,o),
(231,277,o),
(283,224,c),
(310,198,o),
(339,174,o),
(367,149,c),
(392,126,o),
(417,103,o),
(442,80,c),
(547,-13,o),
(742,-153,o),
(826,-93,c),
(866,-65,o),
(881,27,o),
(880,75,c),
(878,123,o),
(869,151,o),
(864,198,c),
(859,227,o),
(855,256,o),
(851,285,c),
(848,314,o),
(845,344,o),
(842,373,c),
(839,403,o),
(835,434,o),
(830,464,c),
(815,565,o),
(796,718,o),
(727,737,c),
(645,761,o),
(190,498,o),
(175,413,c)
);
}
);
width = 950;
}
);
note = u1F355;
unicode = 127829;
},
{
glyphname = u1F356;
lastChange = "2025-06-02 20:28:19 +0000";
layers = (
{
layerId = "8C7EE80F-D163-4204-B2B9-0AE0B1A3E0A1";
shapes = (
{
closed = 1;
nodes = (
(794,71,o),
(790,78,o),
(784,84,c),
(779,90,o),
(773,95,o),
(767,97,c),
(763,99,o),
(758,101,o),
(751,102,c),
(775,146,o),
(787,192,o),
(787,238,c),
(787,271,o),
(781,299,o),
(767,323,c),
(754,347,o),
(739,367,o),
(722,381,c),
(702,400,o),
(683,414,o),
(665,423,c),
(646,433,o),
(630,441,o),
(615,448,c),
(601,455,o),
(589,464,o),
(579,475,c),
(571,485,o),
(565,493,o),
(562,500,c),
(558,508,o),
(555,515,o),
(551,521,c),
(548,528,o),
(543,535,o),
(537,543,c),
(530,551,o),
(521,561,o),
(508,571,c),
(494,583,o),
(478,591,o),
(460,598,c),
(442,604,o),
(423,607,o),
(401,607,c),
(379,607,o),
(355,604,o),
(330,597,c),
(330,628,l),
(330,697,o),
(296,731,o),
(228,731,c),
(197,731,o),
(174,724,o),
(159,710,c),
(143,696,o),
(132,673,o),
(127,640,c),
(90,640,o),
(63,631,o),
(45,614,c),
(28,596,o),
(19,569,o),
(19,531,c),
(19,478,o),
(47,447,o),
(103,438,c),
(126,434,l),
(118,419,o),
(112,403,o),
(108,387,c),
(100,360,o),
(96,335,o),
(96,311,c),
(96,281,o),
(102,256,o),
(113,238,c),
(124,220,o),
(138,204,o),
(155,189,c),
(174,175,o),
(189,164,o),
(200,157,c),
(211,151,o),
(220,142,o),
(227,132,c),
(232,126,o),
(238,114,o),
(244,97,c),
(251,80,o),
(259,61,o),
(269,41,c),
(279,21,o),
(291,4,o),
(305,-11,c),
(322,-29,o),
(343,-44,o),
(368,-57,c),
(393,-69,o),
(423,-76,o),
(457,-76,c),
(481,-76,o),
(504,-73,o),
(526,-68,c),
(545,-64,o),
(562,-58,o),
(579,-51,c),
(580,-58,o),
(581,-63,o),
(582,-66,c),
(583,-73,o),
(586,-78,o),
(590,-84,c),
(596,-91,o),
(605,-97,o),
(616,-101,c),
(627,-105,o),
(638,-107,o),
(649,-107,c),
(660,-107,o),
(670,-105,o),
(679,-103,c),
(689,-100,o),
(697,-96,o),
(703,-90,c),
(709,-85,o),
(713,-79,o),
(715,-72,c),
(718,-64,o),
(720,-53,o),
(721,-39,c),
(736,-39,o),
(747,-38,o),
(755,-36,c),
(762,-34,o),
(769,-30,o),
(775,-25,c),
(783,-18,o),
(789,-9,o),
(793,2,c),
(797,14,o),
(799,26,o),
(799,38,c),
(799,47,o),
(798,55,o),
(796,63,c)
);
}
);
vertWidth = 537.5;
width = 867;
}
);
note = u1F356;
unicode = 127830;
},
{
glyphname = u1F357;
lastChange = "2025-06-02 20:27:58 +0000";
layers = (
{
layerId = "8C7EE80F-D163-4204-B2B9-0AE0B1A3E0A1";
shapes = (
{
closed = 1;
nodes = (
(890,346,o),
(861,389,o),
(820,428,c),
(791,456,o),
(763,475,o),
(734,488,c),
(705,501,o),
(678,508,o),
(652,514,c),
(624,517,o),
(600,521,o),
(577,523,c),
(556,524,o),
(536,527,o),
(521,532,c),
(502,538,o),
(483,545,o),
(465,555,c),
(445,564,o),
(427,573,o),
(409,582,c),
(390,590,o),
(372,596,o),
(353,601,c),
(335,604,o),
(318,604,o),
(299,599,c),
(299,598,o),
(298,598,o),
(298,598,c),
(240,659,l),
(232,698,l),
(230,708,o),
(228,717,o),
(226,722,c),
(224,728,o),
(220,733,o),
(215,739,c),
(210,744,o),
(204,749,o),
(197,751,c),
(190,753,o),
(183,754,o),
(175,755,c),
(164,756,o),
(153,755,o),
(144,753,c),
(133,751,o),
(126,746,o),
(119,740,c),
(115,735,o),
(111,728,o),
(109,723,c),
(107,716,o),
(106,706,o),
(106,694,c),
(93,694,o),
(83,693,o),
(77,691,c),
(70,689,o),
(64,686,o),
(61,682,c),
(55,676,o),
(51,670,o),
(49,661,c),
(46,654,o),
(44,646,o),
(44,636,c),
(44,626,o),
(45,617,o),
(49,606,c),
(52,596,o),
(56,589,o),
(63,583,c),
(67,579,o),
(73,576,o),
(77,574,c),
(84,572,o),
(92,570,o),
(105,567,c),
(144,559,l),
(215,492,l),
(214,465,o),
(223,433,o),
(240,394,c),
(247,381,o),
(254,367,o),
(264,352,c),
(273,337,o),
(281,320,o),
(289,304,c),
(297,287,o),
(303,269,o),
(307,250,c),
(313,211,l),
(322,160,o),
(336,118,o),
(352,85,c),
(367,51,o),
(390,20,o),
(421,-9,c),
(462,-47,o),
(505,-72,o),
(551,-82,c),
(598,-93,o),
(644,-90,o),
(691,-73,c),
(738,-58,o),
(782,-28,o),
(823,15,c),
(865,60,o),
(892,106,o),
(906,155,c),
(920,203,o),
(918,251,o),
(904,299,c)
);
}
);
width = 950;
}
);
note = u1F357;
unicode = 127831;
},
{
glyphname = u1F35A;
lastChange = "2025-06-02 20:28:52 +0000";
layers = (
{
layerId = "8C7EE80F-D163-4204-B2B9-0AE0B1A3E0A1";
shapes = (
{
closed = 1;
nodes = (
(528,-63,o),
(569,-58,o),
(599,-47,c),
(628,-37,o),
(643,-23,o),
(643,-5,c),
(643,61,l),
(475,43,l),
(307,61,l),
(307,-5,l),
(307,-23,o),
(322,-37,o),
(352,-47,c),
(381,-58,o),
(423,-63,o),
(475,-63,c)
);
},
{
closed = 1;
nodes = (
(615,31,o),
(720,60,o),
(791,117,c),
(863,174,o),
(898,260,o),
(898,374,c),
(898,395,o),
(896,416,o),
(891,436,c),
(886,456,o),
(879,474,o),
(870,489,c),
(861,504,o),
(850,514,o),
(837,521,c),
(835,546,o),
(827,570,o),
(816,591,c),
(804,612,o),
(788,627,o),
(768,635,c),
(765,649,o),
(758,662,o),
(747,674,c),
(737,685,o),
(724,695,o),
(710,702,c),
(695,709,o),
(681,713,o),
(666,713,c),
(656,726,o),
(642,737,o),
(624,745,c),
(607,752,o),
(589,756,o),
(571,756,c),
(564,756,o),
(557,755,o),
(551,754,c),
(542,760,o),
(530,765,o),
(517,769,c),
(503,773,o),
(489,775,o),
(475,775,c),
(461,775,o),
(447,773,o),
(434,769,c),
(420,765,o),
(409,760,o),
(399,754,c),
(393,755,o),
(387,756,o),
(379,756,c),
(361,756,o),
(344,752,o),
(326,745,c),
(309,737,o),
(295,726,o),
(284,713,c),
(270,713,o),
(255,709,o),
(241,702,c),
(226,695,o),
(214,685,o),
(203,674,c),
(193,662,o),
(186,649,o),
(182,635,c),
(162,627,o),
(146,612,o),
(135,591,c),
(123,570,o),
(116,546,o),
(113,521,c),
(101,514,o),
(90,504,o),
(81,489,c),
(72,474,o),
(65,456,o),
(60,436,c),
(55,416,o),
(52,395,o),
(52,374,c),
(52,260,o),
(88,174,o),
(160,117,c),
(231,60,o),
(337,31,o),
(475,31,c)
);
}
);
vertWidth = 537.5;
width = 940;
}
);
note = u1F35A;
unicode = 127834;
},
{
glyphname = u1F35B;
lastChange = "2025-06-02 20:30:03 +0000";
layers = (
{
hints = (
{
horizontal = 1;
place = (-137,42);
type = Stem;
},
{
horizontal = 1;
place = (-40,31);
type = Stem;
},
{
horizontal = 1;
place = (147,43);
type = Stem;
},
{
horizontal = 1;
place = (236,23);
type = Stem;
},
{
horizontal = 1;
place = (324,23);
type = Stem;
},
{
horizontal = 1;
place = (412,23);
type = Stem;
},
{
horizontal = 1;
place = (564,40);
type = Stem;
},
{
horizontal = 1;
place = (-171,76);
type = Stem;
},
{
horizontal = 1;
place = (587,40);
type = Stem;
},
{
horizontal = 1;
place = (254,23);
type = Stem;
},
{
place = (46,42);
type = Stem;
},
{
place = (-238,-5);
type = Stem;
},
{
place = (404,47);
type = Stem;
},
{
place = (504,22);
type = Stem;
},
{
place = (583,23);
type = Stem;
},
{
place = (662,22);
type = Stem;
},
{
place = (742,37);
type = Stem;
},
{
place = (852,48);
type = Stem;
},
{
place = (956,42);
type = Stem;
},
{
place = (692,17);
type = Stem;
},
{
place = (584,47);
type = Stem;
},
{
place = (173,37);
type = Stem;
},
{
place = (614,22);
type = Stem;
},
{
place = (591,23);
type = Stem;
}
);
layerId = "8C7EE80F-D163-4204-B2B9-0AE0B1A3E0A1";
shapes = (
{
closed = 1;
nodes = (
(823,262,o),
(805,259,o),
(779,259,c),
(765,259,o),
(753,262,o),
(744,267,c),
(734,272,o),
(729,277,o),
(729,284,c),
(729,297,o),
(735,307,o),
(746,314,c),
(758,321,o),
(773,324,o),
(793,324,c),
(799,324,o),
(805,324,o),
(809,323,c),
(817,327,o),
(823,329,o),
(829,329,c),
(835,329,o),
(839,326,o),
(843,319,c),
(847,312,o),
(849,304,o),
(849,295,c),
(849,282,o),
(844,272,o),
(834,267,c)
);
},
{
closed = 1;
nodes = (
(698,136,o),
(680,130,o),
(653,130,c),
(644,130,o),
(637,132,o),
(634,137,c),
(630,141,o),
(628,147,o),
(628,154,c),
(628,160,o),
(631,168,o),
(636,178,c),
(641,187,o),
(647,197,o),
(654,207,c),
(662,216,o),
(669,224,o),
(677,231,c),
(684,237,o),
(691,240,o),
(695,240,c),
(703,240,o),
(710,236,o),
(715,228,c),
(721,219,o),
(723,212,o),
(723,206,c),
(723,181,o),
(718,162,o),
(708,149,c)
);
},
{
closed = 1;
nodes = (
(587,340,l),
(585,340,l),
(588,363,l),
(594,363,o),
(599,366,o),
(604,371,c),
(609,376,o),
(611,381,o),
(611,387,c),
(611,389,o),
(611,391,o),
(609,393,c),
(631,402,l),
(633,397,o),
(633,392,o),
(633,387,c),
(633,375,o),
(629,364,o),
(619,355,c),
(610,345,o),
(600,340,o),
(589,340,c)
);
},
{
closed = 1;
nodes = (
(563,82,o),
(553,77,o),
(539,77,c),
(526,77,o),
(515,79,o),
(505,84,c),
(496,89,o),
(491,98,o),
(491,112,c),
(491,119,o),
(494,127,o),
(499,134,c),
(503,142,o),
(508,149,o),
(514,155,c),
(521,160,o),
(529,163,o),
(538,163,c),
(552,163,o),
(563,160,o),
(570,155,c),
(578,149,o),
(581,139,o),
(581,124,c),
(581,113,o),
(578,102,o),
(570,92,c)
);
},
{
closed = 1;
nodes = (
(451,179,o),
(448,185,o),
(448,194,c),
(448,204,o),
(452,213,o),
(461,221,c),
(469,229,o),
(479,233,o),
(490,233,c),
(498,233,o),
(505,231,o),
(510,226,c),
(515,221,o),
(517,215,o),
(517,207,c),
(517,199,o),
(514,191,o),
(506,184,c),
(499,176,o),
(489,169,o),
(477,163,c),
(469,165,o),
(462,169,o),
(457,174,c)
);
},
{
closed = 1;
nodes = (
(477,345,l),
(483,345,o),
(489,348,o),
(494,353,c),
(499,358,o),
(501,363,o),
(501,369,c),
(501,371,o),
(501,373,o),
(499,375,c),
(520,384,l),
(522,379,o),
(523,374,o),
(523,369,c),
(523,357,o),
(519,346,o),
(509,337,c),
(500,327,o),
(490,322,o),
(479,322,c),
(477,322,l),
(475,322,l)
);
},
{
closed = 1;
nodes = (
(557,433,l),
(563,433,o),
(568,436,o),
(573,441,c),
(578,446,o),
(580,451,o),
(580,457,c),
(580,459,o),
(580,461,o),
(579,463,c),
(600,472,l),
(602,467,o),
(603,462,o),
(603,457,c),
(603,445,o),
(599,434,o),
(589,425,c),
(580,415,o),
(570,410,o),
(558,410,c),
(556,410,l),
(554,410,l)
);
},
{
closed = 1;
nodes = (
(565,521,l),
(571,521,o),
(576,524,o),
(581,529,c),
(586,534,o),
(588,539,o),
(588,545,c),
(588,547,o),
(588,549,o),
(587,551,c),
(608,560,l),
(610,555,o),
(611,550,o),
(611,545,c),
(611,533,o),
(607,522,o),
(597,513,c),
(588,503,o),
(578,498,o),
(566,498,c),
(564,498,l),
(562,498,l)
);
},
{
closed = 1;
nodes = (
(658,465,o),
(659,470,o),
(659,475,c),
(659,480,o),
(658,484,o),
(654,487,c),
(671,503,l),
(678,495,o),
(681,486,o),
(681,475,c),
(681,464,o),
(678,455,o),
(672,446,c),
(666,437,o),
(659,431,o),
(649,429,c),
(644,451,l),
(648,452,o),
(652,455,o),
(655,460,c)
);
},
{
closed = 1;
nodes = (
(390,186,o),
(383,184,o),
(371,184,c),
(349,184,o),
(334,187,o),
(328,193,c),
(321,198,o),
(318,208,o),
(318,221,c),
(318,226,o),
(322,231,o),
(328,235,c),
(335,239,o),
(341,241,o),
(346,241,c),
(360,241,o),
(373,238,o),
(384,232,c),
(396,225,o),
(401,216,o),
(401,203,c),
(401,198,o),
(399,193,o),
(395,190,c)
);
},
{
closed = 1;
nodes = (
(846,394,o),
(814,420,o),
(770,443,c),
(772,447,o),
(774,452,o),
(775,459,c),
(776,466,o),
(776,472,o),
(776,477,c),
(776,496,o),
(771,512,o),
(760,525,c),
(749,538,o),
(735,548,o),
(719,555,c),
(719,576,o),
(711,595,o),
(696,611,c),
(681,626,o),
(662,635,o),
(640,636,c),
(634,652,o),
(624,665,o),
(609,675,c),
(594,685,o),
(577,690,o),
(557,690,c),
(551,690,o),
(546,690,o),
(540,689,c),
(532,696,o),
(521,702,o),
(510,707,c),
(498,711,o),
(486,713,o),
(473,713,c),
(461,713,o),
(448,711,o),
(437,707,c),
(425,702,o),
(415,696,o),
(406,689,c),
(402,690,o),
(396,690,o),
(389,690,c),
(370,690,o),
(353,685,o),
(338,675,c),
(323,665,o),
(312,652,o),
(306,636,c),
(284,635,o),
(266,626,o),
(251,611,c),
(236,595,o),
(228,576,o),
(227,555,c),
(211,548,o),
(198,538,o),
(187,525,c),
(176,512,o),
(170,496,o),
(170,477,c),
(170,472,o),
(171,466,o),
(172,459,c),
(173,452,o),
(175,447,o),
(177,443,c),
(171,434,o),
(167,423,o),
(167,409,c),
(167,404,o),
(168,398,o),
(169,393,c),
(170,388,o),
(172,382,o),
(174,376,c),
(162,359,o),
(154,342,o),
(149,325,c),
(144,307,o),
(141,289,o),
(141,272,c),
(141,237,o),
(151,206,o),
(171,179,c),
(190,151,o),
(218,127,o),
(253,107,c),
(288,87,o),
(328,72,o),
(373,62,c),
(419,51,o),
(467,46,o),
(519,46,c),
(571,46,o),
(620,51,o),
(666,62,c),
(711,72,o),
(752,87,o),
(786,107,c),
(821,127,o),
(848,151,o),
(868,179,c),
(887,206,o),
(897,237,o),
(897,272,c),
(897,305,o),
(887,336,o),
(866,365,c)
);
},
{
closed = 1;
nodes = (
(591,-85,o),
(652,-78,o),
(703,-64,c),
(753,-50,o),
(793,-31,o),
(824,-7,c),
(854,16,o),
(874,42,o),
(884,71,c),
(723,-1,l),
(519,-25,l),
(318,-1,l),
(158,71,l),
(168,42,o),
(188,16,o),
(218,-7,c),
(248,-31,o),
(288,-50,o),
(338,-64,c),
(388,-78,o),
(449,-85,o),
(519,-85,c)
);
},
{
closed = 1;
nodes = (
(597,-51,o),
(665,-43,o),
(724,-26,c),
(784,-9,o),
(833,14,o),
(874,43,c),
(914,72,o),
(944,106,o),
(965,144,c),
(985,182,o),
(995,222,o),
(995,265,c),
(995,309,o),
(984,351,o),
(963,390,c),
(941,429,o),
(909,463,o),
(866,493,c),
(823,523,o),
(770,546,o),
(706,561,c),
(737,508,l),
(805,486,o),
(858,454,o),
(896,412,c),
(934,369,o),
(953,320,o),
(953,265,c),
(953,224,o),
(943,187,o),
(922,154,c),
(902,120,o),
(872,91,o),
(834,67,c),
(796,42,o),
(751,24,o),
(697,11,c),
(644,-2,o),
(585,-9,o),
(519,-9,c),
(454,-9,o),
(395,-2,o),
(341,11,c),
(288,24,o),
(242,42,o),
(204,67,c),
(166,91,o),
(137,120,o),
(116,154,c),
(96,187,o),
(85,224,o),
(85,265,c),
(85,304,o),
(95,340,o),
(113,373,c),
(132,406,o),
(158,435,o),
(192,459,c),
(186,503,l),
(139,474,o),
(103,438,o),
(79,397,c),
(55,355,o),
(43,311,o),
(43,265,c),
(43,222,o),
(53,182,o),
(74,144,c),
(94,106,o),
(124,72,o),
(165,43,c),
(205,14,o),
(255,-9,o),
(314,-26,c),
(374,-43,o),
(442,-51,o),
(519,-51,c)
);
}
);
vertWidth = 537.5;
width = 1044;
}
);
note = u1F35B;
unicode = 127835;
},
{
glyphname = u1F35C;
lastChange = "2025-06-02 20:32:18 +0000";
layers = (
{
hints = (
{
horizontal = 1;
place = (-92,40);
type = Stem;
},
{
horizontal = 1;
place = (15,38);
type = Stem;
},
{
horizontal = 1;
place = (-34,-188);
type = Stem;
},
{
horizontal = 1;
place = (267,57);
type = Stem;
},
{
horizontal = 1;
place = (373,40);
type = Stem;
},
{
horizontal = 1;
place = (-134,-10);
type = Stem;
},
{
horizontal = 1;
place = (-145,93);
type = Stem;
},
{
horizontal = 1;
place = (-32,-388);
type = Stem;
},
{
horizontal = 1;
place = (135,32);
type = Stem;
},
{
horizontal = 1;
place = (149,18);
type = Stem;
},
{
horizontal = 1;
place = (292,32);
type = Stem;
},
{
place = (42,43);
type = Stem;
},
{
place = (306,11);
type = Stem;
},
{
place = (362,43);
type = Stem;
},
{
place = (875,43);
type = Stem;
},
{
place = (243,43);
type = Stem;
},
{
place = (274,43);
type = Stem;
},
{
place = (522,122);
type = Stem;
}
);
layerId = "8C7EE80F-D163-4204-B2B9-0AE0B1A3E0A1";
shapes = (
{
closed = 1;
nodes = (
(685,199,o),
(672,193,o),
(656,191,c),
(650,220,l),
(659,221,o),
(666,225,o),
(672,230,c),
(677,235,o),
(680,242,o),
(680,250,c),
(680,254,o),
(678,260,o),
(674,267,c),
(701,279,l),
(707,271,o),
(710,261,o),
(710,250,c),
(710,234,o),
(705,221,o),
(695,210,c)
);
},
{
closed = 1;
nodes = (
(619,303,o),
(610,295,o),
(600,289,c),
(585,314,l),
(591,318,o),
(596,322,o),
(599,327,c),
(602,331,o),
(604,336,o),
(604,342,c),
(604,352,o),
(599,360,o),
(590,367,c),
(612,388,l),
(626,377,o),
(633,363,o),
(633,344,c),
(633,333,o),
(630,322,o),
(624,313,c)
);
},
{
closed = 1;
nodes = (
(529,161,o),
(516,155,o),
(500,153,c),
(494,181,l),
(503,182,o),
(510,185,o),
(516,190,c),
(521,195,o),
(524,202,o),
(524,210,c),
(524,215,o),
(522,221,o),
(518,228,c),
(544,240,l),
(550,232,o),
(553,222,o),
(553,210,c),
(553,195,o),
(548,183,o),
(538,172,c)
);
},
{
closed = 1;
nodes = (
(446,278,l),
(453,281,o),
(459,285,o),
(463,291,c),
(467,297,o),
(469,303,o),
(469,310,c),
(469,313,o),
(468,317,o),
(467,320,c),
(465,323,o),
(463,326,o),
(460,330,c),
(484,346,l),
(488,342,o),
(492,337,o),
(495,330,c),
(497,323,o),
(499,316,o),
(499,309,c),
(499,296,o),
(495,284,o),
(487,274,c),
(480,263,o),
(469,256,o),
(456,252,c)
);
},
{
closed = 1;
nodes = (
(861,245,o),
(855,271,o),
(842,296,c),
(829,320,o),
(810,336,o),
(784,342,c),
(783,357,o),
(778,370,o),
(769,382,c),
(760,394,o),
(749,403,o),
(735,410,c),
(722,417,o),
(706,422,o),
(690,422,c),
(685,422,l),
(679,422,l),
(671,438,o),
(658,450,o),
(641,458,c),
(625,466,o),
(608,471,o),
(591,471,c),
(580,471,o),
(569,469,o),
(560,466,c),
(550,474,o),
(538,480,o),
(524,485,c),
(510,490,o),
(495,492,o),
(480,492,c),
(464,492,o),
(449,490,o),
(435,485,c),
(422,480,o),
(410,474,o),
(399,466,c),
(390,469,o),
(380,471,o),
(369,471,c),
(352,471,o),
(335,466,o),
(318,458,c),
(302,450,o),
(289,438,o),
(280,422,c),
(275,422,l),
(269,422,l),
(254,422,o),
(239,417,o),
(225,410,c),
(210,403,o),
(199,394,o),
(190,382,c),
(182,370,o),
(177,357,o),
(175,342,c),
(150,336,o),
(131,320,o),
(118,296,c),
(105,271,o),
(98,245,o),
(98,216,c),
(59,173,o),
(118,154,o),
(165,143,c),
(212,132,o),
(262,124,o),
(316,117,c),
(370,111,o),
(425,108,o),
(480,108,c),
(535,108,o),
(589,111,o),
(643,117,c),
(697,124,o),
(708,123,o),
(794,143,c),
(881,164,o),
(879,197,o),
(861,216,c)
);
}
);
vertWidth = 537.5;
width = 960;
}
);
note = u1F35C;
unicode = 127836;
},
{
glyphname = u1F35D;
lastChange = "2025-06-02 20:33:18 +0000";
layers = (
{
layerId = "8C7EE80F-D163-4204-B2B9-0AE0B1A3E0A1";
shapes = (
{
closed = 1;
nodes = (
(394,-61,l),
(389,-50,o),
(378,-40,o),
(361,-30,c),
(345,-21,o),
(320,-11,o),
(288,0,c),
(270,6,l),
(212,27,o),
(170,51,o),
(143,77,c),
(117,104,o),
(103,138,o),
(103,178,c),
(103,209,o),
(112,235,o),
(128,255,c),
(145,276,o),
(166,286,o),
(189,286,c),
(209,286,o),
(225,280,o),
(238,269,c),
(252,258,o),
(267,239,o),
(282,212,c),
(294,193,l),
(306,173,o),
(319,158,o),
(333,148,c),
(348,137,o),
(366,131,o),
(389,131,c),
(397,131,o),
(404,132,o),
(410,134,c),
(417,135,o),
(423,137,o),
(428,138,c),
(437,113,l),
(432,111,o),
(424,109,o),
(416,108,c),
(407,106,o),
(399,104,o),
(388,104,c),
(361,104,o),
(338,111,o),
(320,124,c),
(303,137,o),
(285,155,o),
(270,179,c),
(262,193,l),
(245,219,o),
(233,236,o),
(223,245,c),
(214,253,o),
(202,258,o),
(187,258,c),
(172,258,o),
(159,250,o),
(148,236,c),
(137,221,o),
(131,201,o),
(131,178,c),
(131,144,o),
(143,116,o),
(166,94,c),
(189,71,o),
(228,51,o),
(282,31,c),
(302,25,l),
(338,11,o),
(365,-1,o),
(382,-11,c),
(399,-22,o),
(411,-34,o),
(418,-48,c)
);
},
{
closed = 1;
nodes = (
(452,-23,l),
(447,-13,o),
(440,-6,o),
(431,2,c),
(421,10,o),
(408,17,o),
(391,25,c),
(373,32,o),
(349,42,o),
(317,53,c),
(298,60,l),
(269,70,o),
(245,82,o),
(226,94,c),
(208,106,o),
(194,118,o),
(184,134,c),
(174,149,o),
(168,166,o),
(165,185,c),
(192,191,l),
(195,167,o),
(205,148,o),
(223,131,c),
(240,115,o),
(268,100,o),
(307,86,c),
(328,77,l),
(360,67,o),
(385,57,o),
(404,48,c),
(422,39,o),
(437,30,o),
(449,21,c),
(460,13,o),
(470,3,o),
(476,-9,c)
);
},
{
closed = 1;
nodes = (
(506,-1,l),
(519,2,o),
(532,7,o),
(544,13,c),
(556,18,o),
(568,24,o),
(581,29,c),
(593,33,o),
(608,35,o),
(623,35,c),
(632,35,o),
(641,34,o),
(649,32,c),
(657,29,o),
(665,25,o),
(672,18,c),
(656,-4,l),
(651,1,o),
(645,4,o),
(640,6,c),
(636,7,o),
(629,8,o),
(623,8,c),
(603,8,o),
(586,4,o),
(570,-4,c),
(554,-14,o),
(535,-22,o),
(514,-28,c)
);
},
{
closed = 1;
nodes = (
(479,44,l),
(496,49,o),
(511,56,o),
(526,66,c),
(540,74,o),
(556,82,o),
(573,89,c),
(589,97,o),
(609,100,o),
(628,100,c),
(643,100,o),
(655,98,o),
(665,94,c),
(675,88,o),
(684,81,o),
(693,69,c),
(671,52,l),
(666,59,o),
(659,66,o),
(654,69,c),
(648,72,o),
(639,73,o),
(628,73,c),
(611,73,o),
(595,70,o),
(580,63,c),
(566,57,o),
(552,49,o),
(538,41,c),
(524,32,o),
(507,25,o),
(490,19,c)
);
},
{
closed = 1;
nodes = (
(719,103,o),
(707,106,o),
(697,111,c),
(686,116,o),
(676,121,o),
(663,126,c),
(651,131,o),
(637,134,o),
(622,134,c),
(609,134,o),
(596,131,o),
(582,127,c),
(568,123,o),
(553,116,o),
(537,107,c),
(525,131,l),
(544,141,o),
(560,149,o),
(576,154,c),
(592,158,o),
(607,160,o),
(622,160,c),
(639,160,o),
(654,158,o),
(667,153,c),
(680,148,o),
(692,143,o),
(701,138,c),
(711,132,o),
(720,130,o),
(728,130,c),
(735,130,o),
(740,132,o),
(746,137,c),
(750,141,o),
(752,148,o),
(752,156,c),
(752,170,o),
(746,186,o),
(734,204,c),
(721,221,o),
(705,235,o),
(685,246,c),
(699,268,l),
(723,254,o),
(742,237,o),
(758,217,c),
(772,196,o),
(779,176,o),
(779,156,c),
(779,140,o),
(775,128,o),
(765,118,c),
(756,109,o),
(745,103,o),
(730,103,c)
);
},
{
closed = 1;
nodes = (
(448,-87,o),
(461,-85,o),
(472,-80,c),
(483,-75,o),
(495,-69,o),
(507,-62,c),
(519,-55,o),
(535,-50,o),
(556,-44,c),
(575,-39,o),
(602,-37,o),
(635,-37,c),
(651,-37,o),
(664,-34,o),
(673,-28,c),
(683,-23,o),
(692,-15,o),
(698,-6,c),
(706,4,o),
(712,14,o),
(720,24,c),
(726,33,o),
(735,42,o),
(746,49,c),
(765,62,o),
(780,81,o),
(792,103,c),
(805,126,o),
(810,151,o),
(810,178,c),
(810,196,o),
(808,212,o),
(803,228,c),
(797,245,o),
(789,258,o),
(778,267,c),
(706,322,l),
(616,359,l),
(609,369,o),
(598,377,o),
(584,387,c),
(571,395,o),
(549,402,o),
(520,406,c),
(518,408,o),
(515,411,o),
(512,414,c),
(507,416,o),
(503,418,o),
(498,419,c),
(498,431,o),
(497,442,o),
(495,452,c),
(493,460,o),
(492,471,o),
(491,483,c),
(490,495,o),
(489,510,o),
(489,530,c),
(465,514,l),
(465,509,l),
(465,502,l),
(465,482,o),
(468,460,o),
(472,436,c),
(476,413,o),
(478,390,o),
(478,367,c),
(478,352,o),
(477,338,o),
(473,324,c),
(470,310,o),
(462,298,o),
(451,287,c),
(444,279,o),
(435,272,o),
(426,266,c),
(417,260,o),
(411,253,o),
(411,248,c),
(411,242,o),
(417,236,o),
(426,229,c),
(435,223,o),
(446,215,o),
(457,208,c),
(469,199,o),
(478,190,o),
(488,179,c),
(497,167,o),
(501,154,o),
(501,140,c),
(501,122,o),
(497,106,o),
(488,93,c),
(479,80,o),
(466,70,o),
(448,62,c),
(437,86,l),
(450,93,o),
(460,100,o),
(465,108,c),
(472,115,o),
(474,125,o),
(474,137,c),
(474,149,o),
(470,159,o),
(460,169,c),
(451,178,o),
(441,186,o),
(429,194,c),
(418,201,o),
(407,209,o),
(399,218,c),
(389,226,o),
(385,236,o),
(385,248,c),
(385,256,o),
(388,264,o),
(393,270,c),
(399,277,o),
(405,283,o),
(413,289,c),
(420,294,o),
(427,300,o),
(431,305,c),
(438,312,o),
(444,321,o),
(446,331,c),
(449,341,o),
(450,351,o),
(450,365,c),
(450,385,o),
(448,406,o),
(444,430,c),
(440,454,o),
(437,481,o),
(437,511,c),
(413,513,l),
(413,490,o),
(414,472,o),
(416,458,c),
(417,444,o),
(419,431,o),
(421,420,c),
(413,418,o),
(404,415,o),
(396,412,c),
(390,407,o),
(385,404,o),
(381,401,c),
(340,401,o),
(302,395,o),
(265,384,c),
(227,372,o),
(195,356,o),
(166,335,c),
(138,315,o),
(115,290,o),
(98,263,c),
(82,236,o),
(73,207,o),
(73,176,c),
(73,130,o),
(89,91,o),
(119,59,c),
(151,26,o),
(198,-1,o),
(263,-24,c),
(288,-31,o),
(307,-39,o),
(321,-47,c),
(335,-54,o),
(347,-62,o),
(357,-67,c),
(366,-73,o),
(376,-79,o),
(387,-82,c),
(397,-85,o),
(413,-87,o),
(432,-87,c)
);
},
{
closed = 1;
nodes = (
(489,510,l),
(499,511,o),
(503,522,o),
(503,542,c),
(503,558,o),
(500,573,o),
(493,586,c),
(487,599,o),
(480,606,o),
(472,606,c),
(470,606,o),
(469,606,o),
(468,605,c),
(286,559,l),
(282,558,o),
(280,555,o),
(280,552,c),
(280,545,o),
(283,543,o),
(289,544,c),
(435,578,l),
(442,579,o),
(444,577,o),
(444,571,c),
(444,568,o),
(442,566,o),
(436,565,c),
(292,535,l),
(288,533,o),
(285,531,o),
(285,528,c),
(285,523,o),
(290,521,o),
(296,522,c),
(446,545,l),
(449,546,o),
(451,545,o),
(454,544,c),
(455,543,o),
(456,541,o),
(456,539,c),
(456,533,o),
(452,531,o),
(446,530,c),
(298,511,l),
(294,510,o),
(291,507,o),
(291,502,c),
(291,497,o),
(295,494,o),
(303,495,c)
);
},
{
closed = 1;
nodes = (
(517,461,o),
(532,470,o),
(545,486,c),
(558,502,o),
(565,524,o),
(565,550,c),
(565,570,o),
(561,590,o),
(553,606,c),
(545,622,o),
(534,636,o),
(521,646,c),
(509,655,o),
(496,660,o),
(480,660,c),
(462,660,o),
(447,653,o),
(435,640,c),
(423,627,o),
(417,611,o),
(417,592,c),
(444,594,l),
(444,607,o),
(447,618,o),
(454,625,c),
(460,633,o),
(470,636,o),
(480,636,c),
(496,636,o),
(509,628,o),
(520,613,c),
(531,597,o),
(537,576,o),
(537,549,c),
(537,528,o),
(533,513,o),
(526,503,c),
(519,493,o),
(510,487,o),
(499,487,c),
(493,487,o),
(489,490,o),
(486,496,c),
(478,472,l),
(484,464,o),
(491,461,o),
(500,461,c)
);
},
{
closed = 1;
nodes = (
(554,531,l),
(567,541,o),
(578,552,o),
(585,564,c),
(594,576,o),
(600,588,o),
(607,601,c),
(613,614,o),
(621,626,o),
(628,636,c),
(636,646,o),
(643,653,o),
(653,660,c),
(662,665,o),
(676,670,o),
(693,675,c),
(818,705,l),
(836,709,o),
(845,719,o),
(845,733,c),
(845,743,o),
(841,748,o),
(831,748,c),
(824,748,o),
(814,747,o),
(797,744,c),
(781,740,o),
(762,734,o),
(738,726,c),
(712,719,o),
(691,711,o),
(673,704,c),
(657,696,o),
(644,690,o),
(635,685,c),
(621,678,o),
(610,671,o),
(601,665,c),
(594,657,o),
(587,651,o),
(581,646,c),
(575,640,o),
(569,635,o),
(561,632,c),
(555,627,o),
(545,624,o),
(532,621,c)
);
}
);
vertWidth = 537.5;
width = 912;
}
);
note = u1F35D;
unicode = 127837;
},
{
glyphname = u1F35E;
lastChange = "2025-06-02 19:24:12 +0000";
layers = (
{
hints = (
{
horizontal = 1;
place = (42,-15);
type = Stem;
},
{
origin = (0,27);
target = (1,5);
type = Stem;
},
{
origin = (1,17);
target = (0,9);
type = Stem;
},
{
origin = (0,23);
target = (1,8);
type = Stem;
}
);
layerId = "8C7EE80F-D163-4204-B2B9-0AE0B1A3E0A1";
shapes = (
{
closed = 1;
nodes = (
(477,-165,o),
(483,-162,qs),
(537,-133,o),
(643,-70,o),
(737,-7,o),
(774,22,qs),
(791,36,o),
(808,70,o),
(808,91,qs),
(808,266,l),
(844,294,o),
(875,360,o),
(875,397,qs),
(875,454,o),
(814,553,o),
(708,628,o),
(568,670,o),
(489,670,qs),
(424,670,o),
(295,642,o),
(180,594,o),
(92,530,o),
(41,456,o),
(41,418,qs),
(41,388,o),
(71,320,o),
(101,294,q),
(101,65,ls),
(101,42,o),
(120,4,o),
(138,-8,qs),
(211,-56,o),
(348,-131,o),
(420,-161,qs),
(436,-168,o),
(453,-168,qs),
(462,-168,o)
);
},
{
closed = 1;
nodes = (
(196,0,o),
(162,26,qs),
(150,35,o),
(144,54,o),
(144,70,qs),
(144,310,l),
(113,334,o),
(84,385,o),
(84,416,qs),
(84,448,o),
(123,482,o),
(166,482,qs),
(211,482,o),
(309,454,o),
(402,406,o),
(477,347,o),
(521,284,o),
(521,255,qs),
(521,235,o),
(502,201,o),
(468,178,o),
(448,174,q),
(448,-64,ls),
(448,-92,o),
(416,-115,o),
(393,-104,qs),
(316,-67,o)
);
}
);
vertWidth = 537.5;
width = 918;
}
);
note = u1F35E;
unicode = 127838;
},
{
glyphname = u1F35F;
lastChange = "2025-06-02 20:38:32 +0000";
layers = (
{
layerId = "8C7EE80F-D163-4204-B2B9-0AE0B1A3E0A1";
shapes = (
{
closed = 1;
nodes = (
(441,-70,o),
(485,-67,o),
(517,-62,c),
(549,-57,o),
(572,-50,o),
(585,-40,c),
(599,-31,o),
(606,-20,o),
(608,-8,c),
(702,478,l),
(693,483,o),
(682,486,o),
(672,486,c),
(655,486,o),
(636,480,o),
(614,467,c),
(592,455,o),
(569,442,o),
(544,427,c),
(519,412,o),
(493,399,o),
(466,387,c),
(439,375,o),
(411,369,o),
(383,369,c),
(354,369,o),
(326,375,o),
(298,387,c),
(271,399,o),
(245,412,o),
(221,427,c),
(196,442,o),
(174,455,o),
(153,467,c),
(132,480,o),
(113,486,o),
(96,486,c),
(84,486,o),
(74,483,o),
(64,478,c),
(159,-8,l),
(161,-20,o),
(169,-31,o),
(182,-40,c),
(196,-50,o),
(218,-57,o),
(250,-62,c),
(281,-67,o),
(326,-70,o),
(383,-70,c)
);
},
{
closed = 1;
nodes = (
(211,423,l),
(209,434,o),
(208,446,o),
(206,458,c),
(206,459,l),
(205,460,l),
(194,498,o),
(181,537,o),
(166,576,c),
(150,617,o),
(131,659,o),
(111,699,c),
(102,717,l),
(20,681,l),
(29,663,l),
(51,619,o),
(71,573,o),
(87,529,c),
(98,501,o),
(107,472,o),
(116,444,c),
(118,436,l),
(126,432,l),
(127,431,o),
(129,431,o),
(130,430,c),
(145,422,o),
(161,413,o),
(178,403,c),
(216,382,l)
);
},
{
closed = 1;
nodes = (
(300,403,l),
(298,440,o),
(294,477,o),
(290,513,c),
(284,553,o),
(278,594,o),
(270,633,c),
(265,653,l),
(169,628,l),
(174,609,l),
(184,570,o),
(191,531,o),
(197,494,c),
(200,472,o),
(203,450,o),
(205,429,c),
(206,419,l),
(215,414,l),
(233,403,o),
(252,393,o),
(272,384,c),
(303,370,l)
);
},
{
closed = 1;
nodes = (
(420,183,o),
(427,190,o),
(430,199,c),
(431,204,o),
(432,209,o),
(431,216,c),
(431,217,l),
(378,610,l),
(376,634,o),
(374,659,o),
(370,685,c),
(367,715,o),
(362,743,o),
(356,771,c),
(352,791,l),
(253,769,l),
(262,725,l),
(268,698,o),
(272,676,o),
(275,655,c),
(279,632,o),
(282,609,o),
(284,587,c),
(287,565,o),
(289,541,o),
(290,518,c),
(291,515,l),
(292,512,l),
(295,500,o),
(296,429,o),
(297,381,c),
(298,300,o),
(300,263,o),
(304,250,c),
(304,249,o),
(304,249,o),
(304,248,c),
(302,241,o),
(300,233,o),
(304,219,c),
(343,228,l),
(343,222,o),
(339,212,o),
(328,210,c),
(324,209,o),
(321,210,o),
(321,210,c),
(322,210,o),
(326,207,o),
(328,206,c),
(338,200,o),
(347,194,o),
(358,196,c),
(362,197,o),
(367,199,o),
(370,203,c),
(384,190,o),
(396,179,o),
(411,182,c),
(411,182,o),
(411,182,o),
(411,182,c)
);
},
{
closed = 1;
nodes = (
(458,230,o),
(470,239,o),
(477,246,c),
(481,251,l),
(481,258,l),
(482,267,o),
(493,309,o),
(485,371,c),
(470,486,o),
(492,564,o),
(496,687,c),
(497,702,o),
(500,718,o),
(503,735,c),
(504,742,o),
(505,749,o),
(506,757,c),
(509,777,l),
(411,790,l),
(408,771,l),
(405,750,o),
(392,661,o),
(390,639,c),
(389,631,o),
(383,609,o),
(374,452,c),
(370,378,o),
(377,286,o),
(377,282,c),
(375,261,l),
(403,260,l),
(414,241,o),
(427,231,o),
(443,231,c)
);
},
{
closed = 1;
nodes = (
(443,343,l),
(461,346,o),
(478,351,o),
(495,358,c),
(499,360,o),
(504,362,o),
(509,365,c),
(518,369,l),
(520,379,l),
(528,415,o),
(536,450,o),
(546,481,c),
(560,528,o),
(577,573,o),
(595,616,c),
(603,635,l),
(520,673,l),
(511,655,l),
(489,610,o),
(471,560,o),
(455,508,c),
(442,463,o),
(430,416,o),
(420,366,c),
(414,338,l)
);
},
{
closed = 1;
nodes = (
(573,362,l),
(590,368,o),
(606,374,o),
(621,379,c),
(622,380,o),
(624,380,o),
(625,381,c),
(635,384,l),
(638,394,l),
(651,433,o),
(665,472,o),
(681,509,c),
(699,551,o),
(719,592,o),
(741,632,c),
(751,650,l),
(674,693,l),
(665,675,l),
(639,627,o),
(616,578,o),
(597,529,c),
(578,484,o),
(562,436,o),
(547,387,c),
(535,348,l)
);
}
);
vertWidth = 537.5;
width = 758;
}
);
note = u1F35F;
unicode = 127839;
},
{
glyphname = u1F360;
lastChange = "2025-06-02 20:39:55 +0000";
layers = (
{
hints = (
{
horizontal = 1;
place = (-192,78);
type = Stem;
},
{
horizontal = 1;
place = (-16,40);
type = Stem;
},
{
horizontal = 1;
place = (99,23);
type = Stem;
},
{
horizontal = 1;
place = (82,40);
type = Stem;
},
{
place = (41,41);
type = Stem;
},
{
place = (191,43);
type = Stem;
},
{
place = (460,39);
type = Stem;
},
{
place = (582,41);
type = Stem;
},
{
place = (749,60);
type = Stem;
}
);
layerId = "8C7EE80F-D163-4204-B2B9-0AE0B1A3E0A1";
shapes = (
{
closed = 1;
nodes = (
(693,499,o),
(682,497,o),
(670,497,c),
(672,526,l),
(680,526,o),
(687,527,o),
(693,530,c),
(699,532,o),
(705,536,o),
(709,541,c),
(730,521,l),
(723,513,o),
(714,507,o),
(704,503,c)
);
},
{
closed = 1;
nodes = (
(627,382,l),
(635,413,o),
(651,433,o),
(676,442,c),
(686,415,l),
(671,408,o),
(661,395,o),
(656,376,c)
);
},
{
closed = 1;
nodes = (
(604,243,l),
(612,278,o),
(629,302,o),
(654,317,c),
(668,292,l),
(652,282,o),
(640,263,o),
(632,236,c)
);
},
{
closed = 1;
nodes = (
(535,422,o),
(523,416,o),
(512,414,c),
(508,443,l),
(515,444,o),
(523,449,o),
(532,456,c),
(542,463,o),
(549,470,o),
(554,478,c),
(579,462,l),
(572,451,o),
(562,440,o),
(548,431,c)
);
},
{
closed = 1;
nodes = (
(392,16,o),
(362,-2,o),
(322,0,c),
(214,5,o),
(150,75,o),
(150,75,c),
(134,94,o),
(120,117,o),
(110,143,c),
(100,168,o),
(95,195,o),
(95,224,c),
(95,253,o),
(100,277,o),
(110,298,c),
(119,319,o),
(132,336,o),
(148,350,c),
(163,363,o),
(181,373,o),
(199,380,c),
(218,386,o),
(236,389,o),
(254,389,c),
(272,389,o),
(292,382,o),
(314,369,c),
(335,355,o),
(356,336,o),
(376,313,c),
(395,290,o),
(412,264,o),
(424,236,c),
(437,208,o),
(443,179,o),
(443,150,c),
(443,103,o),
(433,67,o),
(412,42,c)
);
},
{
closed = 1;
nodes = (
(800,645,o),
(797,673,o),
(792,696,c),
(791,701,o),
(788,705,o),
(783,708,c),
(778,711,o),
(773,712,o),
(767,712,c),
(761,712,o),
(755,709,o),
(750,702,c),
(746,695,o),
(740,690,o),
(733,685,c),
(724,678,o),
(714,672,o),
(702,666,c),
(691,659,o),
(680,655,o),
(669,652,c),
(651,647,o),
(632,643,o),
(613,642,c),
(593,641,o),
(574,639,o),
(555,637,c),
(536,635,o),
(517,631,o),
(499,624,c),
(465,611,o),
(333,533,o),
(303,516,c),
(272,499,o),
(209,454,o),
(182,435,c),
(160,418,o),
(138,401,o),
(118,383,c),
(98,365,o),
(82,344,o),
(70,319,c),
(58,294,o),
(52,264,o),
(52,229,c),
(52,202,o),
(56,176,o),
(63,149,c),
(71,122,o),
(82,97,o),
(97,74,c),
(197,-54,o),
(339,-40,o),
(339,-40,c),
(365,-38,o),
(391,-29,o),
(418,-13,c),
(445,3,o),
(498,23,o),
(523,48,c),
(549,72,o),
(594,73,o),
(651,139,c),
(716,214,o),
(733,266,o),
(743,289,c),
(760,325,o),
(774,361,o),
(787,397,c),
(799,432,o),
(805,472,o),
(805,516,c),
(805,547,o),
(804,579,o),
(802,612,c)
);
}
);
vertWidth = 537.5;
width = 862;
}
);
note = u1F360;
unicode = 127840;
},
{
glyphname = u1F361;
lastChange = "2025-06-02 19:24:12 +0000";
layers = (
{
hints = (
{
horizontal = 1;
origin = (7,16);
target = (3,16);
type = Stem;
},
{
horizontal = 1;
origin = (1,16);
target = (0,16);
type = Stem;
},
{
horizontal = 1;
origin = (3,7);
target = (7,7);
type = Stem;
},
{
horizontal = 1;
origin = (0,7);
target = (1,7);
type = Stem;
},
{
horizontal = 1;
origin = (5,15);
target = (5,9);
type = Stem;
},
{
horizontal = 1;
origin = (6,15);
target = (6,9);
type = Stem;
},
{
origin = (1,12);
target = (0,2);
type = Stem;
},
{
origin = (6,12);
target = (6,3);
type = Stem;
},
{
origin = (7,12);
target = (3,2);
type = Stem;
},
{
origin = (5,15);
target = (1,3);
type = Stem;
},
{
origin = (2,12);
target = (4,1);
type = Stem;
},
{
origin = (3,11);
target = (7,3);
type = Stem;
},
{
origin = (5,12);
target = (5,3);
type = Stem;
}
);
layerId = "8C7EE80F-D163-4204-B2B9-0AE0B1A3E0A1";
shapes = (
{
closed = 1;
nodes = (
(130,420,o),
(102,465,o),
(102,492,qs),
(102,516,o),
(127,566,o),
(169,608,o),
(219,633,o),
(245,633,qs),
(271,633,o),
(317,605,o),
(345,559,o),
(345,533,qs),
(345,508,o),
(319,458,o),
(278,416,o),
(228,391,o),
(203,391,qs),
(176,391,o)
);
},
{
closed = 1;
nodes = (
(303,380,o),
(356,433,o),
(387,499,o),
(387,534,qs),
(387,571,o),
(348,636,o),
(283,676,o),
(245,676,qs),
(211,676,o),
(145,644,o),
(91,590,o),
(59,525,o),
(59,491,qs),
(59,453,o),
(99,388,o),
(164,348,o),
(203,348,qs),
(237,348,o)
);
},
{
closed = 1;
nodes = (
(677,7,o),
(729,60,o),
(760,125,o),
(760,159,qs),
(760,198,o),
(721,263,o),
(655,302,o),
(616,302,qs),
(582,302,o),
(517,271,o),
(464,218,o),
(433,153,o),
(433,119,qs),
(433,80,o),
(473,15,o),
(538,-24,o),
(577,-24,qs),
(611,-24,o)
);
},
{
closed = 1;
nodes = (
(311,232,o),
(283,278,o),
(283,304,qs),
(283,329,o),
(308,379,o),
(349,421,o),
(400,446,o),
(425,446,qs),
(452,446,o),
(497,418,o),
(525,372,o),
(525,346,qs),
(525,321,o),
(500,271,o),
(459,229,o),
(408,204,o),
(383,204,qs),
(356,204,o)
);
},
{
closed = 1;
nodes = (
(489,102,o),
(489,119,qs),
(489,137,o),
(501,162,o),
(511,162,qs),
(517,162,o),
(527,153,o),
(527,146,qs),
(527,140,o),
(519,127,o),
(519,118,qs),
(519,111,o),
(523,101,o),
(523,96,qs),
(523,82,o),
(509,82,qs),
(500,82,o)
);
},
{
closed = 1;
nodes = (
(359,284,qs),
(359,289,o),
(355,299,o),
(355,306,qs),
(355,315,o),
(363,328,o),
(363,334,qs),
(363,341,o),
(353,350,o),
(347,350,qs),
(337,350,o),
(325,325,o),
(325,307,qs),
(325,290,o),
(336,270,o),
(345,270,qs),
(359,270,o)
);
},
{
closed = 1;
nodes = (
(179,471,qs),
(179,476,o),
(175,486,o),
(175,493,qs),
(175,502,o),
(183,516,o),
(183,521,qs),
(183,528,o),
(173,538,o),
(167,538,qs),
(157,538,o),
(144,512,o),
(144,494,qs),
(144,477,o),
(155,457,o),
(164,457,qs),
(179,457,o)
);
},
{
closed = 1;
nodes = (
(483,193,o),
(536,246,o),
(568,312,o),
(568,346,qs),
(568,384,o),
(529,449,o),
(464,489,o),
(425,489,qs),
(391,489,o),
(325,457,o),
(271,403,o),
(240,338,o),
(240,304,qs),
(240,266,o),
(279,201,o),
(344,161,o),
(383,161,qs),
(417,161,o)
);
},
{
closed = 1;
nodes = (
(73,694,l),
(42,663,l),
(119,569,l),
(168,617,l)
);
},
{
closed = 1;
nodes = (
(700,82,l),
(653,36,l),
(833,-144,l),
(880,-97,l)
);
}
);
vertWidth = 537.5;
width = 914;
}
);
note = u1F361;
unicode = 127841;
},
{
glyphname = u1F362;
lastChange = "2025-06-02 22:02:45 +0000";
layers = (
{
hints = (
{
horizontal = 1;
place = (-145,43);
type = Stem;
},
{
horizontal = 1;
place = (312,37);
type = Stem;
},
{
horizontal = 1;
place = (339,46);
type = Stem;
},
{
horizontal = 1;
place = (173,73);
type = Stem;
},
{
horizontal = 1;
place = (367,88);
type = Stem;
},
{
horizontal = 1;
place = (-171,-6);
type = Stem;
},
{
horizontal = 1;
place = (275,48);
type = Stem;
},
{
horizontal = 1;
place = (458.116,32.04);
type = Stem;
},
{
horizontal = 1;
place = (628,42);
type = Stem;
},
{
horizontal = 1;
place = (537.384,33.13);
type = Stem;
},
{
place = (336,44);
type = Stem;
},
{
place = (820,46);
type = Stem;
},
{
place = (794,36);
type = Stem;
},
{
place = (263,55);
type = Stem;
},
{
place = (348,197);
type = Stem;
},
{
place = (-245,-8);
type = Stem;
},
{
place = (794,8);
type = Stem;
},
{
place = (-228,-3);
type = Stem;
},
{
place = (402,48);
type = Stem;
},
{
place = (55,42);
type = Stem;
}
);
layerId = "8C7EE80F-D163-4204-B2B9-0AE0B1A3E0A1";
shapes = (
{
closed = 1;
nodes = (
(1063,-28,l),
(1037,-12,o),
(1032,0,o),
(1018,25,c),
(995,60,o),
(972,111,o),
(895,162,c),
(819,211,o),
(763,222,o),
(721,227,c),
(693,229,o),
(683,230,o),
(654,249,c),
(627,267,o),
(622,277,o),
(608,303,c),
(589,340,o),
(561,391,o),
(484,440,c),
(410,493,o),
(354,498,o),
(312,504,c),
(284,508,o),
(272,510,o),
(245,528,c),
(218,546,o),
(212,555,o),
(200,582,c),
(179,617,o),
(151,668,o),
(76,720,c),
(-61,519,l),
(-31,502,o),
(-27,490,o),
(-13,465,c),
(6,426,o),
(34,379,o),
(110,327,c),
(183,277,o),
(240,269,o),
(282,264,c),
(312,260,o),
(323,257,o),
(348,240,c),
(377,222,o),
(382,211,o),
(396,185,c),
(416,150,o),
(443,102,o),
(518,50,c),
(594,-2,o),
(651,-9,o),
(691,-16,c),
(719,-20,o),
(732,-18,o),
(760,-38,c),
(785,-56,o),
(791,-66,o),
(805,-92,c),
(824,-128,o),
(852,-177,o),
(929,-230,c)
);
}
);
vertWidth = 537.5;
width = 927;
}
);
note = u1F362;
unicode = 127842;
},
{
glyphname = u1F363;
lastChange = "2025-06-02 19:24:12 +0000";
layers = (
{
hints = (
{
horizontal = 1;
origin = (0,26);
target = (13,26);
type = Stem;
},
{
horizontal = 1;
place = (-104,-500);
type = Stem;
},
{
horizontal = 1;
origin = (13,18);
target = (0,6);
type = Stem;
},
{
horizontal = 1;
origin = (0,19);
target = (13,6);
type = Stem;
},
{
horizontal = 1;
origin = (4,44);
target = (4,19);
type = Stem;
},
{
horizontal = 1;
origin = (1,2);
target = (1,1);
type = Stem;
},
{
horizontal = 1;
origin = (5,5);
target = (13,2);
type = Stem;
},
{
horizontal = 1;
origin = (7,7);
target = (13,2);
type = Stem;
},
{
horizontal = 1;
origin = (8,3);
target = (15,4);
type = Stem;
},
{
horizontal = 1;
origin = (12,0);
target = (13,26);
type = Stem;
},
{
horizontal = 1;
origin = (10,1);
target = (10,2);
type = Stem;
},
{
horizontal = 1;
origin = (9,3);
target = (13,12);
type = Stem;
},
{
horizontal = 1;
origin = (15,0);
target = (15,7);
type = Stem;
},
{
horizontal = 1;
origin = (14,4);
target = (13,6);
type = Stem;
},
{
horizontal = 1;
origin = (14,1);
target = (14,2);
type = Stem;
},
{
horizontal = 1;
origin = (16,1);
target = (16,8);
type = Stem;
},
{
origin = (0,10);
target = (13,14);
type = Stem;
},
{
origin = (13,23);
target = (0,1);
type = Stem;
},
{
place = (-419,-4);
type = Stem;
},
{
place = (-228,-500);
type = Stem;
},
{
place = (-250,-8);
type = Stem;
},
{
origin = (4,12);
target = (4,5);
type = Stem;
},
{
origin = (6,14);
target = (5,2);
type = Stem;
},
{
origin = (4,8);
target = (6,3);
type = Stem;
},
{
place = (-221,-500);
type = Stem;
},
{
origin = (7,3);
target = (7,2);
type = Stem;
},
{
place = (-284,-8);
type = Stem;
}
);
layerId = "8C7EE80F-D163-4204-B2B9-0AE0B1A3E0A1";
shapes = (
{
closed = 1;
nodes = (
(871,303,o),
(871,343,qs),
(871,414,o),
(805,534,o),
(688,623,o),
(531,673,o),
(439,673,qs),
(354,673,o),
(220,620,o),
(142,529,o),
(142,471,qs),
(142,445,o),
(166,414,o),
(194,414,qs),
(206,414,o),
(226,424,o),
(237,431,qs),
(254,443,o),
(305,464,o),
(353,464,qs),
(399,464,o),
(493,427,o),
(584,370,o),
(624,338,qs),
(674,301,o),
(763,249,o),
(798,249,qs),
(832,249,o)
);
},
{
closed = 1;
nodes = (
(176,120,o),
(158,121,q),
(156,94,l),
(163,94,o),
(180,92,o),
(187,89,q),
(193,114,l)
);
},
{
closed = 1;
nodes = (
(315,30,o),
(298,37,o),
(288,39,q),
(282,13,l),
(289,11,o),
(306,7,o),
(312,3,q),
(322,26,l)
);
},
{
closed = 1;
nodes = (
(271,72,o),
(278,75,q),
(266,97,l),
(259,94,o),
(243,86,o),
(235,79,q),
(251,58,l),
(256,63,o)
);
},
{
closed = 1;
nodes = (
(628,-133,o),
(690,-85,o),
(714,-61,qs),
(728,-46,o),
(734,-19,o),
(734,-7,qs),
(734,32,o),
(721,123,o),
(712,160,q),
(671,149,l),
(680,113,o),
(690,29,o),
(690,-4,qs),
(690,-14,o),
(685,-29,o),
(676,-38,qs),
(656,-58,o),
(604,-97,o),
(550,-122,o),
(526,-122,qs),
(501,-122,o),
(420,-94,o),
(326,-47,o),
(233,6,o),
(156,56,o),
(134,74,qs),
(126,81,o),
(117,99,o),
(115,112,qs),
(113,134,o),
(109,181,o),
(108,203,q),
(66,203,l),
(66,179,o),
(71,131,o),
(73,110,qs),
(76,85,o),
(92,55,o),
(108,41,qs),
(130,23,o),
(210,-30,o),
(308,-86,o),
(409,-135,o),
(497,-165,o),
(526,-165,qs),
(560,-165,o)
);
},
{
closed = 1;
nodes = (
(160,211,o),
(126,234,o),
(126,253,qs),
(126,272,o),
(152,302,o),
(178,311,qs),
(187,314,o),
(201,308,o),
(203,301,qs),
(205,294,o),
(195,283,o),
(186,279,qs),
(176,276,o),
(166,266,o),
(166,259,qs),
(166,253,o),
(182,244,o),
(209,237,qs),
(284,217,ls),
(292,215,o),
(300,201,o),
(298,193,qs),
(297,184,o),
(281,176,o),
(272,179,qs),
(206,198,ls)
);
},
{
closed = 1;
nodes = (
(642,18,o),
(701,59,o),
(738,105,o),
(738,126,qs),
(738,151,o),
(688,214,o),
(604,280,o),
(495,336,o),
(376,370,o),
(319,370,qs),
(264,370,o),
(164,349,o),
(86,313,o),
(41,266,o),
(41,239,qs),
(41,211,o),
(85,178,o),
(155,155,o),
(238,131,o),
(276,113,qs),
(309,97,o),
(377,56,o),
(444,17,o),
(508,-8,o),
(536,-8,qs),
(571,-8,o)
);
},
{
closed = 1;
nodes = (
(245,365,o),
(233,416,o),
(231,443,q),
(188,440,l),
(192,403,o),
(213,335,o),
(229,304,q),
(254,341,l)
);
},
{
closed = 1;
nodes = (
(322,425,o),
(304,429,o),
(294,429,q),
(292,402,l),
(299,402,o),
(316,400,o),
(323,397,q),
(329,422,l)
);
},
{
closed = 1;
nodes = (
(414,409,o),
(404,425,o),
(397,432,q),
(377,414,l),
(382,409,o),
(393,395,o),
(396,389,q),
(417,403,l)
);
},
{
closed = 1;
nodes = (
(490,374,o),
(497,375,q),
(490,399,l),
(473,396,o),
(456,387,q),
(468,363,l),
(474,367,o)
);
},
{
closed = 1;
nodes = (
(363,603,o),
(429,641,q),
(412,670,l),
(342,630,o),
(244,527,o),
(216,461,q),
(247,448,l),
(274,511,o)
);
},
{
closed = 1;
nodes = (
(797,266,q),
(756,279,l),
(741,257,o),
(702,219,o),
(677,205,q),
(686,163,l),
(754,201,o)
);
},
{
closed = 1;
nodes = (
(748,303,o),
(693,338,o),
(650,370,qs),
(608,401,o),
(510,461,o),
(405,501,o),
(353,501,qs),
(295,501,o),
(230,476,o),
(213,463,qs),
(208,459,o),
(199,454,o),
(194,454,qs),
(182,454,o),
(182,471,qs),
(182,518,o),
(248,592,o),
(364,635,o),
(439,635,qs),
(523,635,o),
(666,591,o),
(772,511,o),
(831,405,o),
(831,343,qs),
(831,319,o),
(813,289,o),
(795,289,qs),
(784,289,o)
);
},
{
closed = 1;
nodes = (
(553,598,o),
(634,605,q),
(630,639,l),
(455,624,o),
(374,487,q),
(404,469,l),
(439,531,o)
);
},
{
closed = 1;
nodes = (
(810,397,qs),
(818,397,o),
(836,395,o),
(845,395,q),
(849,429,l),
(839,430,o),
(820,431,o),
(811,431,qs),
(704,431,o),
(634,358,q),
(659,334,l),
(719,397,o)
);
},
{
closed = 1;
nodes = (
(687,513,o),
(752,513,qs),
(758,513,o),
(770,512,o),
(776,511,q),
(778,546,l),
(771,547,o),
(759,547,o),
(752,547,qs),
(680,547,o),
(560,493,o),
(516,439,q),
(543,417,l),
(582,465,o)
);
}
);
vertWidth = 537.5;
width = 914;
}
);
note = u1F363;
unicode = 127843;
},
{
glyphname = u1F364;
lastChange = "2025-06-02 19:24:12 +0000";
layers = (
{
hints = (
{
horizontal = 1;
origin = (0,4);
target = (6,133);
type = Stem;
},
{
horizontal = 1;
origin = (0,10);
target = (6,127);
type = Stem;
},
{
horizontal = 1;
origin = (0,81);
target = (6,56);
type = Stem;
},
{
horizontal = 1;
origin = (4,3);
target = (0,118);
type = Stem;
},
{
horizontal = 1;
origin = (6,79);
target = (0,59);
type = Stem;
},
{
horizontal = 1;
origin = (6,91);
target = (0,49);
type = Stem;
},
{
horizontal = 1;
origin = (6,73);
target = (0,64);
type = Stem;
},
{
horizontal = 1;
origin = (6,36);
target = (0,101);
type = Stem;
},
{
horizontal = 1;
origin = (6,112);
target = (6,51);
type = Stem;
},
{
horizontal = 1;
origin = (6,27);
target = (0,107);
type = Stem;
},
{
horizontal = 1;
origin = (0,142);
target = (6,10);
type = Stem;
},
{
horizontal = 1;
origin = (6,130);
target = (2,4);
type = Stem;
},
{
horizontal = 1;
origin = (5,9);
target = (5,4);
type = Stem;
},
{
horizontal = 1;
origin = (8,2);
target = (8,7);
type = Stem;
},
{
origin = (6,124);
target = (0,14);
type = Stem;
},
{
origin = (6,121);
target = (0,20);
type = Stem;
},
{
origin = (6,115);
target = (0,26);
type = Stem;
},
{
origin = (6,109);
target = (0,32);
type = Stem;
},
{
origin = (6,103);
target = (0,37);
type = Stem;
},
{
origin = (6,97);
target = (0,43);
type = Stem;
},
{
origin = (0,62);
target = (6,76);
type = Stem;
},
{
origin = (0,75);
target = (6,70);
type = Stem;
},
{
origin = (0,72);
target = (6,64);
type = Stem;
},
{
origin = (0,77);
target = (6,59);
type = Stem;
},
{
origin = (6,48);
target = (6,36);
type = Stem;
},
{
origin = (4,1);
target = (0,115);
type = Stem;
},
{
place = (-223,-37);
type = Stem;
},
{
place = (-204,-55);
type = Stem;
},
{
origin = (0,139);
target = (6,13);
type = Stem;
},
{
place = (-253,-6);
type = Stem;
},
{
origin = (7,7);
target = (7,1);
type = Stem;
},
{
origin = (8,6);
target = (8,7);
type = Stem;
}
);
layerId = "8C7EE80F-D163-4204-B2B9-0AE0B1A3E0A1";
shapes = (
{
closed = 1;
nodes = (
(621,-142,o),
(629,-132,q),
(638,-137,o),
(662,-142,o),
(674,-142,qs),
(705,-142,o),
(751,-111,o),
(758,-88,q),
(764,-88,o),
(768,-89,o),
(772,-89,qs),
(801,-89,o),
(850,-64,o),
(880,-20,o),
(880,9,qs),
(880,11,o),
(880,14,o),
(879,16,q),
(914,18,o),
(962,73,o),
(962,113,qs),
(962,119,o),
(961,132,o),
(960,138,q),
(976,144,o),
(997,178,o),
(997,202,qs),
(997,219,o),
(987,247,o),
(980,256,q),
(991,267,o),
(1005,298,o),
(1005,317,qs),
(1005,341,o),
(978,380,o),
(957,390,q),
(960,402,o),
(960,414,qs),
(960,443,o),
(928,490,o),
(902,501,q),
(902,505,o),
(903,512,o),
(903,516,qs),
(903,548,o),
(858,595,o),
(826,599,q),
(824,626,o),
(780,664,o),
(749,664,qs),
(734,664,o),
(719,658,q),
(708,670,o),
(672,684,o),
(652,684,qs),
(635,684,o),
(605,673,o),
(594,665,q),
(576,672,o),
(556,672,qs),
(526,672,o),
(485,639,o),
(482,614,q),
(474,616,o),
(467,616,qs),
(443,616,o),
(409,582,o),
(409,558,qs),
(409,545,o),
(414,534,q),
(400,526,o),
(382,494,o),
(382,474,qs),
(382,457,o),
(397,426,o),
(409,418,q),
(405,404,o),
(405,389,qs),
(405,363,o),
(429,316,o),
(470,287,o),
(496,287,qs),
(507,287,o),
(517,290,q),
(527,276,o),
(560,259,o),
(580,259,qs),
(591,259,o),
(610,264,o),
(617,266,q),
(619,255,o),
(644,229,o),
(656,226,q),
(652,219,o),
(642,196,o),
(642,182,qs),
(642,177,o),
(642,169,o),
(643,164,q),
(638,165,o),
(629,166,o),
(624,166,qs),
(601,166,o),
(550,150,o),
(530,132,q),
(522,144,o),
(494,159,o),
(476,159,qs),
(454,159,o),
(436,147,q),
(409,182,o),
(350,237,o),
(318,258,q),
(323,303,o),
(332,393,o),
(332,438,qs),
(332,476,o),
(299,528,o),
(269,528,qs),
(245,528,o),
(226,507,q),
(217,520,o),
(191,536,o),
(174,536,qs),
(141,536,o),
(112,491,o),
(112,465,q),
(106,467,o),
(96,469,o),
(91,469,qs),
(70,469,o),
(39,440,o),
(39,414,qs),
(39,374,o),
(82,299,o),
(146,238,o),
(176,218,q),
(190,128,o),
(282,-14,o),
(360,-70,q),
(360,-92,o),
(393,-122,o),
(416,-122,qs),
(429,-122,o),
(441,-116,q),
(448,-129,o),
(479,-146,o),
(498,-146,qs),
(509,-146,o),
(529,-140,o),
(537,-135,q),
(553,-154,o),
(582,-154,qs),
(597,-154,o)
);
},
{
closed = 1;
nodes = (
(129,393,l),
(192,292,l),
(173,278,l),
(103,376,l)
);
},
{
closed = 1;
nodes = (
(565,-40,o),
(572,-31,q),
(557,-9,l),
(547,-17,o),
(534,-17,qs),
(518,-17,o),
(506,-3,q),
(488,-23,l),
(497,-35,o),
(523,-48,o),
(536,-48,qs),
(546,-48,o)
);
},
{
closed = 1;
nodes = (
(192,468,l),
(233,342,l),
(210,334,l),
(164,458,l)
);
},
{
closed = 1;
nodes = (
(286,452,l),
(286,318,l),
(261,318,l),
(255,451,l)
);
},
{
closed = 1;
nodes = (
(697,16,o),
(702,33,q),
(678,47,l),
(668,26,o),
(648,26,qs),
(638,26,o),
(629,30,q),
(622,5,l),
(636,-3,o),
(652,-3,qs),
(669,-3,o)
);
},
{
closed = 1;
nodes = (
(550,-103,o),
(541,-93,q),
(536,-98,o),
(514,-105,o),
(504,-105,qs),
(490,-105,o),
(462,-91,o),
(452,-77,q),
(447,-80,o),
(434,-83,o),
(428,-83,qs),
(410,-83,o),
(385,-63,o),
(385,-46,qs),
(385,-29,o),
(411,-7,o),
(428,-7,q),
(425,2,o),
(425,9,qs),
(425,19,o),
(434,35,o),
(444,41,q),
(437,48,o),
(429,64,o),
(429,75,qs),
(429,95,o),
(458,116,o),
(476,116,qs),
(488,116,o),
(511,104,o),
(527,88,q),
(538,97,o),
(571,114,o),
(590,119,qs),
(608,125,o),
(652,130,o),
(679,132,q),
(679,149,o),
(680,178,o),
(684,191,qs),
(686,204,o),
(697,228,o),
(707,242,q),
(692,247,o),
(669,262,o),
(662,271,qs),
(654,279,o),
(644,298,o),
(642,308,q),
(631,304,o),
(605,299,o),
(593,299,qs),
(573,299,o),
(545,313,o),
(532,328,q),
(523,325,o),
(512,325,qs),
(480,325,o),
(447,366,o),
(447,395,qs),
(447,412,o),
(452,430,q),
(436,438,o),
(424,462,o),
(424,474,qs),
(424,489,o),
(440,516,o),
(456,523,q),
(453,530,o),
(449,542,o),
(449,548,qs),
(449,564,o),
(470,585,o),
(488,585,qs),
(492,585,o),
(502,584,o),
(507,582,q),
(510,606,o),
(542,634,o),
(563,634,qs),
(573,634,o),
(592,627,o),
(600,621,q),
(612,630,o),
(637,641,o),
(652,641,qs),
(670,641,o),
(699,626,o),
(710,615,q),
(717,619,o),
(734,624,o),
(742,624,qs),
(765,624,o),
(794,594,o),
(794,567,q),
(828,567,o),
(867,529,o),
(867,500,qs),
(867,495,o),
(867,486,o),
(866,483,q),
(892,474,o),
(919,432,o),
(919,404,qs),
(919,397,o),
(918,381,o),
(916,371,q),
(937,364,o),
(963,335,o),
(963,315,qs),
(963,302,o),
(952,273,o),
(936,259,q),
(946,250,o),
(956,224,o),
(956,210,qs),
(956,192,o),
(940,162,o),
(923,156,q),
(924,149,o),
(925,136,o),
(925,130,qs),
(925,93,o),
(884,49,o),
(848,45,q),
(848,2,o),
(800,-52,o),
(762,-52,qs),
(756,-52,o),
(742,-50,o),
(736,-48,q),
(728,-69,o),
(698,-101,o),
(665,-101,qs),
(656,-101,o),
(633,-96,o),
(620,-90,q),
(614,-100,o),
(592,-111,o),
(582,-111,qs),
(571,-111,o)
);
},
{
closed = 1;
nodes = (
(881,270,o),
(881,282,qs),
(881,308,o),
(862,322,q),
(840,304,l),
(845,299,o),
(850,286,o),
(850,280,qs),
(850,273,o),
(844,259,o),
(838,252,q),
(860,237,l),
(870,246,o)
);
},
{
closed = 1;
nodes = (
(831,457,o),
(805,500,o),
(781,500,q),
(774,473,l),
(788,470,o),
(802,448,o),
(802,430,q),
(831,430,l)
);
}
);
vertWidth = 537.5;
width = 1051;
}
);
note = u1F364;
unicode = 127844;
},
{
glyphname = u1F365;
lastChange = "2025-06-02 20:43:45 +0000";
layers = (
{
hints = (
{
horizontal = 1;
place = (-179,43);
type = Stem;
},
{
horizontal = 1;
place = (-121,42);
type = Stem;
},
{
horizontal = 1;
place = (-7,40);
type = Stem;
},
{
horizontal = 1;
place = (131,40);
type = Stem;
},
{
horizontal = 1;
place = (353,40);
type = Stem;
},
{
horizontal = 1;
place = (558,43);
type = Stem;
},
{
horizontal = 1;
place = (616,43);
type = Stem;
},
{
place = (93,42);
type = Stem;
},
{
place = (225,40);
type = Stem;
},
{
place = (360,40);
type = Stem;
},
{
place = (516,40);
type = Stem;
},
{
place = (653,40);
type = Stem;
},
{
place = (783,42);
type = Stem;
},
{
place = (834,43);
type = Stem;
},
{
place = (41,43);
type = Stem;
}
);
layerId = "8C7EE80F-D163-4204-B2B9-0AE0B1A3E0A1";
shapes = (
{
closed = 1;
nodes = (
(412,-83,o),
(368,-75,o),
(328,-58,c),
(287,-40,o),
(251,-16,o),
(218,15,c),
(187,45,o),
(162,81,o),
(144,122,c),
(127,162,o),
(119,207,o),
(119,252,c),
(119,317,o),
(132,376,o),
(159,429,c),
(186,481,o),
(225,526,o),
(276,561,c),
(326,596,o),
(387,620,o),
(456,634,c),
(483,639,l),
(501,534,l),
(474,529,l),
(396,514,o),
(334,481,o),
(291,433,c),
(247,383,o),
(227,325,o),
(227,252,c),
(227,211,o),
(236,172,o),
(258,138,c),
(278,103,o),
(306,76,o),
(342,54,c),
(377,34,o),
(417,25,o),
(460,25,c),
(504,25,o),
(545,34,o),
(580,53,c),
(615,73,o),
(643,100,o),
(664,134,c),
(685,166,o),
(695,203,o),
(695,246,c),
(695,277,o),
(689,302,o),
(674,327,c),
(659,349,o),
(640,367,o),
(616,380,c),
(592,394,o),
(562,402,o),
(531,402,c),
(510,402,o),
(489,397,o),
(470,384,c),
(452,374,o),
(437,359,o),
(425,340,c),
(414,322,o),
(408,304,o),
(408,285,c),
(408,260,o),
(414,243,o),
(426,229,c),
(438,216,o),
(452,211,o),
(469,211,c),
(481,211,o),
(492,213,o),
(499,221,c),
(507,229,o),
(511,242,o),
(511,256,c),
(511,283,l),
(619,283,l),
(619,256,l),
(619,212,o),
(604,176,o),
(577,146,c),
(549,116,o),
(512,103,o),
(469,103,c),
(437,103,o),
(407,111,o),
(381,127,c),
(357,142,o),
(337,165,o),
(322,192,c),
(307,219,o),
(301,250,o),
(301,285,c),
(301,324,o),
(311,362,o),
(333,397,c),
(353,430,o),
(381,457,o),
(417,477,c),
(452,499,o),
(489,510,o),
(531,510,c),
(582,510,o),
(628,498,o),
(669,475,c),
(710,452,o),
(743,421,o),
(767,380,c),
(791,341,o),
(803,296,o),
(803,246,c),
(803,200,o),
(794,155,o),
(776,116,c),
(759,77,o),
(735,42,o),
(702,13,c),
(671,-17,o),
(635,-41,o),
(593,-59,c),
(551,-75,o),
(507,-83,o),
(460,-83,c)
);
}
);
vertWidth = 537.5;
width = 918;
}
);
note = u1F365;
unicode = 127845;
},
{
glyphname = u1F366;
lastChange = "2025-06-02 20:44:44 +0000";
layers = (
{
layerId = "8C7EE80F-D163-4204-B2B9-0AE0B1A3E0A1";
shapes = (
{
closed = 1;
nodes = (
(134,210,o),
(150,218,o),
(170,226,c),
(180,219,o),
(193,215,o),
(207,211,c),
(230,204,o),
(256,201,o),
(282,201,c),
(314,201,o),
(341,205,o),
(364,216,c),
(382,223,o),
(396,233,o),
(406,245,c),
(424,238,o),
(438,229,o),
(448,215,c),
(459,199,o),
(465,183,o),
(465,165,c),
(465,146,o),
(458,128,o),
(443,115,c),
(427,101,o),
(406,90,o),
(378,85,c),
(351,78,o),
(320,74,o),
(282,74,c),
(249,74,o),
(219,78,o),
(191,83,c),
(164,89,o),
(141,97,o),
(125,109,c),
(109,121,o),
(100,136,o),
(100,154,c),
(100,171,o),
(107,187,o),
(123,199,c)
);
},
{
closed = 1;
nodes = (
(480,-56,o),
(457,-68,o),
(423,-76,c),
(390,-85,o),
(343,-90,o),
(282,-90,c),
(222,-90,o),
(175,-85,o),
(141,-76,c),
(109,-68,o),
(84,-56,o),
(71,-41,c),
(57,-26,o),
(50,-10,o),
(50,6,c),
(50,21,o),
(55,35,o),
(65,46,c),
(73,55,o),
(85,63,o),
(99,72,c),
(107,66,o),
(116,61,o),
(125,56,c),
(147,46,o),
(172,39,o),
(199,34,c),
(227,30,o),
(254,27,o),
(282,27,c),
(324,27,o),
(362,32,o),
(397,42,c),
(425,51,o),
(450,62,o),
(468,78,c),
(485,67,o),
(496,56,o),
(502,46,c),
(511,33,o),
(514,20,o),
(514,6,c),
(514,-10,o),
(507,-26,o),
(494,-41,c)
);
},
{
closed = 1;
nodes = (
(309,247,o),
(332,252,o),
(352,260,c),
(372,269,o),
(387,281,o),
(398,299,c),
(409,317,o),
(414,339,o),
(414,365,c),
(414,385,o),
(411,403,o),
(404,422,c),
(397,441,o),
(386,458,o),
(372,474,c),
(358,489,o),
(343,501,o),
(324,510,c),
(307,519,o),
(287,524,o),
(266,524,c),
(245,524,o),
(227,519,o),
(212,510,c),
(195,501,o),
(188,489,o),
(188,475,c),
(188,469,o),
(189,463,o),
(193,457,c),
(196,453,o),
(202,447,o),
(211,442,c),
(211,450,o),
(213,457,o),
(216,462,c),
(220,467,o),
(225,469,o),
(232,469,c),
(239,469,o),
(243,465,o),
(248,461,c),
(252,456,o),
(254,450,o),
(254,444,c),
(254,436,o),
(250,429,o),
(243,423,c),
(236,417,o),
(228,412,o),
(218,406,c),
(208,400,o),
(198,393,o),
(187,386,c),
(177,379,o),
(168,369,o),
(161,360,c),
(154,351,o),
(151,339,o),
(151,325,c),
(151,308,o),
(157,293,o),
(170,281,c),
(181,270,o),
(198,262,o),
(218,256,c),
(239,250,o),
(260,247,o),
(282,247,c)
);
}
);
vertWidth = 537.5;
width = 563;
}
);
note = u1F366;
unicode = 127846;
},
{
glyphname = u1F367;
lastChange = "2025-06-02 19:24:12 +0000";
layers = (
{
hints = (
{
horizontal = 1;
origin = (2,42);
target = (1,14);
type = Stem;
},
{
horizontal = 1;
origin = (1,6);
target = (2,20);
type = Stem;
},
{
horizontal = 1;
origin = (0,16);
target = (8,18);
type = Stem;
},
{
horizontal = 1;
origin = (12,19);
target = (8,13);
type = Stem;
},
{
horizontal = 1;
place = (-113,-10);
type = Stem;
},
{
horizontal = 1;
origin = (8,8);
target = (0,7);
type = Stem;
},
{
horizontal = 1;
origin = (12,23);
target = (6,10);
type = Stem;
},
{
horizontal = 1;
origin = (12,23);
target = (7,10);
type = Stem;
},
{
horizontal = 1;
origin = (12,27);
target = (10,10);
type = Stem;
},
{
horizontal = 1;
origin = (11,4);
target = (13,10);
type = Stem;
},
{
horizontal = 1;
origin = (13,4);
target = (0,7);
type = Stem;
},
{
origin = (0,12);
target = (8,3);
type = Stem;
},
{
place = (-282,-4);
type = Stem;
},
{
origin = (8,13);
target = (0,2);
type = Stem;
},
{
origin = (2,34);
target = (2,27);
type = Stem;
},
{
origin = (2,13);
target = (2,6);
type = Stem;
},
{
origin = (6,7);
target = (7,1);
type = Stem;
}
);
layerId = "8C7EE80F-D163-4204-B2B9-0AE0B1A3E0A1";
shapes = (
{
closed = 1;
nodes = (
(634,154,o),
(693,255,o),
(693,340,qs),
(693,406,o),
(646,518,o),
(560,602,o),
(444,648,o),
(376,648,qs),
(307,648,o),
(191,602,o),
(105,518,o),
(58,406,o),
(58,340,qs),
(58,255,o),
(118,154,o),
(257,111,o),
(376,111,qs),
(494,111,o)
);
},
{
closed = 1;
nodes = (
(248,-131,o),
(192,-100,o),
(187,-82,qs),
(157,22,l),
(199,2,o),
(311,-18,o),
(376,-18,qs),
(440,-18,o),
(552,2,o),
(594,22,q),
(564,-82,ls),
(559,-100,o),
(503,-131,o),
(421,-150,o),
(375,-150,qs),
(330,-150,o)
);
},
{
closed = 1;
nodes = (
(530,-164,o),
(596,-121,o),
(604,-93,qs),
(646,51,l),
(668,66,o),
(696,133,o),
(696,176,qs),
(696,206,o),
(678,246,o),
(660,260,q),
(639,222,l),
(647,213,o),
(653,192,o),
(653,176,qs),
(653,153,o),
(642,112,o),
(634,96,q),
(614,74,o),
(536,40,o),
(433,22,o),
(376,22,qs),
(318,22,o),
(214,40,o),
(137,74,o),
(117,96,q),
(109,112,o),
(98,153,o),
(98,176,qs),
(98,192,o),
(104,213,o),
(112,222,q),
(92,260,l),
(73,246,o),
(55,206,o),
(55,176,qs),
(55,133,o),
(83,66,o),
(105,51,q),
(147,-93,ls),
(155,-120,o),
(221,-164,o),
(319,-190,o),
(376,-190,qs),
(432,-190,o)
);
},
{
closed = 1;
nodes = (
(137,390,o),
(137,396,qs),
(137,403,o),
(147,412,o),
(153,412,qs),
(159,412,o),
(169,402,o),
(169,396,qs),
(169,390,o),
(160,380,o),
(153,380,qs),
(146,380,o)
);
},
{
closed = 1;
nodes = (
(192,352,o),
(192,360,qs),
(192,369,o),
(204,381,o),
(212,381,qs),
(221,381,o),
(233,369,o),
(233,360,qs),
(233,352,o),
(221,340,o),
(212,340,qs),
(204,340,o)
);
},
{
closed = 1;
nodes = (
(177,430,o),
(177,436,qs),
(177,443,o),
(187,452,o),
(193,452,qs),
(199,452,o),
(209,442,o),
(209,436,qs),
(209,430,o),
(200,420,o),
(193,420,qs),
(186,420,o)
);
},
{
closed = 1;
nodes = (
(245,417,o),
(245,428,qs),
(245,438,o),
(260,452,o),
(270,452,qs),
(280,452,o),
(295,438,o),
(295,428,qs),
(295,417,o),
(280,402,o),
(270,402,qs),
(260,402,o)
);
},
{
closed = 1;
nodes = (
(312,400,o),
(312,409,qs),
(312,417,o),
(322,430,o),
(330,430,qs),
(337,430,o),
(348,418,o),
(348,409,qs),
(348,400,o),
(337,388,o),
(330,388,qs),
(322,388,o)
);
},
{
closed = 1;
nodes = (
(188,169,o),
(126,212,o),
(100,285,o),
(100,340,qs),
(100,398,o),
(142,496,o),
(216,568,o),
(316,608,o),
(376,608,qs),
(435,608,o),
(535,568,o),
(609,496,o),
(650,398,o),
(650,340,qs),
(650,285,o),
(624,212,o),
(562,169,o),
(456,151,o),
(376,151,qs),
(295,151,o)
);
},
{
closed = 1;
nodes = (
(215,529,o),
(225,537,qs),
(235,545,o),
(258,546,o),
(264,538,qs),
(270,531,o),
(265,509,o),
(256,501,qs),
(246,493,o),
(222,492,o),
(216,499,qs),
(211,507,o)
);
},
{
closed = 1;
nodes = (
(404,350,o),
(404,358,qs),
(404,366,o),
(416,378,o),
(424,378,qs),
(432,378,o),
(443,367,o),
(443,358,qs),
(443,350,o),
(432,339,o),
(424,339,qs),
(416,339,o)
);
},
{
closed = 1;
nodes = (
(283,493,o),
(283,499,qs),
(283,505,o),
(292,514,o),
(298,514,qs),
(304,514,o),
(313,505,o),
(313,499,qs),
(313,493,o),
(304,484,o),
(298,484,qs),
(292,484,o)
);
},
{
closed = 1;
nodes = (
(489,321,o),
(519,344,o),
(538,349,qs),
(566,357,o),
(616,360,o),
(658,374,o),
(672,398,q),
(648,475,l),
(579,554,l),
(470,617,l),
(376,632,l),
(281,617,l),
(172,554,l),
(103,475,l),
(79,398,l),
(82,389,o),
(108,359,o),
(146,329,o),
(192,309,o),
(215,309,qs),
(233,309,o),
(269,320,o),
(304,331,o),
(320,331,qs),
(340,331,o),
(372,316,o),
(407,302,o),
(429,302,qs),
(454,302,o)
);
},
{
closed = 1;
nodes = (
(319,562,o),
(319,570,qs),
(319,579,o),
(331,591,o),
(340,591,qs),
(348,591,o),
(361,579,o),
(361,570,qs),
(361,562,o),
(348,549,o),
(340,549,qs),
(331,549,o)
);
},
{
closed = 1;
nodes = (
(557,384,o),
(557,393,qs),
(557,402,o),
(570,416,o),
(580,416,qs),
(589,416,o),
(602,403,o),
(602,393,qs),
(602,384,o),
(589,371,o),
(580,371,qs),
(570,371,o)
);
},
{
closed = 1;
nodes = (
(513,454,o),
(513,460,qs),
(513,467,o),
(523,476,o),
(529,476,qs),
(535,476,o),
(545,466,o),
(545,460,qs),
(545,454,o),
(536,444,o),
(529,444,qs),
(522,444,o)
);
},
{
closed = 1;
nodes = (
(784,636,l),
(602,493,l),
(643,440,l),
(825,583,l)
);
}
);
vertWidth = 537.5;
width = 860;
}
);
note = u1F367;
unicode = 127847;
},
{
glyphname = u1F368;
lastChange = "2025-06-02 19:24:12 +0000";
layers = (
{
hints = (
{
horizontal = 1;
origin = (1,28);
target = (1,13);
type = Stem;
},
{
horizontal = 1;
origin = (0,45);
target = (2,7);
type = Stem;
},
{
horizontal = 1;
origin = (4,10);
target = (5,27);
type = Stem;
},
{
horizontal = 1;
origin = (6,8);
target = (6,2);
type = Stem;
},
{
horizontal = 1;
origin = (5,12);
target = (0,28);
type = Stem;
},
{
horizontal = 1;
place = (-117,-2);
type = Stem;
},
{
horizontal = 1;
origin = (12,2);
target = (12,1);
type = Stem;
},
{
horizontal = 1;
origin = (13,7);
target = (13,1);
type = Stem;
},
{
horizontal = 1;
origin = (11,33);
target = (11,14);
type = Stem;
},
{
horizontal = 1;
origin = (0,45);
target = (4,22);
type = Stem;
},
{
horizontal = 1;
origin = (5,6);
target = (0,33);
type = Stem;
},
{
horizontal = 1;
origin = (10,0);
target = (10,1);
type = Stem;
},
{
horizontal = 1;
origin = (11,57);
target = (11,50);
type = Stem;
},
{
horizontal = 1;
origin = (11,1);
target = (11,47);
type = Stem;
},
{
origin = (0,40);
target = (5,2);
type = Stem;
},
{
origin = (11,18);
target = (11,29);
type = Stem;
},
{
place = (-321,-263);
type = Stem;
},
{
place = (-340,-3);
type = Stem;
},
{
origin = (11,37);
target = (11,10);
type = Stem;
},
{
origin = (4,14);
target = (0,3);
type = Stem;
},
{
origin = (5,21);
target = (12,1);
type = Stem;
},
{
place = (-377,-6);
type = Stem;
},
{
origin = (1,24);
target = (11,20);
type = Stem;
},
{
origin = (1,9);
target = (1,2);
type = Stem;
},
{
origin = (5,15);
target = (0,25);
type = Stem;
},
{
place = (-303,-6);
type = Stem;
},
{
origin = (10,3);
target = (10,1);
type = Stem;
},
{
origin = (11,53);
target = (0,25);
type = Stem;
},
{
place = (-331,-7);
type = Stem;
},
{
place = (-346,-7);
type = Stem;
}
);
layerId = "8C7EE80F-D163-4204-B2B9-0AE0B1A3E0A1";
shapes = (
{
closed = 1;
nodes = (
(552,89,o),
(632,159,o),
(673,246,o),
(673,292,qs),
(673,328,o),
(638,397,o),
(579,450,o),
(542,461,q),
(538,423,l),
(571,411,o),
(622,359,o),
(627,328,q),
(627,294,o),
(562,235,o),
(448,197,o),
(374,194,q),
(375,200,o),
(376,205,q),
(394,214,o),
(418,253,o),
(418,276,qs),
(418,298,o),
(406,315,q),
(412,324,o),
(419,346,o),
(419,358,qs),
(419,386,o),
(383,422,o),
(358,422,qs),
(347,422,o),
(336,418,q),
(310,448,o),
(255,474,o),
(223,474,qs),
(182,474,o),
(112,441,o),
(65,384,o),
(58,346,q),
(53,336,o),
(43,308,o),
(43,292,qs),
(43,246,o),
(84,159,o),
(164,89,o),
(282,46,o),
(358,46,qs),
(434,46,o)
);
},
{
closed = 1;
nodes = (
(496,-138,o),
(545,-96,o),
(545,-71,qs),
(545,-39,o),
(461,12,o),
(393,21,q),
(388,-15,l),
(439,-22,o),
(505,-53,o),
(505,-71,qs),
(505,-84,o),
(462,-109,o),
(394,-125,o),
(358,-125,qs),
(322,-125,o),
(254,-109,o),
(211,-84,o),
(211,-71,qs),
(211,-53,o),
(277,-22,o),
(328,-15,q),
(323,21,l),
(255,12,o),
(171,-39,o),
(171,-71,qs),
(171,-96,o),
(220,-138,o),
(305,-162,o),
(358,-162,qs),
(411,-162,o)
);
},
{
closed = 1;
nodes = (
(420,-42,o),
(420,-30,qs),
(420,-22,o),
(411,-13,o),
(401,-2,o),
(401,6,qs),
(401,61,l),
(315,61,l),
(315,6,ls),
(315,-2,o),
(306,-13,o),
(296,-22,o),
(296,-30,qs),
(296,-42,o),
(329,-62,o),
(358,-62,qs),
(386,-62,o)
);
},
{
closed = 1;
nodes = (
(180,338,q),
(175,358,l),
(163,355,o),
(149,347,q),
(160,328,l),
(170,334,o)
);
},
{
closed = 1;
nodes = (
(220,106,o),
(148,148,o),
(100,205,o),
(91,240,qs),
(91,242,o),
(90,246,o),
(89,249,q),
(113,221,o),
(191,180,o),
(296,157,o),
(358,157,qs),
(420,157,o),
(525,180,o),
(604,221,o),
(627,249,q),
(627,246,o),
(626,242,o),
(625,240,qs),
(616,205,o),
(568,148,o),
(496,106,o),
(408,84,o),
(358,84,qs),
(308,84,o)
);
},
{
closed = 1;
nodes = (
(158,234,o),
(94,290,o),
(94,322,qs),
(94,355,o),
(128,407,o),
(187,437,o),
(223,437,qs),
(254,437,o),
(303,409,o),
(324,378,q),
(330,382,o),
(344,387,o),
(350,387,qs),
(364,387,o),
(384,370,o),
(384,355,qs),
(384,344,o),
(377,323,o),
(369,312,q),
(376,306,o),
(381,287,o),
(381,276,qs),
(381,257,o),
(357,228,o),
(344,228,q),
(342,216,o),
(337,201,o),
(334,194,q),
(267,197,o)
);
},
{
closed = 1;
nodes = (
(268,332,o),
(261,332,o),
(257,332,qs),
(254,332,o),
(247,332,o),
(244,331,q),
(246,311,l),
(249,311,o),
(255,311,qs),
(258,311,o),
(265,311,o),
(268,310,q),
(272,331,l)
);
},
{
closed = 1;
nodes = (
(231,392,o),
(217,398,o),
(208,400,q),
(204,378,l),
(216,375,o),
(226,369,q),
(237,389,l)
);
},
{
closed = 1;
nodes = (
(502,306,q),
(486,319,l),
(483,315,o),
(476,303,o),
(473,296,q),
(492,288,l),
(495,298,o)
);
},
{
closed = 1;
nodes = (
(329,548,o),
(334,551,q),
(322,569,l),
(311,562,o),
(301,549,q),
(318,536,l),
(322,540,o)
);
},
{
closed = 1;
nodes = (
(547,333,q),
(547,353,l),
(534,353,o),
(521,348,q),
(527,330,l),
(538,333,o)
);
},
{
closed = 1;
nodes = (
(502,366,o),
(507,388,q),
(531,388,o),
(562,422,o),
(562,441,qs),
(562,455,o),
(542,484,o),
(531,487,q),
(532,494,o),
(533,508,o),
(533,518,qs),
(533,567,o),
(490,638,o),
(417,676,o),
(374,676,qs),
(319,676,o),
(246,631,o),
(210,563,o),
(210,528,qs),
(210,516,o),
(211,507,q),
(198,498,o),
(188,478,o),
(186,468,q),
(233,466,l),
(233,473,o),
(242,488,o),
(251,492,q),
(248,507,o),
(248,520,qs),
(248,554,o),
(280,606,o),
(336,636,o),
(374,636,qs),
(409,636,o),
(462,606,o),
(493,553,o),
(493,518,qs),
(493,504,o),
(491,480,o),
(490,470,q),
(508,464,o),
(519,449,o),
(519,441,qs),
(519,436,o),
(512,425,o),
(496,418,o),
(484,418,q),
(480,400,o),
(459,378,o),
(441,378,qs),
(432,378,o),
(417,382,o),
(410,386,q),
(402,352,l),
(411,346,o),
(432,338,o),
(444,338,qs),
(468,338,o)
);
},
{
closed = 1;
nodes = (
(433,541,o),
(418,542,q),
(416,521,l),
(422,520,o),
(433,518,o),
(438,517,q),
(445,536,l)
);
},
{
closed = 1;
nodes = (
(380,604,o),
(371,604,qs),
(364,604,o),
(356,603,q),
(358,580,l),
(361,581,o),
(366,581,o),
(369,581,qs),
(372,581,o),
(379,581,o),
(382,580,q),
(386,602,l)
);
}
);
vertWidth = 537.5;
width = 716;
}
);
note = u1F368;
unicode = 127848;
},
{
glyphname = u1F369;
lastChange = "2025-06-02 20:40:45 +0000";
layers = (
{
layerId = "8C7EE80F-D163-4204-B2B9-0AE0B1A3E0A1";
shapes = (
{
closed = 1;
nodes = (
(718,8,o),
(620,-19,o),
(486,-19,c),
(352,-19,o),
(253,8,o),
(191,61,c),
(142,103,o),
(112,163,o),
(101,240,c),
(106,234,o),
(111,226,o),
(115,216,c),
(121,203,o),
(128,190,o),
(137,177,c),
(145,165,o),
(158,155,o),
(174,149,c),
(190,143,o),
(205,141,o),
(218,142,c),
(232,143,o),
(246,143,o),
(262,143,c),
(284,143,o),
(304,140,o),
(322,133,c),
(340,127,o),
(357,119,o),
(374,110,c),
(391,102,o),
(409,94,o),
(427,87,c),
(445,81,o),
(464,77,o),
(486,77,c),
(507,77,o),
(527,81,o),
(544,87,c),
(562,94,o),
(579,102,o),
(596,110,c),
(613,119,o),
(631,127,o),
(649,133,c),
(668,140,o),
(688,143,o),
(710,143,c),
(725,143,o),
(740,143,o),
(753,142,c),
(767,141,o),
(782,143,o),
(798,149,c),
(814,155,o),
(826,165,o),
(835,177,c),
(843,190,o),
(851,203,o),
(857,216,c),
(861,225,o),
(866,233,o),
(870,239,c),
(860,162,o),
(830,103,o),
(781,61,c)
);
},
{
closed = 1;
nodes = (
(138,414,l),
(140,400,o),
(142,388,o),
(145,378,c),
(148,368,o),
(153,356,o),
(159,342,c),
(123,331,l),
(118,345,o),
(114,358,o),
(111,370,c),
(107,382,o),
(104,395,o),
(101,409,c)
);
},
{
closed = 1;
nodes = (
(239,400,o),
(245,412,o),
(253,425,c),
(285,407,l),
(277,395,o),
(271,384,o),
(266,374,c),
(261,364,o),
(256,353,o),
(252,340,c),
(218,352,l),
(223,366,o),
(228,379,o),
(234,389,c)
);
},
{
closed = 1;
nodes = (
(295,179,l),
(281,187,o),
(270,195,o),
(260,202,c),
(251,209,o),
(240,217,o),
(229,227,c),
(252,255,l),
(262,246,o),
(272,238,o),
(281,232,c),
(289,226,o),
(300,219,o),
(312,211,c)
);
},
{
closed = 1;
nodes = (
(304,562,l),
(308,549,o),
(312,537,o),
(317,527,c),
(321,517,o),
(327,506,o),
(334,494,c),
(303,474,l),
(295,488,o),
(289,500,o),
(285,510,c),
(280,521,o),
(275,534,o),
(270,548,c)
);
},
{
closed = 1;
nodes = (
(478,222,l),
(463,222,o),
(450,223,o),
(438,225,c),
(427,227,o),
(413,229,o),
(399,231,c),
(405,267,l),
(419,264,o),
(431,262,o),
(442,261,c),
(452,260,o),
(464,259,o),
(478,259,c)
);
},
{
closed = 1;
nodes = (
(602,175,l),
(597,189,o),
(593,202,o),
(591,213,c),
(588,225,o),
(585,238,o),
(583,253,c),
(619,259,l),
(621,245,o),
(623,233,o),
(625,223,c),
(628,213,o),
(631,201,o),
(636,187,c)
);
},
{
closed = 1;
nodes = (
(393,475,o),
(433,482,o),
(486,482,c),
(538,482,o),
(579,475,o),
(607,459,c),
(635,443,o),
(649,424,o),
(649,402,c),
(649,380,o),
(635,362,o),
(607,346,c),
(579,330,o),
(538,322,o),
(486,322,c),
(433,322,o),
(393,330,o),
(365,346,c),
(337,362,o),
(323,380,o),
(323,402,c),
(323,424,o),
(337,443,o),
(365,459,c)
);
},
{
closed = 1;
nodes = (
(512,589,o),
(525,592,o),
(541,595,c),
(546,558,l),
(532,556,o),
(520,554,o),
(510,551,c),
(499,548,o),
(487,543,o),
(474,537,c),
(464,573,l),
(478,579,o),
(490,583,o),
(501,586,c)
);
},
{
closed = 1;
nodes = (
(676,530,o),
(679,542,o),
(682,555,c),
(718,550,l),
(715,536,o),
(712,523,o),
(709,511,c),
(705,500,o),
(701,487,o),
(695,473,c),
(661,483,l),
(666,497,o),
(670,509,o),
(673,519,c)
);
},
{
closed = 1;
nodes = (
(775,313,l),
(771,299,o),
(768,286,o),
(765,274,c),
(762,263,o),
(758,250,o),
(752,236,c),
(718,247,l),
(723,261,o),
(727,273,o),
(730,283,c),
(733,294,o),
(736,306,o),
(738,319,c)
);
},
{
closed = 1;
nodes = (
(782,496,l),
(791,484,o),
(799,474,o),
(806,464,c),
(812,454,o),
(819,443,o),
(827,429,c),
(796,409,l),
(789,422,o),
(783,433,o),
(777,442,c),
(771,452,o),
(763,461,o),
(754,471,c)
);
},
{
closed = 1;
nodes = (
(872,494,o),
(840,530,o),
(799,561,c),
(758,592,o),
(711,616,o),
(657,633,c),
(604,651,o),
(546,659,o),
(486,659,c),
(425,659,o),
(368,651,o),
(314,633,c),
(261,616,o),
(213,592,o),
(172,561,c),
(131,530,o),
(99,494,o),
(76,452,c),
(52,410,o),
(41,365,o),
(41,315,c),
(41,301,o),
(44,291,o),
(50,284,c),
(52,282,o),
(54,280,o),
(56,278,c),
(61,171,o),
(96,89,o),
(161,33,c),
(231,-28,o),
(340,-59,o),
(486,-59,c),
(632,-59,o),
(740,-28,o),
(811,33,c),
(875,89,o),
(910,171,o),
(916,278,c),
(918,280,o),
(920,282,o),
(922,284,c),
(928,291,o),
(931,301,o),
(931,315,c),
(931,365,o),
(919,410,o),
(896,452,c)
);
}
);
width = 950;
}
);
note = u1F369;
unicode = 127849;
},
{
glyphname = u1F36A;
lastChange = "2025-06-02 20:42:18 +0000";
layers = (
{
layerId = "8C7EE80F-D163-4204-B2B9-0AE0B1A3E0A1";
shapes = (
{
closed = 1;
nodes = (
(492,573,o),
(513,576,o),
(527,582,c),
(540,589,o),
(547,601,o),
(547,620,c),
(547,631,o),
(544,641,o),
(538,652,c),
(531,662,o),
(524,673,o),
(515,681,c),
(506,689,o),
(497,692,o),
(488,692,c),
(466,692,o),
(449,684,o),
(434,669,c),
(421,653,o),
(414,635,o),
(414,614,c),
(414,598,o),
(419,587,o),
(426,582,c),
(436,576,o),
(449,573,o),
(467,573,c)
);
},
{
closed = 1;
nodes = (
(840,257,o),
(829,253,o),
(813,253,c),
(789,253,o),
(773,256,o),
(766,261,c),
(760,267,o),
(756,277,o),
(756,292,c),
(756,311,o),
(760,327,o),
(767,342,c),
(774,356,o),
(782,362,o),
(791,362,c),
(802,362,o),
(812,359,o),
(822,351,c),
(833,343,o),
(841,333,o),
(849,321,c),
(856,310,o),
(860,299,o),
(860,287,c),
(860,277,o),
(856,269,o),
(848,263,c)
);
},
{
closed = 1;
nodes = (
(728,465,o),
(724,468,o),
(724,473,c),
(724,477,o),
(727,482,o),
(730,487,c),
(733,492,o),
(737,496,o),
(740,502,c),
(740,503,o),
(740,506,o),
(741,509,c),
(741,512,o),
(742,516,o),
(745,519,c),
(746,521,o),
(748,524,o),
(750,524,c),
(757,524,o),
(764,520,o),
(770,515,c),
(775,510,o),
(780,503,o),
(783,495,c),
(787,487,o),
(788,479,o),
(788,471,c),
(788,461,o),
(787,453,o),
(785,449,c),
(781,444,o),
(779,442,o),
(774,442,c),
(772,442,o),
(770,442,o),
(767,443,c),
(765,444,o),
(762,446,o),
(758,449,c),
(750,453,l),
(745,458,o),
(739,460,o),
(733,462,c)
);
},
{
closed = 1;
nodes = (
(702,55,o),
(694,51,o),
(685,52,c),
(603,62,l),
(582,66,o),
(571,77,o),
(571,99,c),
(571,113,o),
(575,128,o),
(586,144,c),
(595,159,o),
(606,173,o),
(619,184,c),
(632,195,o),
(645,201,o),
(656,201,c),
(667,201,o),
(677,196,o),
(687,186,c),
(696,176,o),
(704,162,o),
(710,145,c),
(715,128,o),
(717,111,o),
(717,92,c),
(717,80,o),
(714,71,o),
(708,63,c)
);
},
{
closed = 1;
nodes = (
(541,402,o),
(525,398,o),
(506,398,c),
(500,398,o),
(492,401,o),
(483,408,c),
(474,415,o),
(465,424,o),
(456,434,c),
(447,444,o),
(440,454,o),
(433,465,c),
(428,475,o),
(424,483,o),
(424,490,c),
(424,502,o),
(426,512,o),
(429,520,c),
(432,528,o),
(437,533,o),
(441,533,c),
(480,533,o),
(509,528,o),
(528,519,c),
(547,509,o),
(558,494,o),
(562,474,c),
(567,441,l),
(570,429,o),
(565,419,o),
(553,411,c)
);
},
{
closed = 1;
nodes = (
(495,228,o),
(487,224,o),
(479,224,c),
(464,224,o),
(451,229,o),
(441,240,c),
(431,250,o),
(425,262,o),
(425,277,c),
(425,282,o),
(429,287,o),
(434,293,c),
(440,299,o),
(447,303,o),
(454,308,c),
(462,312,o),
(469,315,o),
(473,315,c),
(479,315,o),
(484,311,o),
(491,306,c),
(497,300,o),
(503,293,o),
(508,285,c),
(513,277,o),
(515,269,o),
(515,263,c),
(515,256,o),
(512,246,o),
(503,237,c)
);
},
{
closed = 1;
nodes = (
(438,69,o),
(433,65,o),
(429,65,c),
(387,65,o),
(355,70,o),
(333,80,c),
(313,91,o),
(300,107,o),
(296,129,c),
(289,165,l),
(287,178,o),
(292,190,o),
(306,200,c),
(318,209,o),
(336,213,o),
(356,213,c),
(363,213,o),
(372,210,o),
(382,202,c),
(392,194,o),
(403,185,o),
(412,174,c),
(422,162,o),
(430,151,o),
(437,140,c),
(444,128,o),
(447,119,o),
(447,111,c),
(447,98,o),
(446,86,o),
(441,78,c)
);
},
{
closed = 1;
nodes = (
(221,356,o),
(222,360,o),
(223,366,c),
(224,371,o),
(225,375,o),
(226,377,c),
(231,383,o),
(237,389,o),
(245,394,c),
(253,400,o),
(261,404,o),
(270,408,c),
(279,411,o),
(287,414,o),
(293,414,c),
(307,414,o),
(317,407,o),
(325,393,c),
(334,378,o),
(338,361,o),
(338,340,c),
(338,328,o),
(334,318,o),
(328,310,c),
(320,302,o),
(312,298,o),
(303,298,c),
(282,298,o),
(263,303,o),
(246,313,c),
(230,324,o),
(221,336,o),
(221,350,c)
);
},
{
closed = 1;
nodes = (
(201,211,o),
(195,203,o),
(187,196,c),
(179,190,o),
(172,186,o),
(167,186,c),
(165,186,o),
(162,187,o),
(158,190,c),
(156,191,o),
(153,194,o),
(148,199,c),
(147,201,o),
(145,203,o),
(142,205,c),
(133,212,o),
(129,223,o),
(129,236,c),
(129,241,o),
(131,246,o),
(137,253,c),
(141,260,o),
(147,267,o),
(153,273,c),
(159,278,o),
(164,281,o),
(167,281,c),
(179,281,o),
(189,276,o),
(200,266,c),
(212,256,o),
(217,246,o),
(217,237,c),
(217,233,o),
(214,227,o),
(208,219,c)
);
},
{
closed = 1;
nodes = (
(282,541,o),
(288,549,o),
(293,554,c),
(300,561,o),
(305,565,o),
(311,565,c),
(315,565,o),
(321,562,o),
(326,557,c),
(332,551,o),
(337,545,o),
(341,539,c),
(346,532,o),
(348,526,o),
(348,520,c),
(348,503,o),
(329,495,o),
(289,495,c),
(278,495,o),
(272,500,o),
(272,508,c),
(272,515,o),
(274,523,o),
(278,532,c)
);
},
{
closed = 1;
nodes = (
(622,370,o),
(629,376,o),
(637,382,c),
(646,387,o),
(654,390,o),
(661,390,c),
(673,390,o),
(683,384,o),
(691,374,c),
(699,363,o),
(703,352,o),
(703,342,c),
(703,335,o),
(700,328,o),
(695,321,c),
(689,313,o),
(682,308,o),
(675,302,c),
(667,296,o),
(662,294,o),
(656,294,c),
(650,294,o),
(644,296,o),
(636,302,c),
(628,308,o),
(621,313,o),
(615,320,c),
(609,327,o),
(606,333,o),
(606,337,c),
(606,345,o),
(609,354,o),
(615,362,c)
);
},
{
closed = 1;
nodes = (
(874,431,o),
(849,467,o),
(817,500,c),
(786,533,o),
(749,561,o),
(708,585,c),
(667,609,o),
(625,627,o),
(580,641,c),
(536,653,o),
(491,660,o),
(446,660,c),
(404,660,o),
(364,653,o),
(328,641,c),
(290,627,o),
(257,608,o),
(228,584,c),
(197,559,o),
(172,529,o),
(151,495,c),
(154,496,o),
(156,496,o),
(158,496,c),
(164,496,l),
(178,496,o),
(125,442,o),
(105,424,c),
(84,406,o),
(68,382,o),
(57,352,c),
(46,321,o),
(40,288,o),
(40,251,c),
(40,213,o),
(48,182,o),
(63,153,c),
(78,125,o),
(98,100,o),
(126,78,c),
(154,57,o),
(187,36,o),
(224,19,c),
(246,-6,o),
(268,-26,o),
(293,-43,c),
(317,-60,o),
(343,-74,o),
(371,-82,c),
(397,-90,o),
(424,-95,o),
(449,-95,c),
(467,-95,o),
(486,-92,o),
(503,-88,c),
(521,-84,o),
(538,-78,o),
(554,-70,c),
(515,-55,o),
(532,-9,o),
(558,-21,c),
(583,-33,o),
(611,-39,o),
(639,-39,c),
(674,-39,o),
(707,-31,o),
(738,-16,c),
(770,-1,o),
(797,20,o),
(822,47,c),
(847,75,o),
(869,107,o),
(886,144,c),
(903,182,o),
(914,223,o),
(920,267,c),
(920,310,o),
(911,351,o),
(893,391,c)
);
}
);
width = 950;
}
);
note = u1F36A;
unicode = 127850;
},
{
glyphname = u1F36B;
lastChange = "2025-06-02 20:42:53 +0000";
layers = (
{
hints = (
{
horizontal = 1;
place = (-99,-10);
type = Stem;
},
{
place = (-221,-209);
type = Stem;
},
{
place = (-417,-13);
type = Stem;
}
);
layerId = "8C7EE80F-D163-4204-B2B9-0AE0B1A3E0A1";
shapes = (
{
closed = 1;
nodes = (
(511,370,l),
(498,270,l),
(351,238,l),
(317,208,l),
(300,244,l),
(308,271,l),
(352,288,l),
(395,379,l),
(462,410,l),
(480,449,l),
(534,472,l),
(564,511,l),
(588,514,l),
(611,489,l),
(624,421,l)
);
},
{
closed = 1;
nodes = (
(214,395,l),
(242,422,l),
(263,400,l),
(311,448,l),
(335,424,l),
(260,349,l)
);
},
{
closed = 1;
nodes = (
(120,488,l),
(148,515,l),
(169,493,l),
(217,542,l),
(241,518,l),
(166,443,l)
);
},
{
closed = 1;
nodes = (
(276,644,l),
(298,622,l),
(346,670,l),
(370,646,l),
(295,572,l),
(249,617,l)
);
},
{
closed = 1;
nodes = (
(440,577,l),
(463,553,l),
(389,478,l),
(343,524,l),
(370,550,l),
(391,528,l)
);
},
{
closed = 1;
nodes = (
(659,444,l),
(646,509,l),
(602,556,l),
(554,549,l),
(335,768,l),
(330,773,o),
(324,776,o),
(318,776,c),
(312,776,o),
(306,773,o),
(300,768,c),
(35,501,l),
(30,496,o),
(27,491,o),
(27,484,c),
(27,477,o),
(30,471,o),
(35,466,c),
(254,248,l),
(303,145,l),
(332,170,l),
(555,-53,l),
(561,-59,o),
(567,-62,o),
(573,-62,c),
(579,-62,o),
(585,-59,o),
(590,-53,c),
(854,212,l),
(860,218,o),
(862,224,o),
(862,231,c),
(862,238,o),
(859,244,o),
(853,249,c)
);
}
);
vertWidth = 537.5;
width = 905;
}
);
note = u1F36B;
unicode = 127851;
},
{
glyphname = u1F36C;
lastChange = "2025-06-02 20:43:13 +0000";
layers = (
{
layerId = "8C7EE80F-D163-4204-B2B9-0AE0B1A3E0A1";
shapes = (
{
closed = 1;
nodes = (
(845,225,o),
(820,236,o),
(795,247,c),
(770,257,o),
(745,262,o),
(721,262,c),
(706,262,o),
(693,260,o),
(680,256,c),
(690,281,o),
(695,307,o),
(695,336,c),
(695,375,o),
(685,410,o),
(666,442,c),
(647,474,o),
(621,500,o),
(590,519,c),
(558,538,o),
(522,547,o),
(483,547,c),
(445,547,o),
(410,538,o),
(378,519,c),
(379,526,o),
(380,534,o),
(380,541,c),
(380,563,o),
(376,582,o),
(368,599,c),
(359,616,o),
(349,632,o),
(336,647,c),
(323,662,o),
(309,678,o),
(294,695,c),
(279,712,o),
(264,731,o),
(251,754,c),
(244,742,o),
(238,732,o),
(233,723,c),
(228,714,o),
(222,707,o),
(216,700,c),
(210,693,o),
(203,687,o),
(195,682,c),
(188,677,o),
(179,674,o),
(169,671,c),
(158,668,o),
(148,664,o),
(138,660,c),
(127,656,o),
(118,651,o),
(111,644,c),
(104,637,o),
(99,629,o),
(98,620,c),
(96,610,o),
(95,600,o),
(94,590,c),
(93,580,o),
(90,571,o),
(86,563,c),
(82,554,o),
(75,543,o),
(64,530,c),
(53,517,o),
(40,504,o),
(27,490,c),
(49,482,o),
(72,472,o),
(97,459,c),
(121,446,o),
(146,434,o),
(171,423,c),
(196,412,o),
(221,407,o),
(245,407,c),
(260,407,o),
(273,409,o),
(286,413,c),
(277,389,o),
(272,363,o),
(272,336,c),
(272,297,o),
(282,261,o),
(301,229,c),
(320,197,o),
(345,172,o),
(377,153,c),
(409,134,o),
(444,124,o),
(483,124,c),
(522,124,o),
(557,133,o),
(588,152,c),
(587,144,o),
(586,136,o),
(586,128,c),
(586,107,o),
(590,88,o),
(599,71,c),
(607,54,o),
(618,38,o),
(631,23,c),
(644,8,o),
(658,-8,o),
(673,-25,c),
(688,-42,o),
(702,-61,o),
(715,-84,c),
(722,-73,o),
(728,-62,o),
(733,-53,c),
(738,-44,o),
(744,-37,o),
(751,-30,c),
(757,-23,o),
(764,-18,o),
(771,-13,c),
(779,-8,o),
(788,-3,o),
(798,0,c),
(808,3,o),
(818,6,o),
(829,10,c),
(839,13,o),
(848,19,o),
(855,26,c),
(862,33,o),
(867,41,o),
(869,51,c),
(870,60,o),
(872,70,o),
(873,80,c),
(874,90,o),
(876,99,o),
(880,107,c),
(885,116,o),
(892,126,o),
(903,139,c),
(914,152,o),
(926,165,o),
(939,180,c),
(917,188,o),
(894,199,o),
(870,212,c)
);
}
);
width = 950;
}
);
note = u1F36C;
unicode = 127852;
},
{
glyphname = u1F36D;
lastChange = "2025-06-02 20:45:11 +0000";
layers = (
{
hints = (
{
horizontal = 1;
place = (36,39);
type = Stem;
},
{
horizontal = 1;
place = (129,41);
type = Stem;
},
{
horizontal = 1;
place = (222,37);
type = Stem;
},
{
horizontal = 1;
place = (309,71);
type = Stem;
},
{
horizontal = 1;
place = (426,36);
type = Stem;
},
{
horizontal = 1;
place = (535,40);
type = Stem;
},
{
horizontal = 1;
place = (643,43);
type = Stem;
},
{
place = (48,43);
type = Stem;
},
{
place = (157,41);
type = Stem;
},
{
place = (254,37);
type = Stem;
},
{
place = (417,35);
type = Stem;
},
{
place = (518,40);
type = Stem;
},
{
place = (630,68);
type = Stem;
}
);
layerId = "8C7EE80F-D163-4204-B2B9-0AE0B1A3E0A1";
shapes = (
{
closed = 1;
nodes = (
(902,-103,l),
(603,191,l),
(612,204,o),
(619,219,o),
(626,234,c),
(628,239,o),
(630,246,o),
(632,251,c),
(634,256,o),
(636,263,o),
(637,268,c),
(634,261,o),
(629,252,o),
(622,244,c),
(605,219,o),
(583,197,o),
(557,179,c),
(531,159,o),
(502,144,o),
(470,134,c),
(437,123,o),
(402,118,o),
(363,118,c),
(317,118,o),
(276,128,o),
(241,149,c),
(204,169,o),
(177,198,o),
(155,234,c),
(135,269,o),
(124,310,o),
(124,356,c),
(124,389,o),
(131,420,o),
(143,448,c),
(154,477,o),
(170,502,o),
(191,524,c),
(212,545,o),
(235,563,o),
(263,575,c),
(290,587,o),
(320,593,o),
(350,593,c),
(389,593,o),
(423,585,o),
(453,567,c),
(484,549,o),
(508,525,o),
(525,495,c),
(544,465,o),
(552,432,o),
(552,395,c),
(552,362,o),
(545,331,o),
(529,304,c),
(513,278,o),
(490,256,o),
(464,240,c),
(436,224,o),
(406,217,o),
(372,217,c),
(345,217,o),
(321,222,o),
(299,234,c),
(277,246,o),
(260,261,o),
(247,281,c),
(234,301,o),
(228,323,o),
(228,347,c),
(228,372,o),
(233,393,o),
(243,412,c),
(253,430,o),
(267,445,o),
(285,457,c),
(304,468,o),
(325,473,o),
(348,473,c),
(374,473,o),
(395,464,o),
(412,448,c),
(430,432,o),
(439,412,o),
(439,389,c),
(439,366,o),
(433,348,o),
(419,333,c),
(406,317,o),
(389,310,o),
(370,310,c),
(356,310,o),
(344,314,o),
(336,322,c),
(327,329,o),
(323,338,o),
(323,348,c),
(323,359,o),
(327,367,o),
(334,375,c),
(342,382,o),
(350,386,o),
(361,386,c),
(370,386,o),
(376,383,o),
(381,380,c),
(388,376,o),
(392,371,o),
(395,364,c),
(400,372,o),
(402,379,o),
(402,388,c),
(402,400,o),
(396,411,o),
(386,421,c),
(375,430,o),
(363,435,o),
(348,435,c),
(323,435,o),
(302,426,o),
(289,409,c),
(275,392,o),
(267,372,o),
(267,347,c),
(267,320,o),
(278,299,o),
(298,282,c),
(320,265,o),
(344,256,o),
(372,256,c),
(397,256,o),
(421,263,o),
(441,276,c),
(462,287,o),
(478,304,o),
(491,326,c),
(503,347,o),
(509,371,o),
(509,395,c),
(509,424,o),
(503,451,o),
(489,474,c),
(475,497,o),
(456,517,o),
(432,531,c),
(408,544,o),
(380,551,o),
(350,551,c),
(317,551,o),
(287,542,o),
(259,525,c),
(231,507,o),
(210,484,o),
(193,455,c),
(177,425,o),
(168,392,o),
(168,356,c),
(168,318,o),
(177,285,o),
(194,256,c),
(210,227,o),
(233,203,o),
(263,187,c),
(292,170,o),
(326,162,o),
(363,162,c),
(416,162,o),
(461,172,o),
(501,194,c),
(541,215,o),
(572,245,o),
(595,282,c),
(618,319,o),
(629,361,o),
(629,409,c),
(629,447,o),
(622,483,o),
(608,513,c),
(594,544,o),
(573,572,o),
(549,595,c),
(523,617,o),
(494,635,o),
(461,648,c),
(428,660,o),
(393,666,o),
(355,666,c),
(313,666,o),
(274,659,o),
(237,644,c),
(201,628,o),
(169,606,o),
(141,579,c),
(114,551,o),
(92,519,o),
(77,483,c),
(61,446,o),
(54,407,o),
(54,364,c),
(54,323,o),
(61,284,o),
(77,247,c),
(92,210,o),
(114,178,o),
(141,150,c),
(169,122,o),
(201,101,o),
(237,85,c),
(274,69,o),
(313,60,o),
(355,60,c),
(386,60,o),
(414,64,o),
(442,73,c),
(470,80,o),
(496,92,o),
(519,108,c),
(528,112,o),
(535,119,o),
(542,124,c),
(839,-167,l)
);
}
);
vertWidth = 537.5;
width = 934;
}
);
note = u1F36D;
unicode = 127853;
},
{
glyphname = u1F36E;
lastChange = "2025-06-02 19:24:12 +0000";
layers = (
{
hints = (
{
horizontal = 1;
origin = (0,34);
target = (0,16);
type = Stem;
},
{
horizontal = 1;
origin = (2,24);
target = (2,11);
type = Stem;
},
{
horizontal = 1;
place = (-151,-16);
type = Stem;
},
{
origin = (0,29);
target = (0,20);
type = Stem;
},
{
origin = (2,17);
target = (3,13);
type = Stem;
},
{
origin = (4,17);
target = (3,3);
type = Stem;
},
{
origin = (0,12);
target = (0,3);
type = Stem;
}
);
layerId = "8C7EE80F-D163-4204-B2B9-0AE0B1A3E0A1";
shapes = (
{
closed = 1;
nodes = (
(792,-84,o),
(916,2,o),
(983,121,o),
(983,194,qs),
(983,264,o),
(926,374,o),
(835,448,o),
(782,464,q),
(769,424,l),
(821,408,o),
(897,341,o),
(940,248,o),
(940,194,qs),
(940,109,o),
(834,-18,o),
(643,-88,o),
(515,-88,qs),
(387,-88,o),
(196,-18,o),
(90,109,o),
(90,194,qs),
(90,248,o),
(133,341,o),
(209,408,o),
(261,424,q),
(248,464,l),
(195,448,o),
(104,374,o),
(47,264,o),
(47,194,qs),
(47,121,o),
(114,2,o),
(238,-84,o),
(410,-130,o),
(515,-130,qs),
(620,-130,o)
);
},
{
closed = 1;
nodes = (
(374,174,o),
(374,184,qs),
(374,196,o),
(361,201,qs),
(334,213,o),
(318,232,o),
(321,245,qs),
(336,319,ls),
(338,330,o),
(325,342,o),
(317,342,qs),
(311,342,o),
(301,334,o),
(299,327,qs),
(284,252,ls),
(278,224,o),
(308,186,o),
(347,167,qs),
(359,162,o)
);
},
{
closed = 1;
nodes = (
(725,74,o),
(811,130,o),
(850,198,o),
(843,234,qs),
(787,520,l),
(745,512,l),
(801,226,ls),
(806,198,o),
(767,147,o),
(687,106,o),
(579,82,o),
(515,82,qs),
(451,82,o),
(343,106,o),
(263,147,o),
(224,198,o),
(229,226,qs),
(285,512,l),
(243,520,l),
(187,234,ls),
(180,198,o),
(219,130,o),
(305,74,o),
(433,42,o),
(515,42,qs),
(597,42,o)
);
},
{
closed = 1;
nodes = (
(671,406,o),
(747,445,o),
(789,496,o),
(789,526,qs),
(789,555,o),
(747,606,o),
(671,645,o),
(572,668,o),
(515,668,qs),
(459,668,o),
(359,645,o),
(283,606,o),
(241,555,o),
(241,526,qs),
(241,496,o),
(283,445,o),
(359,406,o),
(459,385,o),
(515,385,qs),
(572,385,o)
);
},
{
closed = 1;
nodes = (
(629,461,o),
(629,469,qs),
(629,483,o),
(646,489,qs),
(667,496,o),
(688,517,o),
(688,528,qs),
(688,538,o),
(672,559,o),
(658,568,qs),
(644,576,o),
(644,588,qs),
(644,599,o),
(664,608,o),
(676,600,qs),
(699,586,o),
(726,550,o),
(726,528,qs),
(726,503,o),
(689,464,o),
(656,453,qs),
(644,450,o)
);
}
);
vertWidth = 537.5;
width = 1030;
}
);
note = u1F36E;
unicode = 127854;
},
{
glyphname = u1F36F;
lastChange = "2025-06-02 19:24:12 +0000";
layers = (
{
hints = (
{
horizontal = 1;
origin = (2,38);
target = (2,18);
type = Stem;
},
{
horizontal = 1;
origin = (1,16);
target = (1,7);
type = Stem;
},
{
horizontal = 1;
origin = (0,64);
target = (0,29);
type = Stem;
},
{
horizontal = 1;
place = (-106,-3);
type = Stem;
},
{
horizontal = 1;
origin = (0,42);
target = (0,48);
type = Stem;
},
{
horizontal = 1;
origin = (3,30);
target = (3,5);
type = Stem;
},
{
horizontal = 1;
origin = (3,20);
target = (3,14);
type = Stem;
},
{
origin = (2,27);
target = (2,26);
type = Stem;
},
{
origin = (3,34);
target = (3,1);
type = Stem;
},
{
origin = (2,10);
target = (2,9);
type = Stem;
},
{
origin = (0,52);
target = (0,39);
type = Stem;
},
{
origin = (3,10);
target = (3,24);
type = Stem;
}
);
layerId = "8C7EE80F-D163-4204-B2B9-0AE0B1A3E0A1";
shapes = (
{
closed = 1;
nodes = (
(608,150,o),
(654,174,q),
(660,193,o),
(670,232,o),
(677,270,o),
(677,288,qs),
(677,329,o),
(637,414,o),
(606,443,q),
(636,458,o),
(636,482,qs),
(636,502,o),
(595,535,o),
(557,546,q),
(468,443,l),
(441,436,o),
(407,436,qs),
(366,436,o),
(314,451,o),
(293,451,qs),
(272,451,o),
(254,426,o),
(254,402,qs),
(254,380,o),
(263,322,o),
(273,262,o),
(273,237,qs),
(273,210,o),
(251,180,o),
(233,180,qs),
(213,180,o),
(189,228,o),
(189,264,qs),
(189,292,o),
(201,343,o),
(201,356,qs),
(201,382,o),
(189,411,o),
(178,431,o),
(178,444,qs),
(178,482,o),
(270,520,o),
(361,520,qs),
(379,520,o),
(414,519,o),
(431,518,q),
(486,562,l),
(431,570,o),
(362,570,qs),
(281,570,o),
(157,548,o),
(87,508,o),
(87,482,qs),
(87,458,o),
(118,443,q),
(86,414,o),
(47,329,o),
(47,288,qs),
(47,270,o),
(53,232,o),
(64,193,o),
(69,174,q),
(115,150,o),
(262,120,o),
(362,120,qs),
(462,120,o)
);
},
{
closed = 1;
nodes = (
(562,20,o),
(601,40,q),
(609,57,o),
(625,93,o),
(633,112,q),
(577,91,o),
(440,68,o),
(362,68,qs),
(284,68,o),
(147,91,o),
(91,112,q),
(98,93,o),
(114,57,o),
(123,41,q),
(162,20,o),
(282,-6,o),
(362,-6,qs),
(442,-6,o)
);
},
{
closed = 1;
nodes = (
(515,-96,o),
(532,-79,qs),
(537,-74,o),
(551,-54,o),
(561,-39,qs),
(580,-8,o),
(621,71,o),
(655,160,o),
(677,248,o),
(677,288,q),
(633,288,l),
(633,246,o),
(608,151,o),
(568,59,o),
(526,-18,o),
(509,-43,q),
(476,-50,o),
(401,-58,o),
(362,-58,qs),
(323,-58,o),
(248,-50,o),
(214,-43,q),
(198,-18,o),
(155,59,o),
(116,151,o),
(90,246,o),
(90,288,q),
(47,288,l),
(47,248,o),
(69,160,o),
(103,72,o),
(144,-8,o),
(163,-39,qs),
(172,-54,o),
(187,-74,o),
(192,-79,qs),
(209,-96,o),
(300,-118,o),
(362,-118,qs),
(424,-118,o)
);
},
{
closed = 1;
nodes = (
(560,621,o),
(560,630,qs),
(560,642,o),
(571,668,o),
(588,686,o),
(597,686,qs),
(604,686,o),
(616,674,qs),
(645,645,ls),
(657,633,o),
(657,625,qs),
(657,617,o),
(639,600,o),
(612,589,o),
(599,589,qs),
(596,589,o),
(589,590,o),
(586,590,q),
(422,427,l),
(465,420,l),
(599,555,l),
(621,555,o),
(663,573,o),
(691,603,o),
(691,622,qs),
(691,647,o),
(668,669,qs),
(639,697,ls),
(627,708,o),
(604,720,o),
(593,720,qs),
(574,720,o),
(544,692,o),
(526,649,o),
(526,627,q),
(321,421,l),
(342,394,l),
(562,614,l)
);
}
);
vertWidth = 537.5;
width = 739;
}
);
note = u1F36F;
unicode = 127855;
},
{
glyphname = u1F370;
lastChange = "2025-06-02 20:45:30 +0000";
layers = (
{
layerId = "8C7EE80F-D163-4204-B2B9-0AE0B1A3E0A1";
shapes = (
{
closed = 1;
nodes = (
(801,430,o),
(795,425,o),
(789,421,c),
(763,436,o),
(735,452,o),
(705,468,c),
(670,486,o),
(635,504,o),
(603,520,c),
(604,527,o),
(604,534,o),
(604,542,c),
(604,561,o),
(601,581,o),
(595,600,c),
(607,599,o),
(616,595,o),
(625,588,c),
(635,580,o),
(641,570,o),
(644,559,c),
(649,560,o),
(653,560,o),
(658,561,c),
(663,562,o),
(667,562,o),
(672,562,c),
(688,562,o),
(701,557,o),
(712,546,c),
(723,535,o),
(729,521,o),
(731,502,c),
(738,505,o),
(745,507,o),
(751,508,c),
(756,509,o),
(762,509,o),
(767,509,c),
(780,509,o),
(791,505,o),
(800,496,c),
(809,487,o),
(814,475,o),
(814,462,c),
(814,453,o),
(811,444,o),
(806,436,c)
);
},
{
closed = 1;
nodes = (
(557,361,o),
(510,350,o),
(461,340,c),
(412,330,o),
(364,321,o),
(316,314,c),
(268,307,o),
(222,300,o),
(178,295,c),
(209,338,o),
(243,381,o),
(278,423,c),
(303,453,o),
(329,483,o),
(355,511,c),
(359,490,o),
(368,473,o),
(383,462,c),
(404,445,o),
(435,437,o),
(478,437,c),
(521,437,o),
(552,445,o),
(573,462,c),
(581,468,o),
(587,475,o),
(592,484,c),
(612,474,o),
(632,464,o),
(653,454,c),
(680,439,o),
(706,425,o),
(730,411,c),
(691,398,o),
(649,385,o),
(603,373,c)
);
},
{
closed = 1;
nodes = (
(464,-39,o),
(403,-49,o),
(344,-56,c),
(284,-64,o),
(223,-70,o),
(160,-73,c),
(158,-23,l),
(251,-17,o),
(344,-7,o),
(435,8,c),
(529,22,o),
(620,43,o),
(710,69,c),
(711,18,l),
(647,0,o),
(584,-14,o),
(525,-26,c)
);
},
{
closed = 1;
nodes = (
(152,84,l),
(213,89,o),
(274,97,o),
(335,106,c),
(344,107,o),
(353,109,o),
(362,110,c),
(369,99,o),
(378,89,o),
(391,83,c),
(406,74,o),
(423,70,o),
(440,70,c),
(462,70,o),
(482,77,o),
(500,91,c),
(516,102,o),
(524,119,o),
(527,141,c),
(532,142,o),
(538,143,o),
(544,145,c),
(601,157,o),
(655,171,o),
(706,186,c),
(708,114,l),
(705,120,o),
(701,125,o),
(694,129,c),
(682,136,o),
(668,140,o),
(652,140,c),
(637,140,o),
(623,137,o),
(608,131,c),
(593,124,o),
(580,114,o),
(570,101,c),
(563,92,o),
(559,81,o),
(556,68,c),
(516,59,o),
(474,51,o),
(432,45,c),
(407,40,o),
(382,37,o),
(357,33,c),
(350,42,o),
(343,49,o),
(334,55,c),
(317,66,o),
(299,72,o),
(281,72,c),
(260,72,o),
(242,65,o),
(225,50,c),
(215,41,o),
(208,30,o),
(204,18,c),
(188,17,o),
(172,16,o),
(156,15,c)
);
},
{
closed = 1;
nodes = (
(148,168,l),
(210,174,o),
(272,182,o),
(332,192,c),
(399,203,o),
(462,215,o),
(521,228,c),
(580,241,o),
(631,254,o),
(676,266,c),
(681,267,o),
(686,268,o),
(689,268,c),
(694,268,o),
(698,267,o),
(700,264,c),
(702,261,o),
(703,257,o),
(704,250,c),
(705,224,l),
(655,209,o),
(601,195,o),
(543,182,c),
(476,167,o),
(406,155,o),
(334,144,c),
(272,134,o),
(211,126,o),
(150,121,c)
);
},
{
closed = 1;
nodes = (
(410,541,o),
(414,544,o),
(419,544,c),
(428,544,o),
(432,538,o),
(432,527,c),
(432,520,o),
(430,513,o),
(427,508,c),
(424,503,o),
(420,500,o),
(415,500,c),
(406,500,o),
(402,506,o),
(402,517,c),
(402,524,o),
(404,531,o),
(407,536,c)
);
},
{
closed = 1;
nodes = (
(426,641,o),
(431,644,o),
(436,644,c),
(439,644,o),
(442,643,o),
(445,640,c),
(448,637,o),
(449,634,o),
(449,629,c),
(449,624,o),
(447,618,o),
(444,611,c),
(440,604,o),
(435,601,o),
(429,601,c),
(426,601,o),
(424,602,o),
(421,605,c),
(418,607,o),
(416,611,o),
(416,616,c),
(416,622,o),
(418,628,o),
(422,635,c)
);
},
{
closed = 1;
nodes = (
(487,584,o),
(492,576,o),
(492,561,c),
(492,546,o),
(487,539,o),
(478,539,c),
(469,539,o),
(464,546,o),
(464,561,c),
(464,576,o),
(469,584,o),
(478,584,c)
);
},
{
closed = 1;
nodes = (
(511,643,o),
(514,644,o),
(517,644,c),
(522,644,o),
(527,641,o),
(531,635,c),
(535,628,o),
(537,622,o),
(537,616,c),
(537,611,o),
(536,607,o),
(533,605,c),
(530,602,o),
(527,601,o),
(524,601,c),
(519,601,o),
(514,604,o),
(510,611,c),
(506,618,o),
(504,624,o),
(504,629,c),
(504,634,o),
(505,637,o),
(508,640,c)
);
},
{
closed = 1;
nodes = (
(552,531,o),
(554,524,o),
(554,517,c),
(554,506,o),
(549,500,o),
(540,500,c),
(535,500,o),
(532,503,o),
(529,508,c),
(526,513,o),
(524,520,o),
(524,527,c),
(524,538,o),
(528,544,o),
(536,544,c),
(541,544,o),
(546,541,o),
(549,536,c)
);
},
{
closed = 1;
nodes = (
(848,112,o),
(841,124,o),
(832,135,c),
(823,400,l),
(842,417,o),
(851,438,o),
(851,462,c),
(851,485,o),
(843,505,o),
(827,522,c),
(810,538,o),
(790,546,o),
(767,546,c),
(762,546,o),
(758,546,o),
(753,545,c),
(747,560,o),
(737,573,o),
(723,583,c),
(708,593,o),
(693,598,o),
(676,598,c),
(670,598,l),
(668,598,o),
(666,598,o),
(664,597,c),
(656,610,o),
(646,620,o),
(633,627,c),
(620,634,o),
(607,638,o),
(592,638,c),
(588,638,o),
(584,638,o),
(581,637,c),
(576,647,o),
(571,656,o),
(565,665,c),
(552,682,o),
(539,697,o),
(524,708,c),
(509,719,o),
(494,724,o),
(478,724,c),
(463,724,o),
(448,719,o),
(433,708,c),
(418,697,o),
(404,682,o),
(392,665,c),
(379,647,o),
(370,627,o),
(363,606,c),
(359,595,o),
(356,584,o),
(354,572,c),
(314,530,o),
(275,485,o),
(237,438,c),
(191,382,o),
(146,323,o),
(102,262,c),
(122,-114,l),
(211,-114,o),
(305,-106,o),
(403,-91,c),
(501,-76,o),
(610,-52,o),
(731,-20,c),
(769,-20,o),
(800,-12,o),
(823,5,c),
(846,22,o),
(858,43,o),
(858,69,c),
(858,79,o),
(856,90,o),
(852,101,c)
);
}
);
width = 950;
}
);
note = u1F370;
unicode = 127856;
},
